<svg width="293" height="381" viewBox="0 0 293 381" fill="none" xmlns="http://www.w3.org/2000/svg">
<g filter="url(#filter0_b_17_34)">
<rect width="293" height="381" rx="40" fill="white" fill-opacity="0.6"/>
<rect x="0.5" y="0.5" width="292" height="380" rx="39.5" stroke="white" stroke-opacity="0.6"/>
<rect x="46" y="317" width="205" height="44" rx="20" fill="black"/>
<path d="M99.0817 334.131V332.364H108.366V334.131H104.769V344H102.678V334.131H99.0817ZM110.156 344V332.364H114.519C115.413 332.364 116.163 332.519 116.769 332.83C117.379 333.14 117.839 333.576 118.15 334.136C118.464 334.693 118.621 335.343 118.621 336.085C118.621 336.831 118.462 337.479 118.144 338.028C117.83 338.574 117.366 338.996 116.752 339.295C116.138 339.591 115.385 339.739 114.491 339.739H111.383V337.989H114.207C114.729 337.989 115.157 337.917 115.491 337.773C115.824 337.625 116.07 337.411 116.229 337.131C116.392 336.847 116.474 336.498 116.474 336.085C116.474 335.672 116.392 335.32 116.229 335.028C116.067 334.733 115.818 334.509 115.485 334.358C115.152 334.203 114.722 334.125 114.195 334.125H112.263V344H110.156ZM116.167 338.727L119.048 344H116.695L113.866 338.727H116.167ZM119.313 332.364H121.694L124.54 337.511H124.654L127.501 332.364H129.881L125.648 339.659V344H123.546V339.659L119.313 332.364ZM135.343 344V332.364H142.798V334.131H137.451V337.29H142.286V339.057H137.451V344H135.343ZM155.116 338.182C155.116 339.436 154.881 340.509 154.411 341.403C153.945 342.294 153.309 342.975 152.502 343.449C151.699 343.922 150.788 344.159 149.769 344.159C148.75 344.159 147.837 343.922 147.031 343.449C146.228 342.972 145.591 342.288 145.121 341.398C144.656 340.504 144.423 339.432 144.423 338.182C144.423 336.928 144.656 335.856 145.121 334.966C145.591 334.072 146.228 333.388 147.031 332.915C147.837 332.441 148.75 332.205 149.769 332.205C150.788 332.205 151.699 332.441 152.502 332.915C153.309 333.388 153.945 334.072 154.411 334.966C154.881 335.856 155.116 336.928 155.116 338.182ZM152.996 338.182C152.996 337.299 152.858 336.555 152.582 335.949C152.309 335.339 151.93 334.879 151.445 334.568C150.96 334.254 150.402 334.097 149.769 334.097C149.137 334.097 148.578 334.254 148.093 334.568C147.608 334.879 147.228 335.339 146.951 335.949C146.678 336.555 146.542 337.299 146.542 338.182C146.542 339.064 146.678 339.811 146.951 340.42C147.228 341.027 147.608 341.487 148.093 341.801C148.578 342.112 149.137 342.267 149.769 342.267C150.402 342.267 150.96 342.112 151.445 341.801C151.93 341.487 152.309 341.027 152.582 340.42C152.858 339.811 152.996 339.064 152.996 338.182ZM157.109 344V332.364H161.472C162.366 332.364 163.116 332.519 163.722 332.83C164.332 333.14 164.792 333.576 165.103 334.136C165.417 334.693 165.575 335.343 165.575 336.085C165.575 336.831 165.415 337.479 165.097 338.028C164.783 338.574 164.319 338.996 163.705 339.295C163.092 339.591 162.338 339.739 161.444 339.739H158.336V337.989H161.16C161.683 337.989 162.111 337.917 162.444 337.773C162.777 337.625 163.023 337.411 163.183 337.131C163.345 336.847 163.427 336.498 163.427 336.085C163.427 335.672 163.345 335.32 163.183 335.028C163.02 334.733 162.772 334.509 162.438 334.358C162.105 334.203 161.675 334.125 161.148 334.125H159.217V344H157.109ZM163.12 338.727L166.001 344H163.648L160.819 338.727H163.12ZM171.484 344V332.364H178.938V334.131H173.592V337.29H178.427V339.057H173.592V344H171.484ZM180.859 344V332.364H185.222C186.116 332.364 186.866 332.519 187.472 332.83C188.082 333.14 188.542 333.576 188.853 334.136C189.167 334.693 189.325 335.343 189.325 336.085C189.325 336.831 189.165 337.479 188.847 338.028C188.533 338.574 188.069 338.996 187.455 339.295C186.842 339.591 186.088 339.739 185.194 339.739H182.086V337.989H184.91C185.433 337.989 185.861 337.917 186.194 337.773C186.527 337.625 186.773 337.411 186.933 337.131C187.095 336.847 187.177 336.498 187.177 336.085C187.177 335.672 187.095 335.32 186.933 335.028C186.77 334.733 186.522 334.509 186.188 334.358C185.855 334.203 185.425 334.125 184.898 334.125H182.967V344H180.859ZM186.87 338.727L189.751 344H187.398L184.569 338.727H186.87ZM191.265 344V332.364H198.833V334.131H193.373V337.29H198.441V339.057H193.373V342.233H198.879V344H191.265ZM200.984 344V332.364H208.552V334.131H203.092V337.29H208.16V339.057H203.092V342.233H208.597V344H200.984Z" fill="#CFCECE"/>
<path d="M76 252C75.45 252 74.9793 251.804 74.588 251.413C74.196 251.021 74 250.55 74 250V240C74 239.45 74.196 238.979 74.588 238.587C74.9793 238.196 75.45 238 76 238H77V236C77 234.617 77.4877 233.437 78.463 232.462C79.4377 231.487 80.6167 231 82 231C83.3833 231 84.5627 231.487 85.538 232.462C86.5127 233.437 87 234.617 87 236V238H88C88.55 238 89.021 238.196 89.413 238.587C89.8043 238.979 90 239.45 90 240V250C90 250.55 89.8043 251.021 89.413 251.413C89.021 251.804 88.55 252 88 252H76ZM76 250H88V240H76V250ZM82 247C82.55 247 83.021 246.804 83.413 246.413C83.8043 246.021 84 245.55 84 245C84 244.45 83.8043 243.979 83.413 243.587C83.021 243.196 82.55 243 82 243C81.45 243 80.9793 243.196 80.588 243.587C80.196 243.979 80 244.45 80 245C80 245.55 80.196 246.021 80.588 246.413C80.9793 246.804 81.45 247 82 247ZM79 238H85V236C85 235.167 84.7083 234.458 84.125 233.875C83.5417 233.292 82.8333 233 82 233C81.1667 233 80.4583 233.292 79.875 233.875C79.2917 234.458 79 235.167 79 236V238ZM76 250V240V250Z" fill="black"/>
<path opacity="0.3" d="M74 172H90V178H74V172ZM74 166H90V168H74V166Z" fill="black"/>
<path d="M90 164H74C72.89 164 72.01 164.89 72.01 166L72 178C72 179.11 72.89 180 74 180H90C91.11 180 92 179.11 92 178V166C92 164.89 91.11 164 90 164ZM90 178H74V172H90V178ZM90 168H74V166H90V168Z" fill="black"/>
<path opacity="0.2" d="M157.75 39.9687L147.031 29.25L152.065 24.216C152.208 24.0713 152.378 23.9564 152.565 23.878C152.752 23.7996 152.953 23.7592 153.156 23.7592C153.359 23.7592 153.56 23.7996 153.748 23.878C153.935 23.9564 154.105 24.0713 154.247 24.216L162.784 32.7527C162.929 32.8952 163.044 33.0651 163.122 33.2524C163.2 33.4397 163.241 33.6407 163.241 33.8437C163.241 34.0468 163.2 34.2478 163.122 34.4351C163.044 34.6224 162.929 34.7923 162.784 34.9348L157.75 39.9687Z" fill="black"/>
<path d="M164.775 33.8438C164.775 33.4417 164.696 33.0435 164.541 32.6723C164.387 32.301 164.16 31.9641 163.875 31.6809L155.319 23.125C154.743 22.5569 153.966 22.2384 153.156 22.2384C152.347 22.2384 151.57 22.5569 150.993 23.125L128.025 46.0938C127.722 46.391 127.487 46.7501 127.336 47.1465C127.316 47.1848 127.316 47.223 127.297 47.2613C127.182 47.5803 127.123 47.9173 127.125 48.2566V56.8125C127.125 57.6247 127.448 58.4037 128.022 58.978C128.596 59.5523 129.375 59.875 130.188 59.875H138.743C139.089 59.8752 139.432 59.817 139.758 59.7027L139.854 59.6645C140.25 59.5132 140.609 59.2782 140.906 58.9754L156.927 42.9547L157.578 45.6152L150.534 52.659C150.246 52.9493 150.085 53.3414 150.085 53.75C150.085 54.1586 150.246 54.5507 150.534 54.841C150.827 55.124 151.218 55.2822 151.625 55.2822C152.032 55.2822 152.423 55.124 152.716 54.841L160.372 47.1848C160.552 46.9928 160.682 46.7602 160.752 46.5069C160.822 46.2535 160.83 45.987 160.774 45.7301L159.454 40.4473L163.875 36.0066C164.16 35.7234 164.387 35.3865 164.541 35.0152C164.696 34.644 164.775 34.2458 164.775 33.8438V33.8438ZM130.188 51.3191L135.681 56.8125H130.188V51.3191ZM139.375 56.1809L130.819 47.625L147.031 31.4129L155.587 39.9688L139.375 56.1809ZM157.75 37.8059L149.194 29.25L153.156 25.2879L161.712 33.8438L157.75 37.8059Z" fill="black"/>
<path d="M72 202H90M86 197L91 202L86 207M92 212H74M78 207L73 212L78 217" stroke="black" stroke-width="2"/>
<path d="M86.36 281C86.44 280.34 86.5 279.68 86.5 279C86.5 278.32 86.44 277.66 86.36 277H89.74C89.9 277.64 90 278.31 90 279C90 279.69 89.9 280.36 89.74 281M84.59 286.56C85.19 285.45 85.65 284.25 85.97 283H88.92C87.9512 284.668 86.4141 285.932 84.59 286.56M84.34 281H79.66C79.56 280.34 79.5 279.68 79.5 279C79.5 278.32 79.56 277.65 79.66 277H84.34C84.43 277.65 84.5 278.32 84.5 279C84.5 279.68 84.43 280.34 84.34 281ZM82 286.96C81.17 285.76 80.5 284.43 80.09 283H83.91C83.5 284.43 82.83 285.76 82 286.96ZM78 275H75.08C76.0389 273.327 77.5748 272.061 79.4 271.44C78.8 272.55 78.35 273.75 78 275ZM75.08 283H78C78.35 284.25 78.8 285.45 79.4 286.56C77.5786 285.932 76.0448 284.668 75.08 283M74.26 281C74.1 280.36 74 279.69 74 279C74 278.31 74.1 277.64 74.26 277H77.64C77.56 277.66 77.5 278.32 77.5 279C77.5 279.68 77.56 280.34 77.64 281M82 271.03C82.83 272.23 83.5 273.57 83.91 275H80.09C80.5 273.57 81.17 272.23 82 271.03M88.92 275H85.97C85.657 273.761 85.1936 272.566 84.59 271.44C86.43 272.07 87.96 273.34 88.92 275ZM82 269C76.47 269 72 273.5 72 279C72 281.652 73.0536 284.196 74.9289 286.071C75.8575 287 76.9599 287.736 78.1732 288.239C79.3864 288.741 80.6868 289 82 289C84.6522 289 87.1957 287.946 89.0711 286.071C90.9464 284.196 92 281.652 92 279C92 277.687 91.7413 276.386 91.2388 275.173C90.7362 273.96 89.9997 272.858 89.0711 271.929C88.1425 271 87.0401 270.264 85.8268 269.761C84.6136 269.259 83.3132 269 82 269V269Z" fill="black"/>
<path d="M113.312 169.273V178H111.731V170.811H111.68L109.638 172.115V170.666L111.807 169.273H113.312ZM126.059 172.217H124.466C124.42 171.956 124.336 171.724 124.214 171.523C124.092 171.318 123.94 171.145 123.758 171.003C123.577 170.861 123.369 170.754 123.136 170.683C122.906 170.609 122.657 170.572 122.39 170.572C121.916 170.572 121.496 170.692 121.129 170.93C120.763 171.166 120.476 171.513 120.268 171.97C120.061 172.425 119.957 172.98 119.957 173.636C119.957 174.304 120.061 174.866 120.268 175.324C120.479 175.778 120.765 176.122 121.129 176.355C121.496 176.585 121.915 176.7 122.386 176.7C122.648 176.7 122.892 176.666 123.119 176.598C123.349 176.527 123.555 176.423 123.737 176.287C123.922 176.151 124.077 175.983 124.202 175.784C124.329 175.585 124.417 175.358 124.466 175.102L126.059 175.111C126 175.526 125.871 175.915 125.672 176.278C125.476 176.642 125.219 176.963 124.9 177.241C124.582 177.517 124.21 177.733 123.784 177.889C123.358 178.043 122.885 178.119 122.365 178.119C121.598 178.119 120.913 177.942 120.311 177.587C119.709 177.232 119.234 176.719 118.888 176.048C118.541 175.378 118.368 174.574 118.368 173.636C118.368 172.696 118.542 171.892 118.892 171.224C119.241 170.554 119.717 170.041 120.319 169.686C120.922 169.331 121.604 169.153 122.365 169.153C122.851 169.153 123.302 169.222 123.72 169.358C124.138 169.494 124.51 169.695 124.836 169.959C125.163 170.22 125.432 170.541 125.642 170.922C125.855 171.3 125.994 171.732 126.059 172.217ZM128.523 178H126.835L129.907 169.273H131.859L134.936 178H133.248L130.917 171.062H130.849L128.523 178ZM128.578 174.578H133.18V175.848H128.578V174.578ZM136.085 178V169.273H139.358C140.029 169.273 140.591 169.389 141.046 169.622C141.503 169.855 141.848 170.182 142.081 170.602C142.317 171.02 142.435 171.507 142.435 172.064C142.435 172.624 142.316 173.109 142.077 173.521C141.841 173.93 141.493 174.247 141.033 174.472C140.573 174.693 140.007 174.804 139.337 174.804H137.006V173.491H139.124C139.516 173.491 139.837 173.437 140.087 173.33C140.337 173.219 140.521 173.058 140.641 172.848C140.763 172.635 140.824 172.374 140.824 172.064C140.824 171.754 140.763 171.49 140.641 171.271C140.519 171.05 140.333 170.882 140.083 170.768C139.833 170.652 139.51 170.594 139.115 170.594H137.666V178H136.085ZM140.594 174.045L142.754 178H140.99L138.868 174.045H140.594ZM146.847 178H143.89V169.273H146.907C147.774 169.273 148.518 169.447 149.14 169.797C149.765 170.143 150.245 170.642 150.58 171.293C150.916 171.943 151.083 172.722 151.083 173.628C151.083 174.537 150.914 175.318 150.576 175.972C150.241 176.625 149.757 177.126 149.123 177.476C148.492 177.825 147.734 178 146.847 178ZM145.471 176.632H146.771C147.379 176.632 147.886 176.521 148.292 176.3C148.698 176.075 149.004 175.741 149.208 175.298C149.413 174.852 149.515 174.295 149.515 173.628C149.515 172.96 149.413 172.406 149.208 171.966C149.004 171.523 148.701 171.192 148.301 170.973C147.903 170.751 147.409 170.641 146.818 170.641H145.471V176.632ZM156.73 169.273L159.001 176.142H159.09L161.357 169.273H163.096L160.019 178H158.068L154.995 169.273H156.73ZM165.827 169.273V178H164.246V169.273H165.827ZM172.281 171.672C172.242 171.3 172.074 171.01 171.779 170.803C171.486 170.595 171.105 170.491 170.637 170.491C170.307 170.491 170.024 170.541 169.789 170.641C169.553 170.74 169.372 170.875 169.247 171.045C169.122 171.216 169.058 171.411 169.056 171.629C169.056 171.811 169.097 171.969 169.179 172.102C169.264 172.236 169.379 172.349 169.524 172.443C169.669 172.534 169.83 172.611 170.006 172.673C170.182 172.736 170.36 172.788 170.539 172.831L171.357 173.036C171.686 173.112 172.003 173.216 172.307 173.347C172.614 173.477 172.888 173.642 173.129 173.841C173.374 174.04 173.567 174.28 173.709 174.561C173.851 174.842 173.922 175.172 173.922 175.55C173.922 176.061 173.791 176.511 173.53 176.901C173.269 177.287 172.891 177.589 172.396 177.808C171.905 178.024 171.31 178.132 170.611 178.132C169.932 178.132 169.343 178.027 168.843 177.817C168.345 177.607 167.956 177.3 167.675 176.896C167.396 176.493 167.246 176.001 167.223 175.422H168.779C168.801 175.726 168.895 175.979 169.06 176.18C169.225 176.382 169.439 176.533 169.703 176.632C169.97 176.732 170.269 176.781 170.598 176.781C170.942 176.781 171.243 176.73 171.502 176.628C171.763 176.523 171.968 176.378 172.115 176.193C172.263 176.006 172.338 175.787 172.341 175.537C172.338 175.31 172.271 175.122 172.141 174.974C172.01 174.824 171.827 174.699 171.591 174.599C171.358 174.497 171.085 174.406 170.773 174.327L169.78 174.071C169.061 173.886 168.493 173.607 168.075 173.232C167.661 172.854 167.453 172.352 167.453 171.727C167.453 171.213 167.593 170.763 167.871 170.376C168.152 169.99 168.534 169.69 169.017 169.477C169.5 169.261 170.047 169.153 170.658 169.153C171.277 169.153 171.82 169.261 172.286 169.477C172.754 169.69 173.122 169.987 173.389 170.368C173.656 170.746 173.794 171.18 173.803 171.672H172.281ZM176.312 178H174.624L177.697 169.273H179.648L182.725 178H181.037L178.706 171.062H178.638L176.312 178ZM176.367 174.578H180.969V175.848H176.367V174.578Z" fill="black"/>
<path d="M112.23 204.273V213H110.649V205.811H110.597L108.556 207.115V205.666L110.725 204.273H112.23ZM117.258 214.091V203.182H117.957V214.091H117.258ZM119.274 206.672C119.234 206.3 119.066 206.01 118.771 205.803C118.478 205.595 118.097 205.491 117.629 205.491C117.299 205.491 117.017 205.541 116.781 205.641C116.545 205.74 116.365 205.875 116.24 206.045C116.115 206.216 116.051 206.411 116.048 206.629C116.048 206.811 116.089 206.969 116.171 207.102C116.257 207.236 116.372 207.349 116.517 207.443C116.661 207.534 116.822 207.611 116.998 207.673C117.174 207.736 117.352 207.788 117.531 207.831L118.349 208.036C118.678 208.112 118.995 208.216 119.299 208.347C119.606 208.477 119.88 208.642 120.122 208.841C120.366 209.04 120.559 209.28 120.701 209.561C120.843 209.842 120.914 210.172 120.914 210.55C120.914 211.061 120.784 211.511 120.522 211.901C120.261 212.287 119.883 212.589 119.389 212.808C118.897 213.024 118.302 213.132 117.603 213.132C116.924 213.132 116.335 213.027 115.835 212.817C115.338 212.607 114.948 212.3 114.667 211.896C114.389 211.493 114.238 211.001 114.215 210.422H115.771C115.794 210.726 115.887 210.979 116.052 211.18C116.217 211.382 116.431 211.533 116.695 211.632C116.963 211.732 117.261 211.781 117.59 211.781C117.934 211.781 118.235 211.73 118.494 211.628C118.755 211.523 118.96 211.378 119.107 211.193C119.255 211.006 119.33 210.787 119.333 210.537C119.33 210.31 119.264 210.122 119.133 209.974C119.002 209.824 118.819 209.699 118.583 209.599C118.35 209.497 118.078 209.406 117.765 209.327L116.772 209.071C116.053 208.886 115.485 208.607 115.068 208.232C114.653 207.854 114.445 207.352 114.445 206.727C114.445 206.213 114.585 205.763 114.863 205.376C115.144 204.99 115.526 204.69 116.009 204.477C116.492 204.261 117.039 204.153 117.65 204.153C118.269 204.153 118.812 204.261 119.278 204.477C119.747 204.69 120.115 204.987 120.382 205.368C120.649 205.746 120.786 206.18 120.795 206.672H119.274ZM125.3 213V204.273H130.891V205.598H126.881V207.967H130.508V209.293H126.881V213H125.3ZM140.13 208.636C140.13 209.577 139.954 210.382 139.601 211.053C139.252 211.72 138.775 212.232 138.17 212.587C137.567 212.942 136.884 213.119 136.12 213.119C135.356 213.119 134.671 212.942 134.066 212.587C133.464 212.229 132.986 211.716 132.634 211.048C132.285 210.378 132.11 209.574 132.11 208.636C132.11 207.696 132.285 206.892 132.634 206.224C132.986 205.554 133.464 205.041 134.066 204.686C134.671 204.331 135.356 204.153 136.12 204.153C136.884 204.153 137.567 204.331 138.17 204.686C138.775 205.041 139.252 205.554 139.601 206.224C139.954 206.892 140.13 207.696 140.13 208.636ZM138.54 208.636C138.54 207.974 138.437 207.416 138.229 206.962C138.025 206.504 137.741 206.159 137.377 205.926C137.013 205.69 136.594 205.572 136.12 205.572C135.645 205.572 135.226 205.69 134.863 205.926C134.499 206.159 134.214 206.504 134.006 206.962C133.802 207.416 133.699 207.974 133.699 208.636C133.699 209.298 133.802 209.858 134.006 210.315C134.214 210.77 134.499 211.115 134.863 211.351C135.226 211.584 135.645 211.7 136.12 211.7C136.594 211.7 137.013 211.584 137.377 211.351C137.741 211.115 138.025 210.77 138.229 210.315C138.437 209.858 138.54 209.298 138.54 208.636ZM141.624 213V204.273H144.897C145.568 204.273 146.13 204.389 146.585 204.622C147.042 204.855 147.387 205.182 147.62 205.602C147.856 206.02 147.974 206.507 147.974 207.064C147.974 207.624 147.855 208.109 147.616 208.521C147.38 208.93 147.032 209.247 146.572 209.472C146.112 209.693 145.546 209.804 144.876 209.804H142.545V208.491H144.663C145.055 208.491 145.376 208.437 145.626 208.33C145.876 208.219 146.061 208.058 146.18 207.848C146.302 207.635 146.363 207.374 146.363 207.064C146.363 206.754 146.302 206.49 146.18 206.271C146.058 206.05 145.872 205.882 145.622 205.768C145.372 205.652 145.049 205.594 144.654 205.594H143.205V213H141.624ZM146.133 209.045L148.294 213H146.529L144.407 209.045H146.133ZM152.022 205.598V204.273H158.985V205.598H156.288V213H154.72V205.598H152.022ZM160.328 213V204.273H163.6C164.271 204.273 164.833 204.389 165.288 204.622C165.745 204.855 166.09 205.182 166.323 205.602C166.559 206.02 166.677 206.507 166.677 207.064C166.677 207.624 166.558 208.109 166.319 208.521C166.083 208.93 165.735 209.247 165.275 209.472C164.815 209.693 164.249 209.804 163.579 209.804H161.248V208.491H163.366C163.758 208.491 164.079 208.437 164.329 208.33C164.579 208.219 164.764 208.058 164.883 207.848C165.005 207.635 165.066 207.374 165.066 207.064C165.066 206.754 165.005 206.49 164.883 206.271C164.761 206.05 164.575 205.882 164.325 205.768C164.075 205.652 163.752 205.594 163.357 205.594H161.909V213H160.328ZM164.836 209.045L166.997 213H165.232L163.11 209.045H164.836ZM169.253 213H167.566L170.638 204.273H172.59L175.666 213H173.979L171.648 206.062H171.58L169.253 213ZM169.308 209.578H173.911V210.848H169.308V209.578ZM183.988 204.273V213H182.581L178.469 207.055H178.397V213H176.816V204.273H178.231L182.339 210.222H182.415V204.273H183.988ZM190.453 206.672C190.414 206.3 190.246 206.01 189.95 205.803C189.658 205.595 189.277 205.491 188.808 205.491C188.479 205.491 188.196 205.541 187.96 205.641C187.725 205.74 187.544 205.875 187.419 206.045C187.294 206.216 187.23 206.411 187.227 206.629C187.227 206.811 187.269 206.969 187.351 207.102C187.436 207.236 187.551 207.349 187.696 207.443C187.841 207.534 188.002 207.611 188.178 207.673C188.354 207.736 188.531 207.788 188.71 207.831L189.529 208.036C189.858 208.112 190.175 208.216 190.479 208.347C190.786 208.477 191.06 208.642 191.301 208.841C191.546 209.04 191.739 209.28 191.881 209.561C192.023 209.842 192.094 210.172 192.094 210.55C192.094 211.061 191.963 211.511 191.702 211.901C191.441 212.287 191.063 212.589 190.568 212.808C190.077 213.024 189.482 213.132 188.783 213.132C188.104 213.132 187.514 213.027 187.014 212.817C186.517 212.607 186.128 212.3 185.847 211.896C185.568 211.493 185.418 211.001 185.395 210.422H186.95C186.973 210.726 187.067 210.979 187.232 211.18C187.396 211.382 187.611 211.533 187.875 211.632C188.142 211.732 188.441 211.781 188.77 211.781C189.114 211.781 189.415 211.73 189.673 211.628C189.935 211.523 190.139 211.378 190.287 211.193C190.435 211.006 190.51 210.787 190.513 210.537C190.51 210.31 190.443 210.122 190.313 209.974C190.182 209.824 189.999 209.699 189.763 209.599C189.53 209.497 189.257 209.406 188.945 209.327L187.952 209.071C187.233 208.886 186.665 208.607 186.247 208.232C185.833 207.854 185.625 207.352 185.625 206.727C185.625 206.213 185.764 205.763 186.043 205.376C186.324 204.99 186.706 204.69 187.189 204.477C187.672 204.261 188.219 204.153 188.83 204.153C189.449 204.153 189.992 204.261 190.458 204.477C190.926 204.69 191.294 204.987 191.561 205.368C191.828 205.746 191.966 206.18 191.975 206.672H190.453ZM194.483 213H192.796L195.868 204.273H197.82L200.897 213H199.209L196.878 206.062H196.81L194.483 213ZM194.539 209.578H199.141V210.848H194.539V209.578ZM209.106 207.217H207.513C207.467 206.956 207.383 206.724 207.261 206.523C207.139 206.318 206.987 206.145 206.805 206.003C206.623 205.861 206.416 205.754 206.183 205.683C205.953 205.609 205.704 205.572 205.437 205.572C204.963 205.572 204.542 205.692 204.176 205.93C203.809 206.166 203.523 206.513 203.315 206.97C203.108 207.425 203.004 207.98 203.004 208.636C203.004 209.304 203.108 209.866 203.315 210.324C203.525 210.778 203.812 211.122 204.176 211.355C204.542 211.585 204.961 211.7 205.433 211.7C205.694 211.7 205.939 211.666 206.166 211.598C206.396 211.527 206.602 211.423 206.784 211.287C206.969 211.151 207.123 210.983 207.248 210.784C207.376 210.585 207.464 210.358 207.513 210.102L209.106 210.111C209.047 210.526 208.917 210.915 208.719 211.278C208.523 211.642 208.265 211.963 207.947 212.241C207.629 212.517 207.257 212.733 206.831 212.889C206.405 213.043 205.932 213.119 205.412 213.119C204.645 213.119 203.96 212.942 203.358 212.587C202.756 212.232 202.281 211.719 201.934 211.048C201.588 210.378 201.415 209.574 201.415 208.636C201.415 207.696 201.589 206.892 201.939 206.224C202.288 205.554 202.764 205.041 203.366 204.686C203.969 204.331 204.65 204.153 205.412 204.153C205.898 204.153 206.349 204.222 206.767 204.358C207.184 204.494 207.557 204.695 207.883 204.959C208.21 205.22 208.479 205.541 208.689 205.922C208.902 206.3 209.041 206.732 209.106 207.217ZM210.171 205.598V204.273H217.134V205.598H214.436V213H212.868V205.598H210.171ZM220.057 204.273V213H218.476V204.273H220.057ZM229.567 208.636C229.567 209.577 229.391 210.382 229.039 211.053C228.689 211.72 228.212 212.232 227.607 212.587C227.005 212.942 226.322 213.119 225.557 213.119C224.793 213.119 224.108 212.942 223.503 212.587C222.901 212.229 222.424 211.716 222.072 211.048C221.722 210.378 221.547 209.574 221.547 208.636C221.547 207.696 221.722 206.892 222.072 206.224C222.424 205.554 222.901 205.041 223.503 204.686C224.108 204.331 224.793 204.153 225.557 204.153C226.322 204.153 227.005 204.331 227.607 204.686C228.212 205.041 228.689 205.554 229.039 206.224C229.391 206.892 229.567 207.696 229.567 208.636ZM227.978 208.636C227.978 207.974 227.874 207.416 227.667 206.962C227.462 206.504 227.178 206.159 226.814 205.926C226.451 205.69 226.032 205.572 225.557 205.572C225.083 205.572 224.664 205.69 224.3 205.926C223.937 206.159 223.651 206.504 223.444 206.962C223.239 207.416 223.137 207.974 223.137 208.636C223.137 209.298 223.239 209.858 223.444 210.315C223.651 210.77 223.937 211.115 224.3 211.351C224.664 211.584 225.083 211.7 225.557 211.7C226.032 211.7 226.451 211.584 226.814 211.351C227.178 211.115 227.462 210.77 227.667 210.315C227.874 209.858 227.978 209.298 227.978 208.636ZM238.234 204.273V213H236.828L232.715 207.055H232.643V213H231.062V204.273H232.477L236.585 210.222H236.661V204.273H238.234Z" fill="black"/>
<path d="M108.316 284V275.273H113.992V276.598H109.897V278.967H113.698V280.293H109.897V282.675H114.026V284H108.316ZM122.777 275.273V284H121.371L117.258 278.055H117.186V284H115.605V275.273H117.02L121.128 281.222H121.204V275.273H122.777ZM130.346 278.06C130.275 277.83 130.177 277.624 130.052 277.442C129.93 277.257 129.782 277.099 129.609 276.969C129.438 276.838 129.242 276.74 129.021 276.675C128.799 276.607 128.558 276.572 128.296 276.572C127.828 276.572 127.41 276.69 127.044 276.926C126.677 277.162 126.389 277.509 126.178 277.966C125.971 278.42 125.867 278.974 125.867 279.628C125.867 280.287 125.971 280.845 126.178 281.303C126.386 281.76 126.674 282.108 127.044 282.347C127.413 282.582 127.842 282.7 128.33 282.7C128.774 282.7 129.157 282.615 129.481 282.445C129.808 282.274 130.059 282.033 130.235 281.72C130.411 281.405 130.499 281.036 130.499 280.612L130.857 280.668H128.488V279.432H132.029V280.48C132.029 281.227 131.87 281.874 131.552 282.419C131.234 282.964 130.796 283.385 130.24 283.68C129.683 283.973 129.044 284.119 128.322 284.119C127.518 284.119 126.812 283.939 126.204 283.578C125.599 283.214 125.126 282.699 124.785 282.031C124.447 281.361 124.278 280.565 124.278 279.645C124.278 278.94 124.377 278.311 124.576 277.757C124.778 277.203 125.059 276.733 125.42 276.347C125.781 275.957 126.204 275.662 126.69 275.46C127.176 275.256 127.704 275.153 128.275 275.153C128.758 275.153 129.208 275.224 129.626 275.366C130.044 275.506 130.414 275.705 130.738 275.963C131.065 276.222 131.333 276.528 131.544 276.884C131.754 277.239 131.892 277.631 131.957 278.06H130.346ZM133.558 284V275.273H135.139V282.675H138.983V284H133.558ZM141.936 275.273V284H140.355V275.273H141.936ZM148.391 277.672C148.351 277.3 148.183 277.01 147.888 276.803C147.595 276.595 147.215 276.491 146.746 276.491C146.416 276.491 146.134 276.541 145.898 276.641C145.662 276.74 145.482 276.875 145.357 277.045C145.232 277.216 145.168 277.411 145.165 277.629C145.165 277.811 145.206 277.969 145.289 278.102C145.374 278.236 145.489 278.349 145.634 278.443C145.779 278.534 145.939 278.611 146.115 278.673C146.291 278.736 146.469 278.788 146.648 278.831L147.466 279.036C147.796 279.112 148.112 279.216 148.416 279.347C148.723 279.477 148.997 279.642 149.239 279.841C149.483 280.04 149.676 280.28 149.818 280.561C149.96 280.842 150.031 281.172 150.031 281.55C150.031 282.061 149.901 282.511 149.639 282.901C149.378 283.287 149 283.589 148.506 283.808C148.014 284.024 147.419 284.132 146.72 284.132C146.041 284.132 145.452 284.027 144.952 283.817C144.455 283.607 144.066 283.3 143.784 282.896C143.506 282.493 143.355 282.001 143.333 281.422H144.888C144.911 281.726 145.004 281.979 145.169 282.18C145.334 282.382 145.548 282.533 145.813 282.632C146.08 282.732 146.378 282.781 146.708 282.781C147.051 282.781 147.352 282.73 147.611 282.628C147.872 282.523 148.077 282.378 148.225 282.193C148.372 282.006 148.448 281.787 148.45 281.537C148.448 281.31 148.381 281.122 148.25 280.974C148.119 280.824 147.936 280.699 147.7 280.599C147.468 280.497 147.195 280.406 146.882 280.327L145.889 280.071C145.171 279.886 144.602 279.607 144.185 279.232C143.77 278.854 143.563 278.352 143.563 277.727C143.563 277.213 143.702 276.763 143.98 276.376C144.262 275.99 144.644 275.69 145.127 275.477C145.61 275.261 146.156 275.153 146.767 275.153C147.387 275.153 147.929 275.261 148.395 275.477C148.864 275.69 149.232 275.987 149.499 276.368C149.766 276.746 149.904 277.18 149.912 277.672H148.391ZM151.441 284V275.273H153.022V278.967H157.066V275.273H158.651V284H157.066V280.293H153.022V284H151.441ZM168.09 277.672C168.05 277.3 167.883 277.01 167.587 276.803C167.295 276.595 166.914 276.491 166.445 276.491C166.116 276.491 165.833 276.541 165.597 276.641C165.361 276.74 165.181 276.875 165.056 277.045C164.931 277.216 164.867 277.411 164.864 277.629C164.864 277.811 164.905 277.969 164.988 278.102C165.073 278.236 165.188 278.349 165.333 278.443C165.478 278.534 165.638 278.611 165.814 278.673C165.991 278.736 166.168 278.788 166.347 278.831L167.165 279.036C167.495 279.112 167.812 279.216 168.116 279.347C168.422 279.477 168.697 279.642 168.938 279.841C169.182 280.04 169.376 280.28 169.518 280.561C169.66 280.842 169.731 281.172 169.731 281.55C169.731 282.061 169.6 282.511 169.339 282.901C169.077 283.287 168.699 283.589 168.205 283.808C167.714 284.024 167.118 284.132 166.42 284.132C165.741 284.132 165.151 284.027 164.651 283.817C164.154 283.607 163.765 283.3 163.483 282.896C163.205 282.493 163.055 282.001 163.032 281.422H164.587C164.61 281.726 164.704 281.979 164.868 282.18C165.033 282.382 165.248 282.533 165.512 282.632C165.779 282.732 166.077 282.781 166.407 282.781C166.751 282.781 167.052 282.73 167.31 282.628C167.572 282.523 167.776 282.378 167.924 282.193C168.072 282.006 168.147 281.787 168.15 281.537C168.147 281.31 168.08 281.122 167.949 280.974C167.819 280.824 167.635 280.699 167.4 280.599C167.167 280.497 166.894 280.406 166.581 280.327L165.589 280.071C164.87 279.886 164.302 279.607 163.884 279.232C163.469 278.854 163.262 278.352 163.262 277.727C163.262 277.213 163.401 276.763 163.68 276.376C163.961 275.99 164.343 275.69 164.826 275.477C165.309 275.261 165.856 275.153 166.466 275.153C167.086 275.153 167.628 275.261 168.094 275.477C168.563 275.69 168.931 275.987 169.198 276.368C169.465 276.746 169.603 277.18 169.611 277.672H168.09ZM176.642 275.273H178.222V280.974C178.222 281.599 178.075 282.149 177.779 282.624C177.487 283.098 177.075 283.469 176.544 283.736C176.012 284 175.392 284.132 174.681 284.132C173.968 284.132 173.346 284 172.815 283.736C172.284 283.469 171.872 283.098 171.579 282.624C171.286 282.149 171.14 281.599 171.14 280.974V275.273H172.721V280.842C172.721 281.206 172.801 281.53 172.96 281.814C173.122 282.098 173.349 282.321 173.642 282.483C173.934 282.642 174.281 282.722 174.681 282.722C175.082 282.722 175.428 282.642 175.721 282.483C176.017 282.321 176.244 282.098 176.403 281.814C176.562 281.53 176.642 281.206 176.642 280.842V275.273ZM179.941 284V275.273H183.214C183.884 275.273 184.447 275.398 184.901 275.648C185.358 275.898 185.704 276.241 185.937 276.679C186.172 277.114 186.29 277.608 186.29 278.162C186.29 278.722 186.172 279.219 185.937 279.653C185.701 280.088 185.353 280.43 184.893 280.68C184.432 280.928 183.866 281.051 183.192 281.051H181.023V279.751H182.979C183.371 279.751 183.692 279.683 183.942 279.547C184.192 279.411 184.377 279.223 184.496 278.984C184.618 278.746 184.68 278.472 184.68 278.162C184.68 277.852 184.618 277.58 184.496 277.344C184.377 277.108 184.191 276.925 183.938 276.794C183.688 276.661 183.366 276.594 182.971 276.594H181.522V284H179.941ZM187.664 284V275.273H190.936C191.607 275.273 192.169 275.398 192.624 275.648C193.081 275.898 193.426 276.241 193.659 276.679C193.895 277.114 194.013 277.608 194.013 278.162C194.013 278.722 193.895 279.219 193.659 279.653C193.423 280.088 193.075 280.43 192.615 280.68C192.155 280.928 191.588 281.051 190.915 281.051H188.746V279.751H190.702C191.094 279.751 191.415 279.683 191.665 279.547C191.915 279.411 192.1 279.223 192.219 278.984C192.341 278.746 192.402 278.472 192.402 278.162C192.402 277.852 192.341 277.58 192.219 277.344C192.1 277.108 191.914 276.925 191.661 276.794C191.411 276.661 191.088 276.594 190.693 276.594H189.244V284H187.664ZM203.184 279.636C203.184 280.577 203.008 281.382 202.656 282.053C202.307 282.72 201.829 283.232 201.224 283.587C200.622 283.942 199.939 284.119 199.175 284.119C198.41 284.119 197.726 283.942 197.121 283.587C196.518 283.229 196.041 282.716 195.689 282.048C195.339 281.378 195.165 280.574 195.165 279.636C195.165 278.696 195.339 277.892 195.689 277.224C196.041 276.554 196.518 276.041 197.121 275.686C197.726 275.331 198.41 275.153 199.175 275.153C199.939 275.153 200.622 275.331 201.224 275.686C201.829 276.041 202.307 276.554 202.656 277.224C203.008 277.892 203.184 278.696 203.184 279.636ZM201.595 279.636C201.595 278.974 201.491 278.416 201.284 277.962C201.079 277.504 200.795 277.159 200.432 276.926C200.068 276.69 199.649 276.572 199.175 276.572C198.7 276.572 198.281 276.69 197.917 276.926C197.554 277.159 197.268 277.504 197.061 277.962C196.856 278.416 196.754 278.974 196.754 279.636C196.754 280.298 196.856 280.858 197.061 281.315C197.268 281.77 197.554 282.115 197.917 282.351C198.281 282.584 198.7 282.7 199.175 282.7C199.649 282.7 200.068 282.584 200.432 282.351C200.795 282.115 201.079 281.77 201.284 281.315C201.491 280.858 201.595 280.298 201.595 279.636ZM204.679 284V275.273H207.952C208.622 275.273 209.185 275.389 209.639 275.622C210.097 275.855 210.442 276.182 210.675 276.602C210.911 277.02 211.029 277.507 211.029 278.064C211.029 278.624 210.909 279.109 210.671 279.521C210.435 279.93 210.087 280.247 209.627 280.472C209.166 280.693 208.601 280.804 207.931 280.804H205.6V279.491H207.718C208.11 279.491 208.431 279.437 208.681 279.33C208.931 279.219 209.115 279.058 209.235 278.848C209.357 278.635 209.418 278.374 209.418 278.064C209.418 277.754 209.357 277.49 209.235 277.271C209.112 277.05 208.926 276.882 208.676 276.768C208.426 276.652 208.104 276.594 207.709 276.594H206.26V284H204.679ZM209.188 280.045L211.348 284H209.584L207.462 280.045H209.188ZM212.1 276.598V275.273H219.063V276.598H216.366V284H214.798V276.598H212.1Z" fill="black"/>
<path d="M109.177 248V239.273H114.768V240.598H110.758V242.967H114.385V244.293H110.758V248H109.177ZM121.71 239.273H123.291V244.974C123.291 245.599 123.143 246.149 122.848 246.624C122.555 247.098 122.143 247.469 121.612 247.736C121.081 248 120.46 248.132 119.75 248.132C119.037 248.132 118.414 248 117.883 247.736C117.352 247.469 116.94 247.098 116.647 246.624C116.355 246.149 116.208 245.599 116.208 244.974V239.273H117.789V244.842C117.789 245.206 117.869 245.53 118.028 245.814C118.19 246.098 118.417 246.321 118.71 246.483C119.002 246.642 119.349 246.722 119.75 246.722C120.15 246.722 120.497 246.642 120.789 246.483C121.085 246.321 121.312 246.098 121.471 245.814C121.63 245.53 121.71 245.206 121.71 244.842V239.273ZM125.009 248V239.273H126.59V246.675H130.434V248H125.009ZM131.806 248V239.273H133.387V246.675H137.231V248H131.806ZM141.58 248V239.273H144.852C145.523 239.273 146.085 239.398 146.54 239.648C146.997 239.898 147.342 240.241 147.575 240.679C147.811 241.114 147.929 241.608 147.929 242.162C147.929 242.722 147.811 243.219 147.575 243.653C147.339 244.088 146.991 244.43 146.531 244.68C146.071 244.928 145.504 245.051 144.831 245.051H142.662V243.751H144.618C145.01 243.751 145.331 243.683 145.581 243.547C145.831 243.411 146.016 243.223 146.135 242.984C146.257 242.746 146.318 242.472 146.318 242.162C146.318 241.852 146.257 241.58 146.135 241.344C146.016 241.108 145.83 240.925 145.577 240.794C145.327 240.661 145.004 240.594 144.609 240.594H143.161V248H141.58ZM149.302 248V239.273H152.575C153.245 239.273 153.808 239.389 154.262 239.622C154.72 239.855 155.065 240.182 155.298 240.602C155.534 241.02 155.652 241.507 155.652 242.064C155.652 242.624 155.532 243.109 155.294 243.521C155.058 243.93 154.71 244.247 154.25 244.472C153.789 244.693 153.224 244.804 152.554 244.804H150.223V243.491H152.341C152.733 243.491 153.054 243.437 153.304 243.33C153.554 243.219 153.738 243.058 153.858 242.848C153.98 242.635 154.041 242.374 154.041 242.064C154.041 241.754 153.98 241.49 153.858 241.271C153.735 241.05 153.549 240.882 153.299 240.768C153.049 240.652 152.727 240.594 152.332 240.594H150.883V248H149.302ZM153.811 244.045L155.971 248H154.207L152.085 244.045H153.811ZM164.905 243.636C164.905 244.577 164.729 245.382 164.377 246.053C164.027 246.72 163.55 247.232 162.945 247.587C162.343 247.942 161.659 248.119 160.895 248.119C160.131 248.119 159.446 247.942 158.841 247.587C158.239 247.229 157.762 246.716 157.409 246.048C157.06 245.378 156.885 244.574 156.885 243.636C156.885 242.696 157.06 241.892 157.409 241.224C157.762 240.554 158.239 240.041 158.841 239.686C159.446 239.331 160.131 239.153 160.895 239.153C161.659 239.153 162.343 239.331 162.945 239.686C163.55 240.041 164.027 240.554 164.377 241.224C164.729 241.892 164.905 242.696 164.905 243.636ZM163.316 243.636C163.316 242.974 163.212 242.416 163.005 241.962C162.8 241.504 162.516 241.159 162.152 240.926C161.789 240.69 161.37 240.572 160.895 240.572C160.421 240.572 160.002 240.69 159.638 240.926C159.275 241.159 158.989 241.504 158.782 241.962C158.577 242.416 158.475 242.974 158.475 243.636C158.475 244.298 158.577 244.858 158.782 245.315C158.989 245.77 159.275 246.115 159.638 246.351C160.002 246.584 160.421 246.7 160.895 246.7C161.37 246.7 161.789 246.584 162.152 246.351C162.516 246.115 162.8 245.77 163.005 245.315C163.212 244.858 163.316 244.298 163.316 243.636ZM165.63 240.598V239.273H172.593V240.598H169.895V248H168.327V240.598H165.63ZM173.935 248V239.273H179.611V240.598H175.516V242.967H179.317V244.293H175.516V246.675H179.645V248H173.935ZM188.694 242.217H187.1C187.055 241.956 186.971 241.724 186.849 241.523C186.727 241.318 186.575 241.145 186.393 241.003C186.211 240.861 186.004 240.754 185.771 240.683C185.541 240.609 185.292 240.572 185.025 240.572C184.551 240.572 184.13 240.692 183.764 240.93C183.397 241.166 183.11 241.513 182.903 241.97C182.696 242.425 182.592 242.98 182.592 243.636C182.592 244.304 182.696 244.866 182.903 245.324C183.113 245.778 183.4 246.122 183.764 246.355C184.13 246.585 184.549 246.7 185.021 246.7C185.282 246.7 185.527 246.666 185.754 246.598C185.984 246.527 186.19 246.423 186.372 246.287C186.556 246.151 186.711 245.983 186.836 245.784C186.964 245.585 187.052 245.358 187.1 245.102L188.694 245.111C188.635 245.526 188.505 245.915 188.306 246.278C188.11 246.642 187.853 246.963 187.535 247.241C187.217 247.517 186.845 247.733 186.419 247.889C185.993 248.043 185.52 248.119 185 248.119C184.233 248.119 183.548 247.942 182.946 247.587C182.343 247.232 181.869 246.719 181.522 246.048C181.176 245.378 181.002 244.574 181.002 243.636C181.002 242.696 181.177 241.892 181.527 241.224C181.876 240.554 182.352 240.041 182.954 239.686C183.556 239.331 184.238 239.153 185 239.153C185.485 239.153 185.937 239.222 186.355 239.358C186.772 239.494 187.145 239.695 187.471 239.959C187.798 240.22 188.066 240.541 188.277 240.922C188.49 241.3 188.629 241.732 188.694 242.217ZM189.759 240.598V239.273H196.722V240.598H194.024V248H192.456V240.598H189.759ZM199.645 239.273V248H198.064V239.273H199.645ZM209.155 243.636C209.155 244.577 208.979 245.382 208.627 246.053C208.277 246.72 207.8 247.232 207.195 247.587C206.593 247.942 205.909 248.119 205.145 248.119C204.381 248.119 203.696 247.942 203.091 247.587C202.489 247.229 202.012 246.716 201.659 246.048C201.31 245.378 201.135 244.574 201.135 243.636C201.135 242.696 201.31 241.892 201.659 241.224C202.012 240.554 202.489 240.041 203.091 239.686C203.696 239.331 204.381 239.153 205.145 239.153C205.909 239.153 206.593 239.331 207.195 239.686C207.8 240.041 208.277 240.554 208.627 241.224C208.979 241.892 209.155 242.696 209.155 243.636ZM207.566 243.636C207.566 242.974 207.462 242.416 207.255 241.962C207.05 241.504 206.766 241.159 206.402 240.926C206.039 240.69 205.62 240.572 205.145 240.572C204.671 240.572 204.252 240.69 203.888 240.926C203.525 241.159 203.239 241.504 203.032 241.962C202.827 242.416 202.725 242.974 202.725 243.636C202.725 244.298 202.827 244.858 203.032 245.315C203.239 245.77 203.525 246.115 203.888 246.351C204.252 246.584 204.671 246.7 205.145 246.7C205.62 246.7 206.039 246.584 206.402 246.351C206.766 246.115 207.05 245.77 207.255 245.315C207.462 244.858 207.566 244.298 207.566 243.636ZM217.822 239.273V248H216.415L212.303 242.055H212.231V248H210.65V239.273H212.065L216.173 245.222H216.249V239.273H217.822Z" fill="black"/>
<path d="M92.8026 136.818V98.6364H95.2487V136.818H92.8026ZM99.2906 111.239C99.1713 110.036 98.6592 109.102 97.7544 108.435C96.8495 107.769 95.6215 107.436 94.0704 107.436C93.0164 107.436 92.1265 107.585 91.4007 107.884C90.6748 108.172 90.118 108.575 89.7302 109.092C89.3524 109.609 89.1634 110.195 89.1634 110.852C89.1436 111.398 89.2579 111.876 89.5065 112.283C89.765 112.691 90.118 113.044 90.5654 113.342C91.0129 113.631 91.5299 113.884 92.1166 114.103C92.7032 114.312 93.3296 114.491 93.9958 114.64L96.7401 115.296C98.0725 115.594 99.2955 115.992 100.409 116.489C101.523 116.987 102.487 117.598 103.303 118.324C104.118 119.05 104.749 119.905 105.197 120.889C105.654 121.874 105.888 123.002 105.898 124.275C105.888 126.144 105.411 127.765 104.466 129.137C103.531 130.499 102.179 131.558 100.409 132.314C98.6492 133.06 96.5264 133.433 94.0406 133.433C91.5747 133.433 89.4269 133.055 87.5974 132.299C85.7778 131.543 84.3559 130.425 83.3318 128.943C82.3176 127.452 81.7856 125.607 81.7359 123.41H87.9852C88.0548 124.434 88.3481 125.289 88.8651 125.975C89.3921 126.651 90.0931 127.163 90.9681 127.511C91.8531 127.849 92.8524 128.018 93.966 128.018C95.0597 128.018 96.0093 127.859 96.8147 127.541C97.6301 127.223 98.2615 126.781 98.7089 126.214C99.1563 125.647 99.3801 124.996 99.3801 124.26C99.3801 123.574 99.1762 122.997 98.7686 122.53C98.3708 122.062 97.7842 121.665 97.0086 121.337C96.243 121.009 95.3034 120.71 94.1897 120.442L90.8637 119.607C88.2884 118.98 86.2551 118.001 84.7636 116.668C83.2721 115.336 82.5313 113.541 82.5413 111.284C82.5313 109.435 83.0235 107.819 84.0178 106.437C85.0221 105.055 86.3992 103.976 88.1492 103.2C89.8992 102.425 91.8879 102.037 94.1151 102.037C96.3822 102.037 98.3609 102.425 100.051 103.2C101.752 103.976 103.074 105.055 104.019 106.437C104.963 107.819 105.45 109.42 105.48 111.239H99.2906ZM122.039 133.671C119.474 133.661 117.267 133.03 115.417 131.777C113.578 130.524 112.161 128.71 111.166 126.333C110.182 123.957 109.695 121.098 109.705 117.757C109.705 114.426 110.197 111.587 111.181 109.241C112.176 106.894 113.593 105.109 115.432 103.886C117.282 102.653 119.484 102.037 122.039 102.037C124.595 102.037 126.792 102.653 128.632 103.886C130.481 105.119 131.903 106.909 132.897 109.256C133.892 111.592 134.384 114.426 134.374 117.757C134.374 121.108 133.877 123.972 132.882 126.348C131.898 128.724 130.486 130.539 128.647 131.792C126.807 133.045 124.605 133.671 122.039 133.671ZM122.039 128.317C123.789 128.317 125.186 127.437 126.23 125.677C127.274 123.917 127.791 121.277 127.782 117.757C127.782 115.44 127.543 113.511 127.066 111.97C126.598 110.429 125.932 109.271 125.067 108.495C124.212 107.719 123.203 107.332 122.039 107.332C120.299 107.332 118.907 108.202 117.863 109.942C116.819 111.682 116.292 114.287 116.282 117.757C116.282 120.104 116.516 122.062 116.983 123.634C117.46 125.195 118.132 126.368 118.997 127.153C119.862 127.929 120.876 128.317 122.039 128.317ZM152.342 101.023L142.499 137.594H137.025L146.869 101.023H152.342ZM155.404 133V110.091H161.459V114.133H161.728C162.205 112.79 163 111.732 164.114 110.956C165.228 110.18 166.56 109.793 168.111 109.793C169.682 109.793 171.019 110.185 172.123 110.971C173.227 111.746 173.963 112.8 174.331 114.133H174.569C175.036 112.82 175.882 111.771 177.105 110.986C178.338 110.19 179.794 109.793 181.475 109.793C183.612 109.793 185.348 110.474 186.68 111.836C188.022 113.188 188.693 115.107 188.693 117.593V133H182.355V118.846C182.355 117.573 182.017 116.619 181.34 115.982C180.664 115.346 179.819 115.028 178.805 115.028C177.652 115.028 176.752 115.396 176.105 116.131C175.459 116.857 175.136 117.817 175.136 119.01V133H168.976V118.712C168.976 117.588 168.653 116.693 168.007 116.027C167.37 115.361 166.53 115.028 165.486 115.028C164.78 115.028 164.144 115.207 163.577 115.565C163.02 115.913 162.578 116.405 162.25 117.041C161.921 117.668 161.757 118.403 161.757 119.249V133H155.404ZM204.063 133.447C201.746 133.447 199.743 132.955 198.052 131.971C196.372 130.977 195.074 129.594 194.16 127.825C193.245 126.045 192.788 123.982 192.788 121.635C192.788 119.268 193.245 117.2 194.16 115.43C195.074 113.651 196.372 112.268 198.052 111.284C199.743 110.29 201.746 109.793 204.063 109.793C206.38 109.793 208.378 110.29 210.059 111.284C211.749 112.268 213.052 113.651 213.967 115.43C214.881 117.2 215.339 119.268 215.339 121.635C215.339 123.982 214.881 126.045 213.967 127.825C213.052 129.594 211.749 130.977 210.059 131.971C208.378 132.955 206.38 133.447 204.063 133.447ZM204.093 128.526C205.147 128.526 206.027 128.227 206.733 127.631C207.439 127.024 207.971 126.199 208.329 125.155C208.697 124.111 208.881 122.923 208.881 121.59C208.881 120.258 208.697 119.07 208.329 118.026C207.971 116.982 207.439 116.156 206.733 115.55C206.027 114.943 205.147 114.64 204.093 114.64C203.029 114.64 202.134 114.943 201.408 115.55C200.692 116.156 200.15 116.982 199.783 118.026C199.425 119.07 199.246 120.258 199.246 121.59C199.246 122.923 199.425 124.111 199.783 125.155C200.15 126.199 200.692 127.024 201.408 127.631C202.134 128.227 203.029 128.526 204.093 128.526Z" fill="black"/>
<path d="M108.695 80V69.8182H115.217V71.3643H110.539V74.1286H114.77V75.6747H110.539V80H108.695ZM116.898 80V69.8182H120.716C121.498 69.8182 122.154 69.9541 122.685 70.2259C123.218 70.4976 123.621 70.8788 123.893 71.3693C124.168 71.8565 124.305 72.425 124.305 73.0746C124.305 73.7275 124.166 74.2943 123.888 74.7749C123.613 75.2521 123.207 75.6217 122.67 75.8835C122.133 76.142 121.473 76.2713 120.691 76.2713H117.972V74.7401H120.443C120.9 74.7401 121.274 74.6771 121.566 74.5511C121.858 74.4219 122.073 74.2346 122.212 73.9893C122.355 73.7408 122.426 73.4358 122.426 73.0746C122.426 72.7133 122.355 72.4051 122.212 72.1499C122.07 71.8913 121.853 71.6958 121.561 71.5632C121.27 71.4273 120.893 71.3594 120.433 71.3594H118.742V80H116.898ZM122.158 75.3864L124.678 80H122.62L120.144 75.3864H122.158ZM126.003 80V69.8182H132.625V71.3643H127.848V74.1286H132.282V75.6747H127.848V78.4538H132.665V80H126.003ZM134.507 80V69.8182H141.129V71.3643H136.352V74.1286H140.786V75.6747H136.352V78.4538H141.169V80H134.507ZM146.484 80V69.8182H150.302C151.084 69.8182 151.74 69.964 152.271 70.2557C152.804 70.5473 153.207 70.9484 153.479 71.4588C153.754 71.9659 153.891 72.5426 153.891 73.1889C153.891 73.8419 153.754 74.4219 153.479 74.929C153.204 75.4361 152.798 75.8355 152.261 76.1271C151.724 76.4155 151.063 76.5597 150.277 76.5597H147.747V75.0433H150.028C150.486 75.0433 150.86 74.9638 151.152 74.8047C151.444 74.6456 151.659 74.4268 151.798 74.1484C151.941 73.87 152.012 73.5502 152.012 73.1889C152.012 72.8277 151.941 72.5095 151.798 72.2344C151.659 71.9593 151.442 71.7455 151.147 71.593C150.855 71.4373 150.479 71.3594 150.019 71.3594H148.328V80H146.484ZM155.494 80V69.8182H157.338V78.4538H161.822V80H155.494ZM165.114 80H163.145L166.729 69.8182H169.006L172.596 80H170.627L167.908 71.9062H167.828L165.114 80ZM165.178 76.0078H170.547V77.4893H165.178V76.0078ZM182.304 69.8182V80H180.663L175.866 73.0646H175.781V80H173.937V69.8182H175.587L180.38 76.7585H180.47V69.8182H182.304Z" fill="black"/>
</g>
<defs>
<filter id="filter0_b_17_34" x="-200" y="-200" width="693" height="781" filterUnits="userSpaceOnUse" color-interpolation-filters="sRGB">
<feFlood flood-opacity="0" result="BackgroundImageFix"/>
<feGaussianBlur in="BackgroundImageFix" stdDeviation="100"/>
<feComposite in2="SourceAlpha" operator="in" result="effect1_backgroundBlur_17_34"/>
<feBlend mode="normal" in="SourceGraphic" in2="effect1_backgroundBlur_17_34" result="shape"/>
</filter>
</defs>
</svg>
