<svg width="390" height="455" viewBox="0 0 390 455" fill="none" xmlns="http://www.w3.org/2000/svg">
<g filter="url(#filter0_b_18_43)">
<rect width="390" height="455" rx="40" fill="url(#paint0_linear_18_43)"/>
<rect x="0.5" y="0.5" width="389" height="454" rx="39.5" stroke="white"/>
</g>
<rect x="65" y="379" width="272.867" height="52.5459" rx="20" fill="white"/>
<path d="M155.102 401.353C155.035 400.733 154.756 400.25 154.264 399.904C153.776 399.559 153.141 399.386 152.36 399.386C151.811 399.386 151.34 399.469 150.947 399.635C150.554 399.8 150.253 400.025 150.045 400.309C149.836 400.593 149.73 400.918 149.725 401.282C149.725 401.585 149.794 401.848 149.931 402.071C150.073 402.293 150.265 402.483 150.506 402.639C150.748 402.79 151.015 402.918 151.309 403.022C151.603 403.127 151.899 403.214 152.197 403.285L153.56 403.626C154.11 403.754 154.638 403.927 155.144 404.145C155.656 404.362 156.113 404.637 156.515 404.968C156.922 405.3 157.244 405.7 157.481 406.169C157.718 406.637 157.836 407.187 157.836 407.816C157.836 408.669 157.618 409.419 157.183 410.068C156.747 410.712 156.117 411.216 155.293 411.581C154.474 411.94 153.482 412.12 152.318 412.12C151.186 412.12 150.203 411.945 149.37 411.595C148.542 411.244 147.893 410.733 147.424 410.061C146.96 409.388 146.709 408.569 146.671 407.603H149.264C149.301 408.11 149.458 408.531 149.732 408.868C150.007 409.204 150.364 409.455 150.805 409.62C151.25 409.786 151.747 409.869 152.296 409.869C152.869 409.869 153.371 409.784 153.802 409.613C154.238 409.438 154.578 409.197 154.825 408.889C155.071 408.576 155.196 408.212 155.201 407.795C155.196 407.416 155.085 407.104 154.867 406.858C154.649 406.607 154.344 406.398 153.951 406.233C153.563 406.062 153.108 405.911 152.587 405.778L150.933 405.352C149.735 405.044 148.788 404.578 148.092 403.953C147.4 403.323 147.055 402.487 147.055 401.446C147.055 400.589 147.287 399.838 147.751 399.194C148.22 398.55 148.856 398.051 149.661 397.696C150.466 397.336 151.378 397.156 152.396 397.156C153.428 397.156 154.332 397.336 155.109 397.696C155.89 398.051 156.503 398.546 156.948 399.18C157.393 399.81 157.623 400.534 157.637 401.353H155.102ZM169.354 397.355H171.989V406.858C171.989 407.899 171.743 408.815 171.25 409.606C170.763 410.397 170.076 411.015 169.191 411.46C168.305 411.9 167.271 412.12 166.087 412.12C164.899 412.12 163.862 411.9 162.976 411.46C162.091 411.015 161.404 410.397 160.917 409.606C160.429 408.815 160.185 407.899 160.185 406.858V397.355H162.82V406.637C162.82 407.244 162.953 407.783 163.218 408.257C163.488 408.73 163.866 409.102 164.354 409.372C164.842 409.637 165.419 409.77 166.087 409.77C166.755 409.77 167.332 409.637 167.82 409.372C168.312 409.102 168.691 408.73 168.956 408.257C169.222 407.783 169.354 407.244 169.354 406.637V397.355ZM174.853 411.9V397.355H180.421C181.472 397.355 182.346 397.521 183.042 397.852C183.743 398.179 184.266 398.626 184.612 399.194C184.962 399.762 185.137 400.406 185.137 401.126C185.137 401.718 185.024 402.225 184.796 402.646C184.569 403.063 184.264 403.401 183.88 403.662C183.497 403.922 183.068 404.109 182.595 404.223V404.365C183.111 404.393 183.605 404.552 184.079 404.841C184.557 405.125 184.948 405.527 185.251 406.048C185.554 406.569 185.705 407.199 185.705 407.937C185.705 408.69 185.523 409.367 185.158 409.968C184.794 410.565 184.245 411.036 183.511 411.382C182.777 411.727 181.854 411.9 180.741 411.9H174.853ZM177.488 409.699H180.322C181.278 409.699 181.967 409.516 182.389 409.152C182.815 408.782 183.028 408.309 183.028 407.731C183.028 407.3 182.921 406.912 182.708 406.566C182.495 406.216 182.192 405.941 181.799 405.743C181.406 405.539 180.937 405.437 180.393 405.437H177.488V409.699ZM177.488 403.541H180.095C180.549 403.541 180.959 403.458 181.323 403.292C181.688 403.122 181.974 402.883 182.183 402.575C182.396 402.262 182.502 401.893 182.502 401.467C182.502 400.904 182.303 400.44 181.906 400.075C181.513 399.71 180.928 399.528 180.151 399.528H177.488V403.541ZM195.902 401.353C195.836 400.733 195.557 400.25 195.064 399.904C194.577 399.559 193.942 399.386 193.161 399.386C192.612 399.386 192.141 399.469 191.748 399.635C191.355 399.8 191.054 400.025 190.846 400.309C190.637 400.593 190.531 400.918 190.526 401.282C190.526 401.585 190.595 401.848 190.732 402.071C190.874 402.293 191.066 402.483 191.307 402.639C191.549 402.79 191.816 402.918 192.11 403.022C192.403 403.127 192.699 403.214 192.998 403.285L194.361 403.626C194.91 403.754 195.438 403.927 195.945 404.145C196.456 404.362 196.913 404.637 197.316 404.968C197.723 405.3 198.045 405.7 198.282 406.169C198.518 406.637 198.637 407.187 198.637 407.816C198.637 408.669 198.419 409.419 197.983 410.068C197.548 410.712 196.918 411.216 196.094 411.581C195.275 411.94 194.283 412.12 193.118 412.12C191.987 412.12 191.004 411.945 190.171 411.595C189.342 411.244 188.694 410.733 188.225 410.061C187.761 409.388 187.51 408.569 187.472 407.603H190.064C190.102 408.11 190.258 408.531 190.533 408.868C190.808 409.204 191.165 409.455 191.606 409.62C192.051 409.786 192.548 409.869 193.097 409.869C193.67 409.869 194.172 409.784 194.603 409.613C195.038 409.438 195.379 409.197 195.625 408.889C195.872 408.576 195.997 408.212 196.002 407.795C195.997 407.416 195.886 407.104 195.668 406.858C195.45 406.607 195.145 406.398 194.752 406.233C194.364 406.062 193.909 405.911 193.388 405.778L191.733 405.352C190.535 405.044 189.589 404.578 188.892 403.953C188.201 403.323 187.856 402.487 187.856 401.446C187.856 400.589 188.088 399.838 188.552 399.194C189.02 398.55 189.657 398.051 190.462 397.696C191.267 397.336 192.178 397.156 193.196 397.156C194.229 397.156 195.133 397.336 195.91 397.696C196.691 398.051 197.304 398.546 197.749 399.18C198.194 399.81 198.424 400.534 198.438 401.353H195.902ZM213.436 402.262H210.78C210.704 401.827 210.564 401.441 210.361 401.105C210.157 400.764 209.904 400.475 209.601 400.238C209.298 400.002 208.952 399.824 208.564 399.706C208.18 399.583 207.766 399.521 207.321 399.521C206.53 399.521 205.83 399.72 205.219 400.118C204.608 400.511 204.13 401.088 203.784 401.851C203.439 402.608 203.266 403.534 203.266 404.628C203.266 405.74 203.439 406.678 203.784 407.44C204.135 408.198 204.613 408.771 205.219 409.159C205.83 409.542 206.528 409.734 207.314 409.734C207.75 409.734 208.157 409.677 208.536 409.564C208.919 409.445 209.262 409.272 209.565 409.045C209.873 408.818 210.131 408.538 210.34 408.207C210.553 407.876 210.699 407.497 210.78 407.071L213.436 407.085C213.337 407.776 213.121 408.425 212.79 409.031C212.463 409.637 212.035 410.172 211.504 410.636C210.974 411.095 210.354 411.455 209.644 411.716C208.933 411.971 208.145 412.099 207.278 412.099C206 412.099 204.859 411.803 203.855 411.211C202.851 410.619 202.061 409.765 201.483 408.647C200.905 407.53 200.617 406.19 200.617 404.628C200.617 403.06 200.908 401.72 201.49 400.608C202.073 399.49 202.866 398.636 203.869 398.044C204.873 397.452 206.01 397.156 207.278 397.156C208.088 397.156 208.841 397.27 209.537 397.497C210.233 397.724 210.853 398.058 211.398 398.498C211.942 398.934 212.39 399.469 212.74 400.103C213.095 400.733 213.327 401.453 213.436 402.262ZM215.849 411.9V397.355H221.304C222.421 397.355 223.359 397.549 224.116 397.937C224.879 398.325 225.454 398.87 225.842 399.571C226.235 400.267 226.432 401.079 226.432 402.007C226.432 402.94 226.233 403.749 225.835 404.436C225.442 405.118 224.862 405.646 224.095 406.02C223.328 406.389 222.386 406.574 221.268 406.574H217.383V404.386H220.913C221.566 404.386 222.102 404.296 222.518 404.116C222.935 403.931 223.243 403.664 223.441 403.314C223.645 402.958 223.747 402.523 223.747 402.007C223.747 401.491 223.645 401.05 223.441 400.686C223.238 400.316 222.928 400.037 222.511 399.848C222.094 399.654 221.557 399.556 220.899 399.556H218.484V411.9H215.849ZM223.363 405.309L226.964 411.9H224.024L220.487 405.309H223.363ZM231.492 397.355V411.9H228.857V397.355H231.492ZM234.345 411.9V397.355H239.913C240.965 397.355 241.838 397.521 242.534 397.852C243.235 398.179 243.758 398.626 244.104 399.194C244.454 399.762 244.629 400.406 244.629 401.126C244.629 401.718 244.516 402.225 244.288 402.646C244.061 403.063 243.756 403.401 243.372 403.662C242.989 403.922 242.56 404.109 242.087 404.223V404.365C242.603 404.393 243.098 404.552 243.571 404.841C244.049 405.125 244.44 405.527 244.743 406.048C245.046 406.569 245.198 407.199 245.198 407.937C245.198 408.69 245.015 409.367 244.651 409.968C244.286 410.565 243.737 411.036 243.003 411.382C242.269 411.727 241.346 411.9 240.233 411.9H234.345ZM236.98 409.699H239.814C240.77 409.699 241.459 409.516 241.881 409.152C242.307 408.782 242.52 408.309 242.52 407.731C242.52 407.3 242.413 406.912 242.2 406.566C241.987 406.216 241.684 405.941 241.291 405.743C240.898 405.539 240.43 405.437 239.885 405.437H236.98V409.699ZM236.98 403.541H239.587C240.041 403.541 240.451 403.458 240.815 403.292C241.18 403.122 241.466 402.883 241.675 402.575C241.888 402.262 241.994 401.893 241.994 401.467C241.994 400.904 241.796 400.44 241.398 400.075C241.005 399.71 240.42 399.528 239.644 399.528H236.98V403.541ZM247.49 411.9V397.355H256.95V399.564H250.125V403.512H256.46V405.721H250.125V409.691H257.007V411.9H247.49Z" fill="black"/>
<path d="M98.1604 300.945C97.4283 300.945 96.8018 300.711 96.281 300.244C95.7592 299.776 95.4983 299.213 95.4983 298.556V286.614C95.4983 285.957 95.7592 285.395 96.281 284.927C96.8018 284.459 97.4283 284.226 98.1604 284.226H99.4915V281.837C99.4915 280.185 100.141 278.777 101.439 277.612C102.736 276.448 104.305 275.866 106.147 275.866C107.988 275.866 109.558 276.448 110.856 277.612C112.153 278.777 112.802 280.185 112.802 281.837V284.226H114.133C114.865 284.226 115.492 284.459 116.014 284.927C116.535 285.395 116.795 285.957 116.795 286.614V298.556C116.795 299.213 116.535 299.776 116.014 300.244C115.492 300.711 114.865 300.945 114.133 300.945H98.1604ZM98.1604 298.556H114.133V286.614H98.1604V298.556ZM106.147 294.974C106.879 294.974 107.506 294.74 108.028 294.273C108.548 293.805 108.809 293.242 108.809 292.585C108.809 291.928 108.548 291.366 108.028 290.898C107.506 290.431 106.879 290.197 106.147 290.197C105.415 290.197 104.788 290.431 104.267 290.898C103.746 291.366 103.485 291.928 103.485 292.585C103.485 293.242 103.746 293.805 104.267 294.273C104.788 294.74 105.415 294.974 106.147 294.974ZM102.154 284.226H110.14V281.837C110.14 280.842 109.752 279.996 108.975 279.3C108.199 278.603 107.256 278.255 106.147 278.255C105.038 278.255 104.095 278.603 103.318 279.3C102.542 279.996 102.154 280.842 102.154 281.837V284.226ZM98.1604 298.556V286.614V298.556Z" fill="white"/>
<path opacity="0.3" d="M95.4983 205.407H116.795V212.572H95.4983V205.407ZM95.4983 198.241H116.795V200.63H95.4983V198.241Z" fill="white"/>
<path d="M116.795 195.853H95.4983C94.0208 195.853 92.8495 196.916 92.8495 198.241L92.8362 212.572C92.8362 213.898 94.0208 214.961 95.4983 214.961H116.795C118.273 214.961 119.457 213.898 119.457 212.572V198.241C119.457 196.916 118.273 195.853 116.795 195.853ZM116.795 212.572H95.4983V205.407H116.795V212.572ZM116.795 200.63H95.4983V198.241H116.795V200.63Z" fill="white"/>
<path d="M92.8362 241.234H116.795M111.471 235.262L118.126 241.234L111.471 247.205M119.457 253.176H95.4983M100.823 247.205L94.1672 253.176L100.823 259.147" stroke="white" stroke-width="2"/>
<g clip-path="url(#clip0_18_43)">
<path d="M111.95 335.577C112.057 334.789 112.137 334.001 112.137 333.189C112.137 332.377 112.057 331.589 111.95 330.801H116.449C116.662 331.565 116.795 332.365 116.795 333.189C116.795 334.013 116.662 334.813 116.449 335.577M109.594 342.217C110.393 340.892 111.005 339.459 111.431 337.966H115.358C114.068 339.958 112.022 341.467 109.594 342.217M109.261 335.577H103.032C102.899 334.789 102.819 334.001 102.819 333.189C102.819 332.377 102.899 331.577 103.032 330.801H109.261C109.381 331.577 109.474 332.377 109.474 333.189C109.474 334.001 109.381 334.789 109.261 335.577ZM106.147 342.695C105.042 341.262 104.15 339.674 103.604 337.966H108.689C108.143 339.674 107.252 341.262 106.147 342.695ZM100.823 328.412H96.9358C98.2121 326.414 100.257 324.903 102.686 324.161C101.887 325.486 101.288 326.919 100.823 328.412ZM96.9358 337.966H100.823C101.288 339.459 101.887 340.892 102.686 342.217C100.262 341.467 98.2201 339.958 96.9358 337.966M95.8444 335.577C95.6314 334.813 95.4983 334.013 95.4983 333.189C95.4983 332.365 95.6314 331.565 95.8444 330.801H100.343C100.237 331.589 100.157 332.377 100.157 333.189C100.157 334.001 100.237 334.789 100.343 335.577M106.147 323.671C107.252 325.104 108.143 326.704 108.689 328.412H103.604C104.15 326.704 105.042 325.104 106.147 323.671M115.358 328.412H111.431C111.014 326.933 110.398 325.505 109.594 324.161C112.043 324.913 114.08 326.43 115.358 328.412ZM106.147 321.247C98.786 321.247 92.8362 326.621 92.8362 333.189C92.8362 336.356 94.2385 339.394 96.7348 341.633C97.9708 342.742 99.4381 343.622 101.053 344.222C102.668 344.822 104.399 345.131 106.147 345.131C109.677 345.131 113.063 343.873 115.559 341.633C118.055 339.394 119.457 336.356 119.457 333.189C119.457 331.621 119.113 330.068 118.444 328.619C117.775 327.17 116.795 325.853 115.559 324.745C114.323 323.636 112.855 322.756 111.241 322.156C109.626 321.556 107.895 321.247 106.147 321.247V321.247Z" fill="white"/>
</g>
<path d="M141.453 203.818V214H139.608V205.613H139.548L137.167 207.134V205.444L139.698 203.818H141.453ZM151.083 214V203.818H154.901C155.683 203.818 156.339 203.964 156.869 204.256C157.403 204.547 157.806 204.948 158.078 205.459C158.353 205.966 158.49 206.543 158.49 207.189C158.49 207.842 158.353 208.422 158.078 208.929C157.802 209.436 157.396 209.835 156.86 210.127C156.323 210.415 155.661 210.56 154.876 210.56H152.345V209.043H154.627C155.085 209.043 155.459 208.964 155.751 208.805C156.043 208.646 156.258 208.427 156.397 208.148C156.54 207.87 156.611 207.55 156.611 207.189C156.611 206.828 156.54 206.509 156.397 206.234C156.258 205.959 156.041 205.746 155.746 205.593C155.454 205.437 155.078 205.359 154.617 205.359H152.927V214H151.083ZM160.092 214V203.818H163.911C164.693 203.818 165.349 203.954 165.879 204.226C166.413 204.498 166.816 204.879 167.087 205.369C167.362 205.857 167.5 206.425 167.5 207.075C167.5 207.728 167.361 208.294 167.082 208.775C166.807 209.252 166.401 209.622 165.864 209.884C165.327 210.142 164.668 210.271 163.886 210.271H161.166V208.74H163.637C164.094 208.74 164.469 208.677 164.761 208.551C165.052 208.422 165.268 208.235 165.407 207.989C165.549 207.741 165.621 207.436 165.621 207.075C165.621 206.713 165.549 206.405 165.407 206.15C165.264 205.891 165.047 205.696 164.756 205.563C164.464 205.427 164.088 205.359 163.627 205.359H161.937V214H160.092ZM165.352 209.386L167.873 214H165.815L163.339 209.386H165.352ZM169.198 214V203.818H175.82V205.364H171.042V208.129H175.477V209.675H171.042V212.454H175.86V214H169.198ZM177.702 203.818H179.959L182.982 211.196H183.101L186.124 203.818H188.381V214H186.611V207.005H186.516L183.702 213.97H182.38L179.566 206.99H179.472V214H177.702V203.818ZM192.234 203.818V214H190.389V203.818H192.234ZM200.649 203.818H202.494V210.47C202.494 211.199 202.321 211.841 201.977 212.394C201.635 212.948 201.155 213.38 200.535 213.692C199.915 214 199.191 214.154 198.362 214.154C197.53 214.154 196.805 214 196.185 213.692C195.565 213.38 195.084 212.948 194.743 212.394C194.402 211.841 194.231 211.199 194.231 210.47V203.818H196.075V210.316C196.075 210.74 196.168 211.118 196.354 211.45C196.543 211.781 196.808 212.041 197.149 212.23C197.491 212.416 197.895 212.509 198.362 212.509C198.83 212.509 199.234 212.416 199.575 212.23C199.92 212.041 200.185 211.781 200.371 211.45C200.557 211.118 200.649 210.74 200.649 210.316V203.818ZM204.499 203.818H206.756L209.778 211.196H209.898L212.92 203.818H215.178V214H213.408V207.005H213.313L210.499 213.97H209.177L206.363 206.99H206.268V214H204.499V203.818ZM222.021 203.818L224.671 211.832H224.775L227.42 203.818H229.448L225.859 214H223.582L219.998 203.818H222.021ZM232.634 203.818V214H230.79V203.818H232.634ZM240.165 206.617C240.118 206.183 239.923 205.845 239.578 205.603C239.237 205.361 238.793 205.24 238.246 205.24C237.861 205.24 237.531 205.298 237.256 205.414C236.981 205.53 236.771 205.687 236.625 205.886C236.479 206.085 236.405 206.312 236.401 206.567C236.401 206.78 236.449 206.964 236.545 207.119C236.645 207.275 236.779 207.408 236.948 207.517C237.117 207.623 237.304 207.713 237.51 207.786C237.715 207.858 237.923 207.92 238.131 207.969L239.086 208.208C239.47 208.298 239.84 208.419 240.195 208.571C240.553 208.723 240.872 208.916 241.154 209.148C241.439 209.38 241.665 209.66 241.83 209.988C241.996 210.316 242.079 210.701 242.079 211.141C242.079 211.738 241.926 212.263 241.621 212.717C241.317 213.168 240.876 213.521 240.299 213.776C239.726 214.028 239.031 214.154 238.216 214.154C237.424 214.154 236.736 214.031 236.153 213.786C235.573 213.541 235.119 213.183 234.79 212.712C234.466 212.242 234.29 211.668 234.263 210.992H236.078C236.105 211.347 236.214 211.642 236.406 211.877C236.598 212.112 236.849 212.288 237.157 212.404C237.469 212.52 237.817 212.578 238.201 212.578C238.602 212.578 238.953 212.518 239.255 212.399C239.56 212.277 239.799 212.107 239.971 211.892C240.143 211.673 240.231 211.418 240.234 211.126C240.231 210.861 240.153 210.643 240.001 210.47C239.848 210.295 239.634 210.149 239.359 210.033C239.088 209.913 238.769 209.807 238.405 209.714L237.246 209.416C236.408 209.201 235.745 208.874 235.258 208.437C234.774 207.996 234.532 207.411 234.532 206.682C234.532 206.082 234.694 205.557 235.019 205.106C235.347 204.655 235.793 204.305 236.357 204.057C236.92 203.805 237.558 203.679 238.271 203.679C238.993 203.679 239.626 203.805 240.17 204.057C240.717 204.305 241.146 204.652 241.457 205.096C241.769 205.537 241.93 206.044 241.94 206.617H240.165ZM244.867 214H242.898L246.482 203.818H248.759L252.349 214H250.38L247.661 205.906H247.581L244.867 214ZM244.931 210.008H250.301V211.489H244.931V210.008Z" fill="white"/>
<path d="M141.316 254.194C140.497 254.194 139.794 253.987 139.208 253.572C138.624 253.155 138.175 252.553 137.86 251.768C137.549 250.979 137.393 250.029 137.393 248.919C137.396 247.809 137.554 246.864 137.865 246.085C138.18 245.303 138.629 244.706 139.213 244.295C139.799 243.884 140.5 243.679 141.316 243.679C142.131 243.679 142.832 243.884 143.419 244.295C144.005 244.706 144.454 245.303 144.766 246.085C145.081 246.867 145.238 247.812 145.238 248.919C145.238 250.033 145.081 250.984 144.766 251.773C144.454 252.558 144.005 253.158 143.419 253.572C142.835 253.987 142.134 254.194 141.316 254.194ZM141.316 252.638C141.952 252.638 142.454 252.325 142.822 251.698C143.193 251.068 143.379 250.142 143.379 248.919C143.379 248.11 143.294 247.431 143.125 246.881C142.956 246.33 142.718 245.916 142.409 245.638C142.101 245.356 141.737 245.215 141.316 245.215C140.683 245.215 140.182 245.53 139.814 246.16C139.446 246.786 139.261 247.706 139.257 248.919C139.254 249.731 139.335 250.414 139.501 250.967C139.67 251.521 139.909 251.938 140.217 252.22C140.525 252.499 140.891 252.638 141.316 252.638ZM150.171 255.273V242.545H150.987V255.273H150.171ZM152.523 246.617C152.476 246.183 152.281 245.845 151.936 245.603C151.595 245.361 151.151 245.24 150.604 245.24C150.219 245.24 149.89 245.298 149.614 245.414C149.339 245.53 149.129 245.687 148.983 245.886C148.837 246.085 148.763 246.312 148.759 246.567C148.759 246.78 148.807 246.964 148.903 247.119C149.003 247.275 149.137 247.408 149.306 247.517C149.475 247.623 149.662 247.713 149.868 247.786C150.073 247.858 150.281 247.92 150.489 247.969L151.444 248.208C151.828 248.298 152.198 248.419 152.553 248.571C152.911 248.723 153.23 248.916 153.512 249.148C153.797 249.38 154.023 249.66 154.188 249.988C154.354 250.316 154.437 250.701 154.437 251.141C154.437 251.738 154.284 252.263 153.979 252.717C153.675 253.168 153.234 253.521 152.657 253.776C152.084 254.028 151.389 254.154 150.574 254.154C149.782 254.154 149.094 254.031 148.511 253.786C147.931 253.541 147.477 253.183 147.148 252.712C146.824 252.242 146.648 251.668 146.622 250.992H148.436C148.463 251.347 148.572 251.642 148.764 251.877C148.956 252.112 149.207 252.288 149.515 252.404C149.827 252.52 150.175 252.578 150.559 252.578C150.96 252.578 151.311 252.518 151.613 252.399C151.918 252.277 152.157 252.107 152.329 251.892C152.501 251.673 152.589 251.418 152.592 251.126C152.589 250.861 152.511 250.643 152.359 250.47C152.206 250.295 151.992 250.149 151.717 250.033C151.446 249.913 151.127 249.807 150.763 249.714L149.604 249.416C148.766 249.201 148.103 248.874 147.616 248.437C147.132 247.996 146.89 247.411 146.89 246.682C146.89 246.082 147.052 245.557 147.377 245.106C147.705 244.655 148.151 244.305 148.715 244.057C149.278 243.805 149.916 243.679 150.629 243.679C151.351 243.679 151.984 243.805 152.528 244.057C153.075 244.305 153.504 244.652 153.815 245.096C154.127 245.537 154.288 246.044 154.298 246.617H152.523ZM159.554 254V243.818H166.077V245.364H161.398V248.129H165.629V249.675H161.398V254H159.554ZM176.855 248.909C176.855 250.006 176.65 250.946 176.239 251.728C175.831 252.507 175.274 253.103 174.568 253.518C173.865 253.932 173.068 254.139 172.177 254.139C171.285 254.139 170.486 253.932 169.78 253.518C169.078 253.1 168.521 252.502 168.11 251.723C167.702 250.941 167.498 250.003 167.498 248.909C167.498 247.812 167.702 246.874 168.11 246.095C168.521 245.313 169.078 244.715 169.78 244.3C170.486 243.886 171.285 243.679 172.177 243.679C173.068 243.679 173.865 243.886 174.568 244.3C175.274 244.715 175.831 245.313 176.239 246.095C176.65 246.874 176.855 247.812 176.855 248.909ZM175.001 248.909C175.001 248.137 174.88 247.486 174.638 246.955C174.399 246.422 174.068 246.019 173.643 245.747C173.219 245.472 172.73 245.335 172.177 245.335C171.623 245.335 171.134 245.472 170.71 245.747C170.286 246.019 169.953 246.422 169.711 246.955C169.472 247.486 169.353 248.137 169.353 248.909C169.353 249.681 169.472 250.334 169.711 250.868C169.953 251.398 170.286 251.801 170.71 252.076C171.134 252.348 171.623 252.484 172.177 252.484C172.73 252.484 173.219 252.348 173.643 252.076C174.068 251.801 174.399 251.398 174.638 250.868C174.88 250.334 175.001 249.681 175.001 248.909ZM178.599 254V243.818H182.417C183.199 243.818 183.855 243.954 184.386 244.226C184.919 244.498 185.322 244.879 185.594 245.369C185.869 245.857 186.006 246.425 186.006 247.075C186.006 247.728 185.867 248.294 185.589 248.775C185.314 249.252 184.908 249.622 184.371 249.884C183.834 250.142 183.174 250.271 182.392 250.271H179.673V248.74H182.144C182.601 248.74 182.975 248.677 183.267 248.551C183.559 248.422 183.774 248.235 183.913 247.989C184.056 247.741 184.127 247.436 184.127 247.075C184.127 246.713 184.056 246.405 183.913 246.15C183.771 245.891 183.554 245.696 183.262 245.563C182.97 245.427 182.594 245.359 182.134 245.359H180.443V254H178.599ZM183.859 249.386L186.379 254H184.321L181.845 249.386H183.859ZM190.729 245.364V243.818H198.853V245.364H195.706V254H193.876V245.364H190.729ZM200.419 254V243.818H204.237C205.019 243.818 205.676 243.954 206.206 244.226C206.74 244.498 207.142 244.879 207.414 245.369C207.689 245.857 207.827 246.425 207.827 247.075C207.827 247.728 207.688 248.294 207.409 248.775C207.134 249.252 206.728 249.622 206.191 249.884C205.654 250.142 204.995 250.271 204.212 250.271H201.493V248.74H203.964C204.421 248.74 204.796 248.677 205.087 248.551C205.379 248.422 205.595 248.235 205.734 247.989C205.876 247.741 205.948 247.436 205.948 247.075C205.948 246.713 205.876 246.405 205.734 246.15C205.591 245.891 205.374 245.696 205.082 245.563C204.791 245.427 204.415 245.359 203.954 245.359H202.264V254H200.419ZM205.679 249.386L208.2 254H206.141L203.666 249.386H205.679ZM210.832 254H208.863L212.448 243.818H214.725L218.314 254H216.346L213.626 245.906H213.547L210.832 254ZM210.897 250.008H216.266V251.489H210.897V250.008ZM228.023 243.818V254H226.382L221.584 247.065H221.5V254H219.655V243.818H221.306L226.099 250.759H226.188V243.818H228.023ZM235.566 246.617C235.519 246.183 235.324 245.845 234.979 245.603C234.638 245.361 234.194 245.24 233.647 245.24C233.262 245.24 232.932 245.298 232.657 245.414C232.382 245.53 232.172 245.687 232.026 245.886C231.88 246.085 231.806 246.312 231.802 246.567C231.802 246.78 231.85 246.964 231.946 247.119C232.046 247.275 232.18 247.408 232.349 247.517C232.518 247.623 232.705 247.713 232.911 247.786C233.116 247.858 233.324 247.92 233.532 247.969L234.487 248.208C234.871 248.298 235.241 248.419 235.596 248.571C235.954 248.723 236.273 248.916 236.555 249.148C236.84 249.38 237.066 249.66 237.231 249.988C237.397 250.316 237.48 250.701 237.48 251.141C237.48 251.738 237.327 252.263 237.022 252.717C236.718 253.168 236.277 253.521 235.7 253.776C235.127 254.028 234.432 254.154 233.617 254.154C232.825 254.154 232.137 254.031 231.554 253.786C230.974 253.541 230.52 253.183 230.191 252.712C229.867 252.242 229.691 251.668 229.664 250.992H231.479C231.506 251.347 231.615 251.642 231.807 251.877C231.999 252.112 232.25 252.288 232.558 252.404C232.869 252.52 233.218 252.578 233.602 252.578C234.003 252.578 234.354 252.518 234.656 252.399C234.961 252.277 235.2 252.107 235.372 251.892C235.544 251.673 235.632 251.418 235.635 251.126C235.632 250.861 235.554 250.643 235.402 250.47C235.249 250.295 235.035 250.149 234.76 250.033C234.489 249.913 234.17 249.807 233.806 249.714L232.647 249.416C231.809 249.201 231.146 248.874 230.659 248.437C230.175 247.996 229.933 247.411 229.933 246.682C229.933 246.082 230.095 245.557 230.42 245.106C230.748 244.655 231.194 244.305 231.758 244.057C232.321 243.805 232.959 243.679 233.672 243.679C234.394 243.679 235.027 243.805 235.571 244.057C236.118 244.305 236.547 244.652 236.858 245.096C237.17 245.537 237.331 246.044 237.341 246.617H235.566ZM240.268 254H238.299L241.883 243.818H244.16L247.75 254H245.781L243.062 245.906H242.982L240.268 254ZM240.332 250.008H245.702V251.489H240.332V250.008ZM257.328 247.254H255.468C255.415 246.949 255.317 246.679 255.175 246.443C255.032 246.205 254.855 246.002 254.643 245.837C254.431 245.671 254.189 245.547 253.917 245.464C253.649 245.378 253.359 245.335 253.047 245.335C252.494 245.335 252.003 245.474 251.576 245.752C251.148 246.027 250.813 246.432 250.571 246.965C250.329 247.496 250.208 248.143 250.208 248.909C250.208 249.688 250.329 250.344 250.571 250.878C250.817 251.408 251.151 251.809 251.576 252.081C252.003 252.349 252.492 252.484 253.042 252.484C253.347 252.484 253.632 252.444 253.897 252.364C254.166 252.281 254.406 252.161 254.618 252.001C254.834 251.842 255.014 251.647 255.16 251.415C255.309 251.183 255.412 250.918 255.468 250.619L257.328 250.629C257.258 251.113 257.107 251.567 256.875 251.991C256.647 252.416 256.347 252.79 255.975 253.115C255.604 253.437 255.17 253.688 254.673 253.871C254.176 254.05 253.624 254.139 253.017 254.139C252.122 254.139 251.324 253.932 250.621 253.518C249.918 253.103 249.365 252.505 248.96 251.723C248.556 250.941 248.354 250.003 248.354 248.909C248.354 247.812 248.558 246.874 248.965 246.095C249.373 245.313 249.928 244.715 250.631 244.3C251.334 243.886 252.129 243.679 253.017 243.679C253.584 243.679 254.111 243.759 254.598 243.918C255.085 244.077 255.52 244.31 255.901 244.619C256.282 244.924 256.595 245.298 256.84 245.742C257.089 246.183 257.251 246.687 257.328 247.254ZM258.569 245.364V243.818H266.693V245.364H263.546V254H261.716V245.364H258.569ZM270.103 243.818V254H268.259V243.818H270.103ZM281.199 248.909C281.199 250.006 280.993 250.946 280.582 251.728C280.175 252.507 279.618 253.103 278.912 253.518C278.209 253.932 277.412 254.139 276.52 254.139C275.629 254.139 274.83 253.932 274.124 253.518C273.422 253.1 272.865 252.502 272.454 251.723C272.046 250.941 271.842 250.003 271.842 248.909C271.842 247.812 272.046 246.874 272.454 246.095C272.865 245.313 273.422 244.715 274.124 244.3C274.83 243.886 275.629 243.679 276.52 243.679C277.412 243.679 278.209 243.886 278.912 244.3C279.618 244.715 280.175 245.313 280.582 246.095C280.993 246.874 281.199 247.812 281.199 248.909ZM279.344 248.909C279.344 248.137 279.223 247.486 278.981 246.955C278.743 246.422 278.411 246.019 277.987 245.747C277.563 245.472 277.074 245.335 276.52 245.335C275.967 245.335 275.478 245.472 275.054 245.747C274.63 246.019 274.297 246.422 274.055 246.955C273.816 247.486 273.697 248.137 273.697 248.909C273.697 249.681 273.816 250.334 274.055 250.868C274.297 251.398 274.63 251.801 275.054 252.076C275.478 252.348 275.967 252.484 276.52 252.484C277.074 252.484 277.563 252.348 277.987 252.076C278.411 251.801 278.743 251.398 278.981 250.868C279.223 250.334 279.344 249.681 279.344 248.909ZM291.31 243.818V254H289.669L284.872 247.065H284.787V254H282.943V243.818H284.593L289.386 250.759H289.475V243.818H291.31Z" fill="white"/>
<path d="M140.105 296V285.818H146.627V287.364H141.949V290.129H146.18V291.675H141.949V296H140.105ZM154.726 285.818H156.571V292.47C156.571 293.199 156.398 293.841 156.054 294.394C155.712 294.948 155.232 295.38 154.612 295.692C153.992 296 153.268 296.154 152.439 296.154C151.607 296.154 150.881 296 150.262 295.692C149.642 295.38 149.161 294.948 148.82 294.394C148.478 293.841 148.308 293.199 148.308 292.47V285.818H150.152V292.316C150.152 292.74 150.245 293.118 150.431 293.45C150.62 293.781 150.885 294.041 151.226 294.23C151.567 294.416 151.972 294.509 152.439 294.509C152.906 294.509 153.311 294.416 153.652 294.23C153.997 294.041 154.262 293.781 154.448 293.45C154.633 293.118 154.726 292.74 154.726 292.316V285.818ZM158.575 296V285.818H160.42V294.454H164.904V296H158.575ZM166.505 296V285.818H168.349V294.454H172.834V296H166.505ZM177.907 296V285.818H181.726C182.508 285.818 183.164 285.964 183.694 286.256C184.228 286.547 184.631 286.948 184.902 287.459C185.177 287.966 185.315 288.543 185.315 289.189C185.315 289.842 185.177 290.422 184.902 290.929C184.627 291.436 184.221 291.835 183.684 292.127C183.147 292.415 182.486 292.56 181.701 292.56H179.17V291.043H181.452C181.91 291.043 182.284 290.964 182.576 290.805C182.867 290.646 183.083 290.427 183.222 290.148C183.365 289.87 183.436 289.55 183.436 289.189C183.436 288.828 183.365 288.509 183.222 288.234C183.083 287.959 182.866 287.746 182.571 287.593C182.279 287.437 181.903 287.359 181.442 287.359H179.752V296H177.907ZM186.917 296V285.818H190.735C191.518 285.818 192.174 285.954 192.704 286.226C193.238 286.498 193.64 286.879 193.912 287.369C194.187 287.857 194.325 288.425 194.325 289.075C194.325 289.728 194.186 290.294 193.907 290.775C193.632 291.252 193.226 291.622 192.689 291.884C192.152 292.142 191.493 292.271 190.71 292.271H187.991V290.74H190.462C190.919 290.74 191.294 290.677 191.585 290.551C191.877 290.422 192.093 290.235 192.232 289.989C192.374 289.741 192.446 289.436 192.446 289.075C192.446 288.713 192.374 288.405 192.232 288.15C192.089 287.891 191.872 287.696 191.58 287.563C191.289 287.427 190.913 287.359 190.452 287.359H188.762V296H186.917ZM192.177 291.386L194.698 296H192.639L190.164 291.386H192.177ZM205.121 290.909C205.121 292.006 204.915 292.946 204.504 293.728C204.096 294.507 203.54 295.103 202.834 295.518C202.131 295.932 201.334 296.139 200.442 296.139C199.551 296.139 198.752 295.932 198.046 295.518C197.343 295.1 196.787 294.502 196.376 293.723C195.968 292.941 195.764 292.003 195.764 290.909C195.764 289.812 195.968 288.874 196.376 288.095C196.787 287.313 197.343 286.715 198.046 286.3C198.752 285.886 199.551 285.679 200.442 285.679C201.334 285.679 202.131 285.886 202.834 286.3C203.54 286.715 204.096 287.313 204.504 288.095C204.915 288.874 205.121 289.812 205.121 290.909ZM203.266 290.909C203.266 290.137 203.145 289.486 202.903 288.955C202.665 288.422 202.333 288.019 201.909 287.747C201.485 287.472 200.996 287.335 200.442 287.335C199.889 287.335 199.4 287.472 198.976 287.747C198.551 288.019 198.218 288.422 197.976 288.955C197.738 289.486 197.618 290.137 197.618 290.909C197.618 291.681 197.738 292.334 197.976 292.868C198.218 293.398 198.551 293.801 198.976 294.076C199.4 294.348 199.889 294.484 200.442 294.484C200.996 294.484 201.485 294.348 201.909 294.076C202.333 293.801 202.665 293.398 202.903 292.868C203.145 292.334 203.266 291.681 203.266 290.909ZM205.966 287.364V285.818H214.089V287.364H210.942V296H209.113V287.364H205.966ZM215.655 296V285.818H222.278V287.364H217.5V290.129H221.935V291.675H217.5V294.454H222.317V296H215.655ZM232.875 289.254H231.015C230.962 288.949 230.864 288.679 230.722 288.443C230.579 288.205 230.402 288.002 230.19 287.837C229.978 287.671 229.736 287.547 229.464 287.464C229.196 287.378 228.906 287.335 228.594 287.335C228.04 287.335 227.55 287.474 227.122 287.752C226.695 288.027 226.36 288.432 226.118 288.965C225.876 289.496 225.755 290.143 225.755 290.909C225.755 291.688 225.876 292.344 226.118 292.878C226.363 293.408 226.698 293.809 227.122 294.081C227.55 294.349 228.039 294.484 228.589 294.484C228.894 294.484 229.179 294.444 229.444 294.364C229.713 294.281 229.953 294.161 230.165 294.001C230.38 293.842 230.561 293.647 230.707 293.415C230.856 293.183 230.959 292.918 231.015 292.619L232.875 292.629C232.805 293.113 232.654 293.567 232.422 293.991C232.193 294.416 231.893 294.79 231.522 295.115C231.151 295.437 230.717 295.688 230.22 295.871C229.723 296.05 229.171 296.139 228.564 296.139C227.669 296.139 226.87 295.932 226.168 295.518C225.465 295.103 224.912 294.505 224.507 293.723C224.103 292.941 223.901 292.003 223.901 290.909C223.901 289.812 224.105 288.874 224.512 288.095C224.92 287.313 225.475 286.715 226.178 286.3C226.88 285.886 227.676 285.679 228.564 285.679C229.131 285.679 229.658 285.759 230.145 285.918C230.632 286.077 231.067 286.31 231.448 286.619C231.829 286.924 232.142 287.298 232.387 287.742C232.636 288.183 232.798 288.687 232.875 289.254ZM234.116 287.364V285.818H242.24V287.364H239.093V296H237.263V287.364H234.116ZM245.65 285.818V296H243.806V285.818H245.65ZM256.746 290.909C256.746 292.006 256.54 292.946 256.129 293.728C255.721 294.507 255.165 295.103 254.459 295.518C253.756 295.932 252.959 296.139 252.067 296.139C251.176 296.139 250.377 295.932 249.671 295.518C248.968 295.1 248.412 294.502 248.001 293.723C247.593 292.941 247.389 292.003 247.389 290.909C247.389 289.812 247.593 288.874 248.001 288.095C248.412 287.313 248.968 286.715 249.671 286.3C250.377 285.886 251.176 285.679 252.067 285.679C252.959 285.679 253.756 285.886 254.459 286.3C255.165 286.715 255.721 287.313 256.129 288.095C256.54 288.874 256.746 289.812 256.746 290.909ZM254.891 290.909C254.891 290.137 254.77 289.486 254.528 288.955C254.29 288.422 253.958 288.019 253.534 287.747C253.11 287.472 252.621 287.335 252.067 287.335C251.514 287.335 251.025 287.472 250.601 287.747C250.176 288.019 249.843 288.422 249.601 288.955C249.363 289.486 249.243 290.137 249.243 290.909C249.243 291.681 249.363 292.334 249.601 292.868C249.843 293.398 250.176 293.801 250.601 294.076C251.025 294.348 251.514 294.484 252.067 294.484C252.621 294.484 253.11 294.348 253.534 294.076C253.958 293.801 254.29 293.398 254.528 292.868C254.77 292.334 254.891 291.681 254.891 290.909ZM266.857 285.818V296H265.216L260.418 289.065H260.334V296H258.489V285.818H260.14L264.933 292.759H265.022V285.818H266.857Z" fill="white"/>
<path d="M141.215 178.89V140.708H143.661V178.89H141.215ZM147.703 153.311C147.584 152.108 147.072 151.173 146.167 150.507C145.262 149.841 144.034 149.508 142.483 149.508C141.429 149.508 140.539 149.657 139.813 149.955C139.087 150.244 138.531 150.647 138.143 151.164C137.765 151.681 137.576 152.267 137.576 152.923C137.556 153.47 137.671 153.948 137.919 154.355C138.178 154.763 138.531 155.116 138.978 155.414C139.426 155.703 139.943 155.956 140.529 156.175C141.116 156.384 141.742 156.563 142.408 156.712L145.153 157.368C146.485 157.666 147.708 158.064 148.822 158.561C149.935 159.058 150.9 159.67 151.715 160.396C152.531 161.122 153.162 161.977 153.609 162.961C154.067 163.946 154.301 165.074 154.31 166.347C154.301 168.216 153.823 169.837 152.879 171.209C151.944 172.571 150.592 173.63 148.822 174.386C147.062 175.132 144.939 175.504 142.453 175.504C139.987 175.504 137.84 175.127 136.01 174.371C134.19 173.615 132.769 172.497 131.744 171.015C130.73 169.524 130.198 167.679 130.149 165.482H136.398C136.467 166.506 136.761 167.361 137.278 168.047C137.805 168.723 138.506 169.235 139.381 169.583C140.266 169.921 141.265 170.09 142.379 170.09C143.472 170.09 144.422 169.931 145.227 169.613C146.043 169.295 146.674 168.852 147.122 168.286C147.569 167.719 147.793 167.068 147.793 166.332C147.793 165.646 147.589 165.069 147.181 164.602C146.783 164.134 146.197 163.737 145.421 163.409C144.656 163.08 143.716 162.782 142.602 162.514L139.276 161.678C136.701 161.052 134.668 160.073 133.176 158.74C131.685 157.408 130.944 155.613 130.954 153.356C130.944 151.507 131.436 149.891 132.43 148.509C133.435 147.127 134.812 146.048 136.562 145.272C138.312 144.497 140.301 144.109 142.528 144.109C144.795 144.109 146.774 144.497 148.464 145.272C150.164 146.048 151.487 147.127 152.431 148.509C153.376 149.891 153.863 151.492 153.893 153.311H147.703ZM159.684 175.072L172.346 150.015V149.806H157.595V144.526H179.028V149.881L166.35 175.072H159.684ZM196.818 143.095L186.974 179.666H181.5L191.344 143.095H196.818ZM199.879 175.072V152.163H205.934V156.205H206.203C206.68 154.862 207.475 153.803 208.589 153.028C209.703 152.252 211.035 151.865 212.586 151.865C214.157 151.865 215.495 152.257 216.598 153.043C217.702 153.818 218.438 154.872 218.806 156.205H219.044C219.512 154.892 220.357 153.843 221.58 153.058C222.813 152.262 224.269 151.865 225.95 151.865C228.088 151.865 229.823 152.546 231.155 153.908C232.497 155.26 233.169 157.179 233.169 159.665V175.072H226.83V160.918C226.83 159.645 226.492 158.691 225.816 158.054C225.139 157.418 224.294 157.1 223.28 157.1C222.127 157.1 221.227 157.468 220.581 158.203C219.934 158.929 219.611 159.889 219.611 161.082V175.072H213.451V160.784C213.451 159.66 213.128 158.765 212.482 158.099C211.845 157.433 211.005 157.1 209.961 157.1C209.255 157.1 208.619 157.279 208.052 157.637C207.495 157.985 207.053 158.477 206.725 159.113C206.397 159.74 206.233 160.475 206.233 161.321V175.072H199.879ZM248.538 175.519C246.222 175.519 244.218 175.027 242.528 174.043C240.847 173.048 239.55 171.666 238.635 169.897C237.72 168.117 237.263 166.053 237.263 163.707C237.263 161.34 237.72 159.272 238.635 157.502C239.55 155.722 240.847 154.34 242.528 153.356C244.218 152.362 246.222 151.865 248.538 151.865C250.855 151.865 252.854 152.362 254.534 153.356C256.224 154.34 257.527 155.722 258.442 157.502C259.356 159.272 259.814 161.34 259.814 163.707C259.814 166.053 259.356 168.117 258.442 169.897C257.527 171.666 256.224 173.048 254.534 174.043C252.854 175.027 250.855 175.519 248.538 175.519ZM248.568 170.597C249.622 170.597 250.502 170.299 251.208 169.703C251.914 169.096 252.446 168.271 252.804 167.227C253.172 166.183 253.356 164.995 253.356 163.662C253.356 162.33 253.172 161.142 252.804 160.097C252.446 159.053 251.914 158.228 251.208 157.622C250.502 157.015 249.622 156.712 248.568 156.712C247.504 156.712 246.609 157.015 245.883 157.622C245.168 158.228 244.626 159.053 244.258 160.097C243.9 161.142 243.721 162.33 243.721 163.662C243.721 164.995 243.9 166.183 244.258 167.227C244.626 168.271 245.168 169.096 245.883 169.703C246.609 170.299 247.504 170.597 248.568 170.597Z" fill="white"/>
<path d="M139.1 342V331.818H145.722V333.364H140.944V336.129H145.379V337.675H140.944V340.454H145.762V342H139.1ZM155.971 331.818V342H154.33L149.533 335.065H149.448V342H147.604V331.818H149.254L154.047 338.759H154.136V331.818H155.971ZM164.802 335.07C164.719 334.801 164.604 334.561 164.459 334.349C164.316 334.133 164.144 333.949 163.942 333.797C163.743 333.644 163.514 333.53 163.255 333.454C162.997 333.374 162.715 333.335 162.41 333.335C161.863 333.335 161.376 333.472 160.949 333.747C160.521 334.022 160.185 334.427 159.939 334.96C159.697 335.491 159.576 336.137 159.576 336.899C159.576 337.668 159.697 338.319 159.939 338.853C160.181 339.387 160.518 339.793 160.949 340.071C161.38 340.346 161.88 340.484 162.45 340.484C162.967 340.484 163.415 340.384 163.792 340.185C164.174 339.987 164.467 339.705 164.672 339.34C164.878 338.972 164.981 338.541 164.981 338.048L165.398 338.112H162.634V336.67H166.765V337.893C166.765 338.765 166.58 339.519 166.209 340.156C165.837 340.792 165.327 341.282 164.677 341.627C164.028 341.969 163.282 342.139 162.44 342.139C161.502 342.139 160.679 341.929 159.969 341.508C159.263 341.084 158.711 340.482 158.314 339.703C157.919 338.921 157.722 337.993 157.722 336.919C157.722 336.097 157.838 335.363 158.07 334.717C158.305 334.07 158.634 333.522 159.054 333.071C159.475 332.617 159.969 332.272 160.536 332.037C161.103 331.798 161.719 331.679 162.385 331.679C162.949 331.679 163.474 331.762 163.961 331.928C164.449 332.09 164.881 332.322 165.259 332.624C165.64 332.925 165.953 333.283 166.199 333.697C166.444 334.112 166.605 334.569 166.681 335.07H164.802ZM168.549 342V331.818H170.393V340.454H174.878V342H168.549ZM178.323 331.818V342H176.479V331.818H178.323ZM185.854 334.617C185.807 334.183 185.612 333.845 185.267 333.603C184.926 333.361 184.482 333.24 183.935 333.24C183.55 333.24 183.221 333.298 182.945 333.414C182.67 333.53 182.46 333.687 182.314 333.886C182.168 334.085 182.094 334.312 182.09 334.567C182.09 334.78 182.138 334.964 182.235 335.119C182.334 335.275 182.468 335.408 182.637 335.517C182.806 335.623 182.994 335.713 183.199 335.786C183.405 335.858 183.612 335.92 183.82 335.969L184.775 336.208C185.159 336.298 185.529 336.419 185.884 336.571C186.242 336.723 186.561 336.916 186.843 337.148C187.128 337.38 187.354 337.66 187.519 337.988C187.685 338.316 187.768 338.701 187.768 339.141C187.768 339.738 187.615 340.263 187.311 340.717C187.006 341.168 186.565 341.521 185.988 341.776C185.415 342.028 184.72 342.154 183.905 342.154C183.113 342.154 182.425 342.031 181.842 341.786C181.262 341.541 180.808 341.183 180.48 340.712C180.155 340.242 179.979 339.668 179.953 338.992H181.767C181.794 339.347 181.903 339.642 182.095 339.877C182.288 340.112 182.538 340.288 182.846 340.404C183.158 340.52 183.506 340.578 183.89 340.578C184.291 340.578 184.642 340.518 184.944 340.399C185.249 340.277 185.488 340.107 185.66 339.892C185.832 339.673 185.92 339.418 185.923 339.126C185.92 338.861 185.842 338.643 185.69 338.47C185.537 338.295 185.324 338.149 185.048 338.033C184.777 337.913 184.458 337.807 184.094 337.714L182.936 337.416C182.097 337.201 181.434 336.874 180.947 336.437C180.463 335.996 180.221 335.411 180.221 334.682C180.221 334.082 180.383 333.557 180.708 333.106C181.036 332.655 181.482 332.305 182.046 332.057C182.609 331.805 183.247 331.679 183.96 331.679C184.682 331.679 185.315 331.805 185.859 332.057C186.406 332.305 186.835 332.652 187.146 333.096C187.458 333.537 187.619 334.044 187.629 334.617H185.854ZM189.412 342V331.818H191.257V336.129H195.975V331.818H197.824V342H195.975V337.675H191.257V342H189.412ZM208.836 334.617C208.79 334.183 208.594 333.845 208.25 333.603C207.908 333.361 207.464 333.24 206.917 333.24C206.533 333.24 206.203 333.298 205.928 333.414C205.653 333.53 205.442 333.687 205.296 333.886C205.151 334.085 205.076 334.312 205.073 334.567C205.073 334.78 205.121 334.964 205.217 335.119C205.316 335.275 205.451 335.408 205.62 335.517C205.789 335.623 205.976 335.713 206.181 335.786C206.387 335.858 206.594 335.92 206.803 335.969L207.757 336.208C208.142 336.298 208.511 336.419 208.866 336.571C209.224 336.723 209.544 336.916 209.826 337.148C210.111 337.38 210.336 337.66 210.502 337.988C210.667 338.316 210.75 338.701 210.75 339.141C210.75 339.738 210.598 340.263 210.293 340.717C209.988 341.168 209.547 341.521 208.97 341.776C208.397 342.028 207.703 342.154 206.887 342.154C206.095 342.154 205.408 342.031 204.824 341.786C204.244 341.541 203.79 341.183 203.462 340.712C203.137 340.242 202.962 339.668 202.935 338.992H204.75C204.776 339.347 204.886 339.642 205.078 339.877C205.27 340.112 205.52 340.288 205.828 340.404C206.14 340.52 206.488 340.578 206.872 340.578C207.274 340.578 207.625 340.518 207.926 340.399C208.231 340.277 208.47 340.107 208.642 339.892C208.815 339.673 208.903 339.418 208.906 339.126C208.903 338.861 208.825 338.643 208.672 338.47C208.52 338.295 208.306 338.149 208.031 338.033C207.759 337.913 207.441 337.807 207.076 337.714L205.918 337.416C205.079 337.201 204.417 336.874 203.929 336.437C203.445 335.996 203.203 335.411 203.203 334.682C203.203 334.082 203.366 333.557 203.691 333.106C204.019 332.655 204.465 332.305 205.028 332.057C205.591 331.805 206.229 331.679 206.942 331.679C207.665 331.679 208.298 331.805 208.841 332.057C209.388 332.305 209.817 332.652 210.129 333.096C210.44 333.537 210.601 334.044 210.611 334.617H208.836ZM218.813 331.818H220.657V338.47C220.657 339.199 220.485 339.841 220.14 340.394C219.799 340.948 219.318 341.38 218.699 341.692C218.079 342 217.355 342.154 216.526 342.154C215.694 342.154 214.968 342 214.349 341.692C213.729 341.38 213.248 340.948 212.907 340.394C212.565 339.841 212.395 339.199 212.395 338.47V331.818H214.239V338.316C214.239 338.74 214.332 339.118 214.518 339.45C214.706 339.781 214.972 340.041 215.313 340.23C215.654 340.416 216.059 340.509 216.526 340.509C216.993 340.509 217.398 340.416 217.739 340.23C218.084 340.041 218.349 339.781 218.535 339.45C218.72 339.118 218.813 338.74 218.813 338.316V331.818ZM222.662 342V331.818H226.48C227.263 331.818 227.919 331.964 228.449 332.256C228.983 332.547 229.386 332.948 229.657 333.459C229.932 333.966 230.07 334.543 230.07 335.189C230.07 335.842 229.932 336.422 229.657 336.929C229.382 337.436 228.976 337.835 228.439 338.127C227.902 338.415 227.241 338.56 226.456 338.56H223.925V337.043H226.207C226.664 337.043 227.039 336.964 227.331 336.805C227.622 336.646 227.838 336.427 227.977 336.148C228.119 335.87 228.191 335.55 228.191 335.189C228.191 334.828 228.119 334.509 227.977 334.234C227.838 333.959 227.621 333.746 227.326 333.593C227.034 333.437 226.658 333.359 226.197 333.359H224.507V342H222.662ZM231.672 342V331.818H235.49C236.272 331.818 236.929 331.964 237.459 332.256C237.993 332.547 238.395 332.948 238.667 333.459C238.942 333.966 239.08 334.543 239.08 335.189C239.08 335.842 238.942 336.422 238.667 336.929C238.392 337.436 237.986 337.835 237.449 338.127C236.912 338.415 236.251 338.56 235.465 338.56H232.935V337.043H235.217C235.674 337.043 236.049 336.964 236.34 336.805C236.632 336.646 236.847 336.427 236.987 336.148C237.129 335.87 237.2 335.55 237.2 335.189C237.2 334.828 237.129 334.509 236.987 334.234C236.847 333.959 236.63 333.746 236.335 333.593C236.044 333.437 235.668 333.359 235.207 333.359H233.516V342H231.672ZM249.78 336.909C249.78 338.006 249.574 338.946 249.163 339.728C248.756 340.507 248.199 341.103 247.493 341.518C246.79 341.932 245.993 342.139 245.102 342.139C244.21 342.139 243.411 341.932 242.705 341.518C242.003 341.1 241.446 340.502 241.035 339.723C240.627 338.941 240.423 338.003 240.423 336.909C240.423 335.812 240.627 334.874 241.035 334.095C241.446 333.313 242.003 332.715 242.705 332.3C243.411 331.886 244.21 331.679 245.102 331.679C245.993 331.679 246.79 331.886 247.493 332.3C248.199 332.715 248.756 333.313 249.163 334.095C249.574 334.874 249.78 335.812 249.78 336.909ZM247.925 336.909C247.925 336.137 247.804 335.486 247.562 334.955C247.324 334.422 246.992 334.019 246.568 333.747C246.144 333.472 245.655 333.335 245.102 333.335C244.548 333.335 244.059 333.472 243.635 333.747C243.211 334.019 242.878 334.422 242.636 334.955C242.397 335.486 242.278 336.137 242.278 336.909C242.278 337.681 242.397 338.334 242.636 338.868C242.878 339.398 243.211 339.801 243.635 340.076C244.059 340.348 244.548 340.484 245.102 340.484C245.655 340.484 246.144 340.348 246.568 340.076C246.992 339.801 247.324 339.398 247.562 338.868C247.804 338.334 247.925 337.681 247.925 336.909ZM251.524 342V331.818H255.342C256.124 331.818 256.78 331.954 257.311 332.226C257.844 332.498 258.247 332.879 258.519 333.369C258.794 333.857 258.931 334.425 258.931 335.075C258.931 335.728 258.792 336.294 258.514 336.775C258.239 337.252 257.833 337.622 257.296 337.884C256.759 338.142 256.099 338.271 255.317 338.271H252.597V336.74H255.068C255.526 336.74 255.9 336.677 256.192 336.551C256.484 336.422 256.699 336.235 256.838 335.989C256.981 335.741 257.052 335.436 257.052 335.075C257.052 334.713 256.981 334.405 256.838 334.15C256.696 333.891 256.479 333.696 256.187 333.563C255.895 333.427 255.519 333.359 255.058 333.359H253.368V342H251.524ZM256.784 337.386L259.304 342H257.246L254.77 337.386H256.784ZM260.182 333.364V331.818H268.305V333.364H265.158V342H263.329V333.364H260.182Z" fill="white"/>
<path d="M153.28 119.568V109.387H157.178C157.914 109.387 158.525 109.503 159.012 109.735C159.503 109.963 159.869 110.277 160.111 110.674C160.356 111.072 160.479 111.523 160.479 112.027C160.479 112.441 160.399 112.795 160.24 113.09C160.081 113.382 159.867 113.619 159.599 113.801C159.33 113.984 159.031 114.115 158.699 114.194V114.294C159.06 114.313 159.407 114.425 159.738 114.627C160.073 114.826 160.346 115.107 160.558 115.472C160.771 115.836 160.877 116.277 160.877 116.794C160.877 117.321 160.749 117.795 160.494 118.216C160.239 118.634 159.854 118.964 159.34 119.206C158.827 119.447 158.18 119.568 157.401 119.568H153.28ZM155.124 118.027H157.108C157.778 118.027 158.26 117.9 158.555 117.644C158.853 117.386 159.002 117.054 159.002 116.65C159.002 116.349 158.928 116.077 158.779 115.835C158.629 115.59 158.417 115.397 158.142 115.258C157.867 115.116 157.539 115.044 157.158 115.044H155.124V118.027ZM155.124 113.717H156.949C157.267 113.717 157.554 113.659 157.809 113.543C158.064 113.424 158.265 113.256 158.411 113.041C158.56 112.822 158.634 112.563 158.634 112.265C158.634 111.871 158.495 111.546 158.217 111.291C157.942 111.036 157.532 110.908 156.989 110.908H155.124V113.717ZM163.789 119.568H161.82L165.405 109.387H167.681L171.271 119.568H169.302L166.583 111.475H166.503L163.789 119.568ZM163.853 115.576H169.223V117.058H163.853V115.576ZM177.981 112.186C177.935 111.751 177.739 111.413 177.395 111.171C177.053 110.929 176.609 110.809 176.062 110.809C175.678 110.809 175.348 110.867 175.073 110.983C174.798 111.099 174.587 111.256 174.442 111.455C174.296 111.654 174.221 111.881 174.218 112.136C174.218 112.348 174.266 112.532 174.362 112.688C174.461 112.844 174.596 112.976 174.765 113.085C174.934 113.192 175.121 113.281 175.327 113.354C175.532 113.427 175.739 113.488 175.948 113.538L176.903 113.777C177.287 113.866 177.657 113.987 178.011 114.139C178.369 114.292 178.689 114.484 178.971 114.716C179.256 114.948 179.481 115.228 179.647 115.556C179.813 115.885 179.895 116.269 179.895 116.71C179.895 117.306 179.743 117.832 179.438 118.286C179.133 118.737 178.692 119.09 178.116 119.345C177.542 119.597 176.848 119.723 176.033 119.723C175.24 119.723 174.553 119.6 173.969 119.355C173.389 119.109 172.935 118.751 172.607 118.281C172.282 117.81 172.107 117.237 172.08 116.561H173.895C173.921 116.915 174.031 117.21 174.223 117.446C174.415 117.681 174.665 117.857 174.974 117.973C175.285 118.089 175.633 118.147 176.018 118.147C176.419 118.147 176.77 118.087 177.072 117.968C177.377 117.845 177.615 117.676 177.787 117.46C177.96 117.242 178.048 116.987 178.051 116.695C178.048 116.43 177.97 116.211 177.817 116.039C177.665 115.863 177.451 115.717 177.176 115.601C176.904 115.482 176.586 115.376 176.221 115.283L175.063 114.985C174.225 114.769 173.562 114.443 173.074 114.005C172.591 113.564 172.349 112.979 172.349 112.25C172.349 111.65 172.511 111.125 172.836 110.674C173.164 110.224 173.61 109.874 174.173 109.625C174.737 109.373 175.375 109.247 176.087 109.247C176.81 109.247 177.443 109.373 177.986 109.625C178.533 109.874 178.962 110.22 179.274 110.664C179.586 111.105 179.746 111.612 179.756 112.186H177.981ZM183.384 109.387V119.568H181.54V109.387H183.384ZM194.097 112.822H192.237C192.184 112.517 192.087 112.247 191.944 112.012C191.802 111.773 191.624 111.571 191.412 111.405C191.2 111.239 190.958 111.115 190.686 111.032C190.418 110.946 190.128 110.903 189.816 110.903C189.263 110.903 188.772 111.042 188.345 111.321C187.917 111.596 187.582 112 187.34 112.534C187.098 113.064 186.977 113.712 186.977 114.478C186.977 115.256 187.098 115.913 187.34 116.446C187.586 116.977 187.92 117.378 188.345 117.649C188.772 117.918 189.261 118.052 189.811 118.052C190.116 118.052 190.401 118.012 190.666 117.933C190.935 117.85 191.175 117.729 191.387 117.57C191.603 117.411 191.783 117.215 191.929 116.983C192.078 116.751 192.181 116.486 192.237 116.188L194.097 116.198C194.027 116.682 193.876 117.136 193.644 117.56C193.416 117.984 193.116 118.359 192.745 118.684C192.373 119.005 191.939 119.257 191.442 119.439C190.945 119.618 190.393 119.708 189.786 119.708C188.892 119.708 188.093 119.501 187.39 119.086C186.687 118.672 186.134 118.074 185.73 117.291C185.325 116.509 185.123 115.571 185.123 114.478C185.123 113.38 185.327 112.443 185.735 111.664C186.142 110.881 186.697 110.283 187.4 109.869C188.103 109.455 188.898 109.247 189.786 109.247C190.353 109.247 190.88 109.327 191.367 109.486C191.855 109.645 192.289 109.879 192.67 110.187C193.051 110.492 193.364 110.867 193.61 111.311C193.858 111.751 194.021 112.255 194.097 112.822ZM199.259 119.568V109.387H203.077C203.859 109.387 204.515 109.532 205.045 109.824C205.579 110.116 205.982 110.517 206.254 111.027C206.529 111.534 206.666 112.111 206.666 112.757C206.666 113.41 206.529 113.99 206.254 114.497C205.978 115.005 205.572 115.404 205.036 115.696C204.499 115.984 203.837 116.128 203.052 116.128H200.521V114.612H202.803C203.261 114.612 203.635 114.532 203.927 114.373C204.219 114.214 204.434 113.995 204.573 113.717C204.716 113.438 204.787 113.119 204.787 112.757C204.787 112.396 204.716 112.078 204.573 111.803C204.434 111.528 204.217 111.314 203.922 111.161C203.63 111.006 203.254 110.928 202.793 110.928H201.103V119.568H199.259ZM208.268 119.568V109.387H210.113V118.022H214.597V119.568H208.268ZM217.888 119.568H215.92L219.504 109.387H221.781L225.371 119.568H223.402L220.682 111.475H220.603L217.888 119.568ZM217.953 115.576H223.322V117.058H217.953V115.576ZM235.079 109.387V119.568H233.438L228.641 112.633H228.556V119.568H226.712V109.387H228.362L233.155 116.327H233.244V109.387H235.079Z" fill="white"/>
<path d="M164.019 66.3624H169.219V77.5583H166.099C165.272 77.5583 164.478 77.8532 163.893 78.3781C163.308 78.903 162.979 79.6149 162.979 80.3572C162.979 81.0996 163.308 81.8115 163.893 82.3364C164.478 82.8613 165.272 83.1562 166.099 83.1562H216.014C216.841 83.1562 217.635 82.8613 218.22 82.3364C218.805 81.8115 219.133 81.0996 219.133 80.3572C219.133 79.6149 218.805 78.903 218.22 78.3781C217.635 77.8532 216.841 77.5583 216.014 77.5583H212.894V66.3624H218.094C218.771 66.3613 219.431 66.1621 219.971 65.795C220.512 65.4278 220.904 64.9127 221.089 64.3276C221.274 63.7424 221.242 63.1191 220.997 62.552C220.752 61.9848 220.308 61.5047 219.731 61.1843L192.694 46.2565C192.203 45.9814 191.635 45.8356 191.056 45.8356C190.477 45.8356 189.91 45.9814 189.419 46.2565L162.381 61.1843C161.805 61.5047 161.361 61.9848 161.116 62.552C160.871 63.1191 160.839 63.7424 161.024 64.3276C161.209 64.9127 161.601 65.4278 162.142 65.795C162.682 66.1621 163.341 66.3613 164.019 66.3624V66.3624ZM175.458 66.3624H181.697V77.5583H175.458V66.3624ZM194.176 66.3624V77.5583H187.937V66.3624H194.176ZM206.655 77.5583H200.415V66.3624H206.655V77.5583ZM191.056 51.9244L207.071 60.7645H175.042L191.056 51.9244ZM223.293 89.6871C223.293 90.4294 222.964 91.1414 222.379 91.6663C221.794 92.1912 221.001 92.4861 220.173 92.4861H161.939C161.112 92.4861 160.319 92.1912 159.734 91.6663C159.149 91.1414 158.82 90.4294 158.82 89.6871C158.82 88.9448 159.149 88.2329 159.734 87.7079C160.319 87.183 161.112 86.8881 161.939 86.8881H220.173C221.001 86.8881 221.794 87.183 222.379 87.7079C222.964 88.2329 223.293 88.9448 223.293 89.6871Z" fill="white"/>
<path d="M145.688 22.8205H147.945L150.968 30.1983H151.087L154.11 22.8205H156.367V33.0023H154.597V26.0073H154.503L151.689 32.9725H150.367L147.553 25.9924H147.458V33.0023H145.688V22.8205ZM167.474 27.9114C167.474 29.0085 167.268 29.9481 166.857 30.7303C166.45 31.5092 165.893 32.1058 165.187 32.5201C164.484 32.9344 163.687 33.1415 162.796 33.1415C161.904 33.1415 161.105 32.9344 160.399 32.5201C159.697 32.1025 159.14 31.5042 158.729 30.7253C158.321 29.9431 158.117 29.0052 158.117 27.9114C158.117 26.8143 158.321 25.8764 158.729 25.0975C159.14 24.3153 159.697 23.717 160.399 23.3027C161.105 22.8884 161.904 22.6813 162.796 22.6813C163.687 22.6813 164.484 22.8884 165.187 23.3027C165.893 23.717 166.45 24.3153 166.857 25.0975C167.268 25.8764 167.474 26.8143 167.474 27.9114ZM165.619 27.9114C165.619 27.1392 165.498 26.4879 165.256 25.9576C165.018 25.424 164.686 25.0213 164.262 24.7495C163.838 24.4744 163.349 24.3368 162.796 24.3368C162.242 24.3368 161.753 24.4744 161.329 24.7495C160.905 25.0213 160.572 25.424 160.33 25.9576C160.091 26.4879 159.972 27.1392 159.972 27.9114C159.972 28.6837 160.091 29.3366 160.33 29.8702C160.572 30.4005 160.905 30.8032 161.329 31.0783C161.753 31.3501 162.242 31.486 162.796 31.486C163.349 31.486 163.838 31.3501 164.262 31.0783C164.686 30.8032 165.018 30.4005 165.256 29.8702C165.498 29.3366 165.619 28.6837 165.619 27.9114ZM174.751 25.6195C174.705 25.1853 174.509 24.8473 174.164 24.6053C173.823 24.3634 173.379 24.2424 172.832 24.2424C172.447 24.2424 172.118 24.3004 171.843 24.4164C171.567 24.5324 171.357 24.6898 171.211 24.8887C171.065 25.0875 170.991 25.3146 170.987 25.5698C170.987 25.7819 171.036 25.9659 171.132 26.1216C171.231 26.2774 171.365 26.41 171.534 26.5194C171.703 26.6254 171.891 26.7149 172.096 26.7878C172.302 26.8607 172.509 26.9221 172.718 26.9718L173.672 27.2104C174.057 27.2999 174.426 27.4209 174.781 27.5733C175.139 27.7258 175.459 27.918 175.74 28.15C176.025 28.3821 176.251 28.6621 176.416 28.9902C176.582 29.3184 176.665 29.7028 176.665 30.1437C176.665 30.7402 176.513 31.2656 176.208 31.7196C175.903 32.1704 175.462 32.5234 174.885 32.7786C174.312 33.0305 173.617 33.1564 172.802 33.1564C172.01 33.1564 171.322 33.0338 170.739 32.7885C170.159 32.5433 169.705 32.1853 169.377 31.7147C169.052 31.244 168.876 30.6706 168.85 29.9945H170.664C170.691 30.3491 170.8 30.6441 170.992 30.8794C171.185 31.1148 171.435 31.2904 171.743 31.4064C172.055 31.5224 172.403 31.5804 172.787 31.5804C173.188 31.5804 173.54 31.5208 173.841 31.4015C174.146 31.2788 174.385 31.1098 174.557 30.8944C174.729 30.6756 174.817 30.4204 174.821 30.1287C174.817 29.8636 174.739 29.6448 174.587 29.4725C174.434 29.2968 174.221 29.151 173.946 29.035C173.674 28.9157 173.356 28.8096 172.991 28.7168L171.833 28.4185C170.994 28.2031 170.331 27.8766 169.844 27.4391C169.36 26.9983 169.118 26.4133 169.118 25.6841C169.118 25.0842 169.281 24.5589 169.605 24.1081C169.933 23.6574 170.379 23.3077 170.943 23.0591C171.506 22.8072 172.144 22.6813 172.857 22.6813C173.579 22.6813 174.212 22.8072 174.756 23.0591C175.303 23.3077 175.732 23.6541 176.044 24.0982C176.355 24.539 176.516 25.0461 176.526 25.6195H174.751ZM177.862 24.3667V22.8205H185.986V24.3667H182.838V33.0023H181.009V24.3667H177.862ZM191.024 33.0023V22.8205H194.842C195.625 22.8205 196.281 22.9663 196.811 23.258C197.345 23.5497 197.747 23.9507 198.019 24.4611C198.294 24.9682 198.432 25.5449 198.432 26.1912C198.432 26.8442 198.294 27.4242 198.019 27.9313C197.744 28.4384 197.338 28.8378 196.801 29.1294C196.264 29.4178 195.603 29.562 194.818 29.562H192.287V28.0456H194.569C195.026 28.0456 195.401 27.9661 195.693 27.807C195.984 27.6479 196.2 27.4292 196.339 27.1508C196.481 26.8723 196.553 26.5525 196.553 26.1912C196.553 25.83 196.481 25.5118 196.339 25.2367C196.2 24.9616 195.983 24.7478 195.688 24.5954C195.396 24.4396 195.02 24.3617 194.559 24.3617H192.869V33.0023H191.024ZM209.132 27.9114C209.132 29.0085 208.926 29.9481 208.516 30.7303C208.108 31.5092 207.551 32.1058 206.845 32.5201C206.142 32.9344 205.345 33.1415 204.454 33.1415C203.562 33.1415 202.763 32.9344 202.057 32.5201C201.355 32.1025 200.798 31.5042 200.387 30.7253C199.979 29.9431 199.775 29.0052 199.775 27.9114C199.775 26.8143 199.979 25.8764 200.387 25.0975C200.798 24.3153 201.355 23.717 202.057 23.3027C202.763 22.8884 203.562 22.6813 204.454 22.6813C205.345 22.6813 206.142 22.8884 206.845 23.3027C207.551 23.717 208.108 24.3153 208.516 25.0975C208.926 25.8764 209.132 26.8143 209.132 27.9114ZM207.278 27.9114C207.278 27.1392 207.157 26.4879 206.915 25.9576C206.676 25.424 206.345 25.0213 205.92 24.7495C205.496 24.4744 205.007 24.3368 204.454 24.3368C203.9 24.3368 203.411 24.4744 202.987 24.7495C202.563 25.0213 202.23 25.424 201.988 25.9576C201.749 26.4879 201.63 27.1392 201.63 27.9114C201.63 28.6837 201.749 29.3366 201.988 29.8702C202.23 30.4005 202.563 30.8032 202.987 31.0783C203.411 31.3501 203.9 31.486 204.454 31.486C205.007 31.486 205.496 31.3501 205.92 31.0783C206.345 30.8032 206.676 30.4005 206.915 29.8702C207.157 29.3366 207.278 28.6837 207.278 27.9114ZM210.876 33.0023V22.8205H214.694C215.476 22.8205 216.132 22.9663 216.663 23.258C217.196 23.5497 217.599 23.9507 217.871 24.4611C218.146 24.9682 218.283 25.5449 218.283 26.1912C218.283 26.8442 218.146 27.4242 217.871 27.9313C217.596 28.4384 217.19 28.8378 216.653 29.1294C216.116 29.4178 215.455 29.562 214.669 29.562H212.139V28.0456H214.421C214.878 28.0456 215.252 27.9661 215.544 27.807C215.836 27.6479 216.051 27.4292 216.19 27.1508C216.333 26.8723 216.404 26.5525 216.404 26.1912C216.404 25.83 216.333 25.5118 216.19 25.2367C216.051 24.9616 215.834 24.7478 215.539 24.5954C215.247 24.4396 214.871 24.3617 214.411 24.3617H212.72V33.0023H210.876ZM226.304 22.8205H228.148V29.4725C228.148 30.2017 227.976 30.843 227.631 31.3965C227.29 31.95 226.809 32.3825 226.19 32.6941C225.57 33.0023 224.846 33.1564 224.017 33.1564C223.185 33.1564 222.459 33.0023 221.839 32.6941C221.22 32.3825 220.739 31.95 220.398 31.3965C220.056 30.843 219.886 30.2017 219.886 29.4725V22.8205H221.73V29.3184C221.73 29.7426 221.823 30.1205 222.008 30.4519C222.197 30.7833 222.462 31.0435 222.804 31.2324C223.145 31.418 223.55 31.5108 224.017 31.5108C224.484 31.5108 224.889 31.418 225.23 31.2324C225.575 31.0435 225.84 30.7833 226.025 30.4519C226.211 30.1205 226.304 29.7426 226.304 29.3184V22.8205ZM230.153 33.0023V22.8205H231.998V31.4562H236.482V33.0023H230.153ZM239.773 33.0023H237.804L241.389 22.8205H243.666L247.255 33.0023H245.287L242.567 24.9086H242.488L239.773 33.0023ZM239.838 29.0101H245.207V30.4917H239.838V29.0101ZM248.596 33.0023V22.8205H252.415C253.197 22.8205 253.853 22.9564 254.383 23.2282C254.917 23.5 255.32 23.8811 255.592 24.3716C255.867 24.8589 256.004 25.4273 256.004 26.0769C256.004 26.7298 255.865 27.2966 255.587 27.7772C255.311 28.2544 254.905 28.624 254.369 28.8858C253.832 29.1444 253.172 29.2736 252.39 29.2736H249.67V27.7424H252.141C252.599 27.7424 252.973 27.6794 253.265 27.5535C253.556 27.4242 253.772 27.2369 253.911 26.9917C254.054 26.7431 254.125 26.4382 254.125 26.0769C254.125 25.7156 254.054 25.4074 253.911 25.1522C253.769 24.8937 253.552 24.6981 253.26 24.5655C252.968 24.4296 252.592 24.3617 252.131 24.3617H250.441V33.0023H248.596ZM253.856 28.3887L256.377 33.0023H254.319L251.843 28.3887H253.856Z" fill="#FF6B00"/>
<path d="M114.326 31.6705L112.153 20.058L118.128 25.3364L121.93 19.0023L125.733 25.3364L131.708 20.058L129.535 31.6705H114.326ZM129.535 34.8376C129.535 35.471 129.1 35.8933 128.448 35.8933H115.412C114.76 35.8933 114.326 35.471 114.326 34.8376V33.7819H129.535V34.8376Z" fill="#FF6B00"/>
<defs>
<filter id="filter0_b_18_43" x="-200" y="-200" width="790" height="855" filterUnits="userSpaceOnUse" color-interpolation-filters="sRGB">
<feFlood flood-opacity="0" result="BackgroundImageFix"/>
<feGaussianBlur in="BackgroundImageFix" stdDeviation="100"/>
<feComposite in2="SourceAlpha" operator="in" result="effect1_backgroundBlur_18_43"/>
<feBlend mode="normal" in="SourceGraphic" in2="effect1_backgroundBlur_18_43" result="shape"/>
</filter>
<linearGradient id="paint0_linear_18_43" x1="7.98635" y1="-9.7105e-07" x2="338.856" y2="489.565" gradientUnits="userSpaceOnUse">
<stop stop-color="#403E3E"/>
<stop offset="0.375" stop-color="#827F7F" stop-opacity="0.54"/>
<stop offset="1" stop-color="#403E3E"/>
</linearGradient>
<clipPath id="clip0_18_43">
<rect width="31.9454" height="28.6614" fill="white" transform="translate(90.1741 316.47)"/>
</clipPath>
</defs>
</svg>
