<svg width="311" height="389" viewBox="0 0 311 389" fill="none" xmlns="http://www.w3.org/2000/svg">
<g filter="url(#filter0_d_19_70)">
<g filter="url(#filter1_b_19_70)">
<rect x="4" width="302.548" height="381" rx="40" fill="black" fill-opacity="0.7"/>
<rect x="4.5" y="0.5" width="301.548" height="380" rx="39.5" stroke="#FFEBEB"/>
</g>
<rect x="60" y="315" width="193" height="44" rx="20" fill="white"/>
<path d="M119.45 333.562C119.397 333.066 119.174 332.68 118.78 332.403C118.39 332.127 117.882 331.989 117.257 331.989C116.818 331.989 116.441 332.055 116.126 332.188C115.812 332.32 115.571 332.5 115.405 332.727C115.238 332.955 115.153 333.214 115.149 333.506C115.149 333.748 115.204 333.958 115.314 334.136C115.427 334.314 115.581 334.466 115.774 334.591C115.967 334.712 116.181 334.814 116.416 334.898C116.651 334.981 116.888 335.051 117.126 335.108L118.217 335.381C118.657 335.483 119.079 335.621 119.484 335.795C119.893 335.97 120.259 336.189 120.581 336.455C120.907 336.72 121.164 337.04 121.354 337.415C121.543 337.79 121.638 338.229 121.638 338.733C121.638 339.415 121.463 340.015 121.115 340.534C120.767 341.049 120.263 341.453 119.604 341.744C118.948 342.032 118.155 342.176 117.223 342.176C116.318 342.176 115.532 342.036 114.865 341.756C114.202 341.475 113.683 341.066 113.308 340.528C112.937 339.991 112.736 339.335 112.706 338.562H114.78C114.81 338.968 114.935 339.305 115.155 339.574C115.374 339.843 115.66 340.044 116.013 340.176C116.369 340.309 116.767 340.375 117.206 340.375C117.664 340.375 118.066 340.307 118.41 340.17C118.759 340.03 119.032 339.837 119.229 339.591C119.426 339.341 119.526 339.049 119.53 338.716C119.526 338.413 119.437 338.163 119.263 337.966C119.088 337.765 118.844 337.598 118.53 337.466C118.219 337.33 117.856 337.208 117.439 337.102L116.115 336.761C115.157 336.515 114.399 336.142 113.842 335.642C113.289 335.138 113.013 334.47 113.013 333.636C113.013 332.951 113.198 332.35 113.57 331.835C113.945 331.32 114.454 330.92 115.098 330.636C115.742 330.348 116.471 330.205 117.285 330.205C118.111 330.205 118.835 330.348 119.456 330.636C120.081 330.92 120.571 331.316 120.927 331.824C121.284 332.328 121.467 332.907 121.479 333.562H119.45ZM130.852 330.364H132.96V337.966C132.96 338.799 132.763 339.532 132.369 340.165C131.979 340.797 131.43 341.292 130.722 341.648C130.013 342 129.186 342.176 128.239 342.176C127.288 342.176 126.458 342 125.75 341.648C125.042 341.292 124.492 340.797 124.102 340.165C123.712 339.532 123.517 338.799 123.517 337.966V330.364H125.625V337.79C125.625 338.275 125.731 338.706 125.943 339.085C126.159 339.464 126.462 339.761 126.852 339.977C127.242 340.189 127.704 340.295 128.239 340.295C128.773 340.295 129.235 340.189 129.625 339.977C130.019 339.761 130.322 339.464 130.534 339.085C130.746 338.706 130.852 338.275 130.852 337.79V330.364ZM135.251 342V330.364H139.706C140.547 330.364 141.246 330.496 141.802 330.761C142.363 331.023 142.782 331.381 143.058 331.835C143.338 332.29 143.479 332.805 143.479 333.381C143.479 333.854 143.388 334.259 143.206 334.597C143.024 334.93 142.78 335.201 142.473 335.409C142.166 335.617 141.823 335.767 141.445 335.858V335.972C141.857 335.994 142.253 336.121 142.632 336.352C143.015 336.58 143.327 336.902 143.57 337.318C143.812 337.735 143.933 338.239 143.933 338.83C143.933 339.432 143.787 339.973 143.496 340.455C143.204 340.932 142.765 341.309 142.177 341.585C141.59 341.862 140.852 342 139.962 342H135.251ZM137.359 340.239H139.626C140.392 340.239 140.943 340.093 141.28 339.801C141.621 339.506 141.791 339.127 141.791 338.665C141.791 338.32 141.706 338.009 141.535 337.733C141.365 337.453 141.123 337.233 140.808 337.074C140.494 336.911 140.119 336.83 139.683 336.83H137.359V340.239ZM137.359 335.312H139.445C139.808 335.312 140.136 335.246 140.427 335.114C140.719 334.977 140.948 334.786 141.115 334.54C141.285 334.29 141.371 333.994 141.371 333.653C141.371 333.203 141.212 332.831 140.893 332.54C140.579 332.248 140.111 332.102 139.49 332.102H137.359V335.312ZM152.091 333.562C152.038 333.066 151.814 332.68 151.42 332.403C151.03 332.127 150.523 331.989 149.898 331.989C149.458 331.989 149.081 332.055 148.767 332.188C148.453 332.32 148.212 332.5 148.045 332.727C147.879 332.955 147.793 333.214 147.79 333.506C147.79 333.748 147.845 333.958 147.954 334.136C148.068 334.314 148.222 334.466 148.415 334.591C148.608 334.712 148.822 334.814 149.057 334.898C149.292 334.981 149.528 335.051 149.767 335.108L150.858 335.381C151.297 335.483 151.72 335.621 152.125 335.795C152.534 335.97 152.9 336.189 153.222 336.455C153.547 336.72 153.805 337.04 153.994 337.415C154.184 337.79 154.278 338.229 154.278 338.733C154.278 339.415 154.104 340.015 153.756 340.534C153.407 341.049 152.903 341.453 152.244 341.744C151.589 342.032 150.795 342.176 149.864 342.176C148.958 342.176 148.172 342.036 147.506 341.756C146.843 341.475 146.324 341.066 145.949 340.528C145.578 339.991 145.377 339.335 145.347 338.562H147.42C147.451 338.968 147.576 339.305 147.795 339.574C148.015 339.843 148.301 340.044 148.653 340.176C149.009 340.309 149.407 340.375 149.847 340.375C150.305 340.375 150.706 340.307 151.051 340.17C151.4 340.03 151.672 339.837 151.869 339.591C152.066 339.341 152.167 339.049 152.17 338.716C152.167 338.413 152.078 338.163 151.903 337.966C151.729 337.765 151.485 337.598 151.17 337.466C150.86 337.33 150.496 337.208 150.079 337.102L148.756 336.761C147.797 336.515 147.04 336.142 146.483 335.642C145.93 335.138 145.653 334.47 145.653 333.636C145.653 332.951 145.839 332.35 146.21 331.835C146.585 331.32 147.095 330.92 147.739 330.636C148.383 330.348 149.112 330.205 149.926 330.205C150.752 330.205 151.475 330.348 152.097 330.636C152.722 330.92 153.212 331.316 153.568 331.824C153.924 332.328 154.108 332.907 154.119 333.562H152.091ZM166.118 334.29H163.993C163.932 333.941 163.82 333.633 163.658 333.364C163.495 333.091 163.292 332.86 163.05 332.67C162.807 332.481 162.531 332.339 162.22 332.244C161.913 332.146 161.582 332.097 161.226 332.097C160.593 332.097 160.033 332.256 159.544 332.574C159.055 332.888 158.673 333.35 158.396 333.96C158.12 334.566 157.981 335.307 157.981 336.182C157.981 337.072 158.12 337.822 158.396 338.432C158.677 339.038 159.059 339.496 159.544 339.807C160.033 340.114 160.591 340.267 161.22 340.267C161.569 340.267 161.894 340.222 162.197 340.131C162.504 340.036 162.779 339.898 163.021 339.716C163.267 339.534 163.474 339.311 163.641 339.045C163.811 338.78 163.928 338.477 163.993 338.136L166.118 338.148C166.038 338.701 165.866 339.22 165.601 339.705C165.339 340.189 164.997 340.617 164.572 340.989C164.148 341.356 163.652 341.644 163.084 341.852C162.516 342.057 161.885 342.159 161.192 342.159C160.169 342.159 159.256 341.922 158.453 341.449C157.65 340.975 157.017 340.292 156.555 339.398C156.093 338.504 155.862 337.432 155.862 336.182C155.862 334.928 156.095 333.856 156.561 332.966C157.027 332.072 157.661 331.388 158.464 330.915C159.267 330.441 160.177 330.205 161.192 330.205C161.839 330.205 162.442 330.295 162.999 330.477C163.555 330.659 164.052 330.926 164.487 331.278C164.923 331.627 165.281 332.055 165.561 332.562C165.845 333.066 166.031 333.642 166.118 334.29ZM168.048 342V330.364H172.412C173.306 330.364 174.056 330.519 174.662 330.83C175.272 331.14 175.732 331.576 176.043 332.136C176.357 332.693 176.514 333.343 176.514 334.085C176.514 334.831 176.355 335.479 176.037 336.028C175.722 336.574 175.258 336.996 174.645 337.295C174.031 337.591 173.277 337.739 172.383 337.739H169.276V335.989H172.099C172.622 335.989 173.05 335.917 173.383 335.773C173.717 335.625 173.963 335.411 174.122 335.131C174.285 334.847 174.366 334.498 174.366 334.085C174.366 333.672 174.285 333.32 174.122 333.028C173.959 332.733 173.711 332.509 173.378 332.358C173.044 332.203 172.615 332.125 172.088 332.125H170.156V342H168.048ZM174.06 336.727L176.94 342H174.588L171.758 336.727H174.06ZM180.562 330.364V342H178.454V330.364H180.562ZM182.845 342V330.364H187.3C188.141 330.364 188.839 330.496 189.396 330.761C189.957 331.023 190.375 331.381 190.652 331.835C190.932 332.29 191.072 332.805 191.072 333.381C191.072 333.854 190.981 334.259 190.8 334.597C190.618 334.93 190.374 335.201 190.067 335.409C189.76 335.617 189.417 335.767 189.038 335.858V335.972C189.451 335.994 189.847 336.121 190.226 336.352C190.608 336.58 190.921 336.902 191.163 337.318C191.406 337.735 191.527 338.239 191.527 338.83C191.527 339.432 191.381 339.973 191.089 340.455C190.798 340.932 190.358 341.309 189.771 341.585C189.184 341.862 188.445 342 187.555 342H182.845ZM184.953 340.239H187.22C187.985 340.239 188.536 340.093 188.874 339.801C189.214 339.506 189.385 339.127 189.385 338.665C189.385 338.32 189.3 338.009 189.129 337.733C188.959 337.453 188.716 337.233 188.402 337.074C188.088 336.911 187.713 336.83 187.277 336.83H184.953V340.239ZM184.953 335.312H187.038C187.402 335.312 187.73 335.246 188.021 335.114C188.313 334.977 188.542 334.786 188.709 334.54C188.879 334.29 188.964 333.994 188.964 333.653C188.964 333.203 188.805 332.831 188.487 332.54C188.173 332.248 187.705 332.102 187.084 332.102H184.953V335.312ZM193.361 342V330.364H200.929V332.131H195.469V335.29H200.537V337.057H195.469V340.233H200.974V342H193.361Z" fill="black"/>
<path d="M82.4766 252C81.9087 252 81.4227 251.804 81.0186 251.413C80.6138 251.021 80.4114 250.55 80.4114 250V240C80.4114 239.45 80.6138 238.979 81.0186 238.587C81.4227 238.196 81.9087 238 82.4766 238H83.5092V236C83.5092 234.617 84.0127 233.437 85.0198 232.462C86.0263 231.487 87.2437 231 88.6721 231C90.1005 231 91.3183 231.487 92.3254 232.462C93.3318 233.437 93.835 234.617 93.835 236V238H94.8676C95.4355 238 95.9219 238.196 96.3267 238.587C96.7308 238.979 96.9328 239.45 96.9328 240V250C96.9328 250.55 96.7308 251.021 96.3267 251.413C95.9219 251.804 95.4355 252 94.8676 252H82.4766ZM82.4766 250H94.8676V240H82.4766V250ZM88.6721 247C89.24 247 89.7264 246.804 90.1311 246.413C90.5352 246.021 90.7373 245.55 90.7373 245C90.7373 244.45 90.5352 243.979 90.1311 243.587C89.7264 243.196 89.24 243 88.6721 243C88.1042 243 87.6182 243.196 87.2141 243.587C86.8093 243.979 86.6069 244.45 86.6069 245C86.6069 245.55 86.8093 246.021 87.2141 246.413C87.6182 246.804 88.1042 247 88.6721 247ZM85.5743 238H91.7699V236C91.7699 235.167 91.4687 234.458 90.8663 233.875C90.264 233.292 89.5326 233 88.6721 233C87.8116 233 87.0802 233.292 86.4779 233.875C85.8755 234.458 85.5743 235.167 85.5743 236V238ZM82.4766 250V240V250Z" fill="white"/>
<path opacity="0.3" d="M80.4114 172H96.9328V178H80.4114V172ZM80.4114 166H96.9328V168H80.4114V166Z" fill="white"/>
<path d="M96.9328 164H80.4114C79.2653 164 78.3566 164.89 78.3566 166L78.3463 178C78.3463 179.11 79.2653 180 80.4114 180H96.9328C98.079 180 98.998 179.11 98.998 178V166C98.998 164.89 98.079 164 96.9328 164ZM96.9328 178H80.4114V172H96.9328V178ZM96.9328 168H80.4114V166H96.9328V168Z" fill="white"/>
<path d="M78.3463 202H96.9328M92.8025 197L97.9654 202L92.8025 207M98.998 212H80.4114M84.5418 207L79.3788 212L84.5418 217" stroke="white" stroke-width="2"/>
<path d="M93.1742 281C93.2568 280.34 93.3188 279.68 93.3188 279C93.3188 278.32 93.2568 277.66 93.1742 277H96.6643C96.8296 277.64 96.9328 278.31 96.9328 279C96.9328 279.69 96.8296 280.36 96.6643 281M91.3465 286.56C91.9661 285.45 92.4411 284.25 92.7715 283H95.8176C94.8172 284.668 93.2301 285.932 91.3465 286.56M91.0884 281H86.2559C86.1526 280.34 86.0907 279.68 86.0907 279C86.0907 278.32 86.1526 277.65 86.2559 277H91.0884C91.1813 277.65 91.2536 278.32 91.2536 279C91.2536 279.68 91.1813 280.34 91.0884 281ZM88.6721 286.96C87.8151 285.76 87.1232 284.43 86.6999 283H90.6444C90.221 284.43 89.5292 285.76 88.6721 286.96ZM84.5418 275H81.5266C82.5167 273.327 84.1027 272.061 85.9874 271.44C85.3678 272.55 84.9032 273.75 84.5418 275ZM81.5266 283H84.5418C84.9032 284.25 85.3678 285.45 85.9874 286.56C84.1067 285.932 82.5229 284.668 81.5266 283M80.6799 281C80.5147 280.36 80.4114 279.69 80.4114 279C80.4114 278.31 80.5147 277.64 80.6799 277H84.17C84.0874 277.66 84.0255 278.32 84.0255 279C84.0255 279.68 84.0874 280.34 84.17 281M88.6721 271.03C89.5292 272.23 90.221 273.57 90.6444 275H86.6999C87.1232 273.57 87.8151 272.23 88.6721 271.03M95.8176 275H92.7715C92.4483 273.761 91.9698 272.566 91.3465 271.44C93.2465 272.07 94.8263 273.34 95.8176 275ZM88.6721 269C82.9619 269 78.3463 273.5 78.3463 279C78.3463 281.652 79.4342 284.196 81.3706 286.071C82.3295 287 83.4678 287.736 84.7206 288.239C85.9734 288.741 87.3161 289 88.6721 289C91.4107 289 94.0371 287.946 95.9736 286.071C97.9101 284.196 98.998 281.652 98.998 279C98.998 277.687 98.7309 276.386 98.212 275.173C97.6931 273.96 96.9325 272.858 95.9736 271.929C95.0148 271 93.8764 270.264 92.6237 269.761C91.3709 269.259 90.0281 269 88.6721 269V269Z" fill="white"/>
<path d="M122.722 169.273V178H121.141V170.811H121.09L119.049 172.115V170.666L121.218 169.273H122.722ZM136.823 172.06C136.752 171.83 136.654 171.624 136.529 171.442C136.407 171.257 136.259 171.099 136.086 170.969C135.916 170.838 135.719 170.74 135.498 170.675C135.276 170.607 135.035 170.572 134.773 170.572C134.305 170.572 133.887 170.69 133.521 170.926C133.154 171.162 132.866 171.509 132.656 171.966C132.448 172.42 132.344 172.974 132.344 173.628C132.344 174.287 132.448 174.845 132.656 175.303C132.863 175.76 133.151 176.108 133.521 176.347C133.89 176.582 134.319 176.7 134.808 176.7C135.251 176.7 135.634 176.615 135.958 176.445C136.285 176.274 136.536 176.033 136.712 175.72C136.889 175.405 136.977 175.036 136.977 174.612L137.335 174.668H134.965V173.432H138.506V174.48C138.506 175.227 138.347 175.874 138.029 176.419C137.711 176.964 137.273 177.385 136.717 177.68C136.16 177.973 135.521 178.119 134.799 178.119C133.995 178.119 133.289 177.939 132.681 177.578C132.076 177.214 131.603 176.699 131.262 176.031C130.924 175.361 130.755 174.565 130.755 173.645C130.755 172.94 130.854 172.311 131.053 171.757C131.255 171.203 131.536 170.733 131.897 170.347C132.258 169.957 132.681 169.662 133.167 169.46C133.653 169.256 134.181 169.153 134.752 169.153C135.235 169.153 135.685 169.224 136.103 169.366C136.521 169.506 136.891 169.705 137.215 169.963C137.542 170.222 137.81 170.528 138.021 170.884C138.231 171.239 138.369 171.631 138.434 172.06H136.823ZM147.833 173.636C147.833 174.577 147.657 175.382 147.305 176.053C146.956 176.72 146.478 177.232 145.873 177.587C145.271 177.942 144.588 178.119 143.824 178.119C143.059 178.119 142.375 177.942 141.77 177.587C141.167 177.229 140.69 176.716 140.338 176.048C139.988 175.378 139.814 174.574 139.814 173.636C139.814 172.696 139.988 171.892 140.338 171.224C140.69 170.554 141.167 170.041 141.77 169.686C142.375 169.331 143.059 169.153 143.824 169.153C144.588 169.153 145.271 169.331 145.873 169.686C146.478 170.041 146.956 170.554 147.305 171.224C147.657 171.892 147.833 172.696 147.833 173.636ZM146.244 173.636C146.244 172.974 146.14 172.416 145.933 171.962C145.728 171.504 145.444 171.159 145.081 170.926C144.717 170.69 144.298 170.572 143.824 170.572C143.349 170.572 142.93 170.69 142.566 170.926C142.203 171.159 141.917 171.504 141.71 171.962C141.505 172.416 141.403 172.974 141.403 173.636C141.403 174.298 141.505 174.858 141.71 175.315C141.917 175.77 142.203 176.115 142.566 176.351C142.93 176.584 143.349 176.7 143.824 176.7C144.298 176.7 144.717 176.584 145.081 176.351C145.444 176.115 145.728 175.77 145.933 175.315C146.14 174.858 146.244 174.298 146.244 173.636ZM149.328 178V169.273H150.909V176.675H154.753V178H149.328ZM159.082 178H156.125V169.273H159.142C160.009 169.273 160.753 169.447 161.375 169.797C162 170.143 162.48 170.642 162.815 171.293C163.151 171.943 163.318 172.722 163.318 173.628C163.318 174.537 163.149 175.318 162.811 175.972C162.476 176.625 161.992 177.126 161.358 177.476C160.727 177.825 159.969 178 159.082 178ZM157.706 176.632H159.006C159.614 176.632 160.121 176.521 160.527 176.3C160.933 176.075 161.239 175.741 161.443 175.298C161.648 174.852 161.75 174.295 161.75 173.628C161.75 172.96 161.648 172.406 161.443 171.966C161.239 171.523 160.936 171.192 160.536 170.973C160.138 170.751 159.643 170.641 159.053 170.641H157.706V176.632ZM168.965 169.273L171.236 176.142H171.325L173.592 169.273H175.331L172.254 178H170.303L167.23 169.273H168.965ZM178.061 169.273V178H176.48V169.273H178.061ZM184.516 171.672C184.477 171.3 184.309 171.01 184.014 170.803C183.721 170.595 183.34 170.491 182.871 170.491C182.542 170.491 182.259 170.541 182.023 170.641C181.788 170.74 181.607 170.875 181.482 171.045C181.357 171.216 181.293 171.411 181.291 171.629C181.291 171.811 181.332 171.969 181.414 172.102C181.499 172.236 181.614 172.349 181.759 172.443C181.904 172.534 182.065 172.611 182.241 172.673C182.417 172.736 182.594 172.788 182.773 172.831L183.592 173.036C183.921 173.112 184.238 173.216 184.542 173.347C184.849 173.477 185.123 173.642 185.364 173.841C185.609 174.04 185.802 174.28 185.944 174.561C186.086 174.842 186.157 175.172 186.157 175.55C186.157 176.061 186.026 176.511 185.765 176.901C185.504 177.287 185.126 177.589 184.631 177.808C184.14 178.024 183.545 178.132 182.846 178.132C182.167 178.132 181.577 178.027 181.077 177.817C180.58 177.607 180.191 177.3 179.91 176.896C179.631 176.493 179.481 176.001 179.458 175.422H181.014C181.036 175.726 181.13 175.979 181.295 176.18C181.46 176.382 181.674 176.533 181.938 176.632C182.205 176.732 182.504 176.781 182.833 176.781C183.177 176.781 183.478 176.73 183.737 176.628C183.998 176.523 184.202 176.378 184.35 176.193C184.498 176.006 184.573 175.787 184.576 175.537C184.573 175.31 184.506 175.122 184.376 174.974C184.245 174.824 184.062 174.699 183.826 174.599C183.593 174.497 183.32 174.406 183.008 174.327L182.015 174.071C181.296 173.886 180.728 173.607 180.31 173.232C179.896 172.854 179.688 172.352 179.688 171.727C179.688 171.213 179.827 170.763 180.106 170.376C180.387 169.99 180.769 169.69 181.252 169.477C181.735 169.261 182.282 169.153 182.893 169.153C183.512 169.153 184.055 169.261 184.521 169.477C184.989 169.69 185.357 169.987 185.624 170.368C185.891 170.746 186.029 171.18 186.038 171.672H184.516ZM188.547 178H186.859L189.931 169.273H191.883L194.96 178H193.272L190.941 171.062H190.873L188.547 178ZM188.602 174.578H193.204V175.848H188.602V174.578Z" fill="white"/>
<path d="M120.44 210.166C119.739 210.166 119.136 209.989 118.634 209.634C118.134 209.276 117.749 208.76 117.479 208.087C117.212 207.411 117.078 206.597 117.078 205.645C117.081 204.693 117.216 203.884 117.483 203.216C117.753 202.545 118.138 202.034 118.638 201.682C119.141 201.33 119.741 201.153 120.44 201.153C121.139 201.153 121.74 201.33 122.243 201.682C122.746 202.034 123.131 202.545 123.398 203.216C123.668 203.886 123.803 204.696 123.803 205.645C123.803 206.599 123.668 207.415 123.398 208.091C123.131 208.764 122.746 209.278 122.243 209.634C121.743 209.989 121.142 210.166 120.44 210.166ZM120.44 208.832C120.986 208.832 121.416 208.564 121.732 208.027C122.05 207.487 122.209 206.693 122.209 205.645C122.209 204.952 122.136 204.369 121.991 203.898C121.847 203.426 121.642 203.071 121.378 202.832C121.114 202.591 120.801 202.47 120.44 202.47C119.898 202.47 119.469 202.74 119.153 203.28C118.838 203.817 118.679 204.605 118.676 205.645C118.673 206.341 118.743 206.926 118.885 207.401C119.03 207.875 119.234 208.233 119.499 208.474C119.763 208.713 120.077 208.832 120.44 208.832ZM128.031 211.091V200.182H128.73V211.091H128.031ZM130.047 203.672C130.007 203.3 129.839 203.01 129.544 202.803C129.251 202.595 128.87 202.491 128.402 202.491C128.072 202.491 127.789 202.541 127.554 202.641C127.318 202.74 127.137 202.875 127.012 203.045C126.887 203.216 126.824 203.411 126.821 203.629C126.821 203.811 126.862 203.969 126.944 204.102C127.029 204.236 127.145 204.349 127.289 204.443C127.434 204.534 127.595 204.611 127.771 204.673C127.947 204.736 128.125 204.788 128.304 204.831L129.122 205.036C129.451 205.112 129.768 205.216 130.072 205.347C130.379 205.477 130.653 205.642 130.895 205.841C131.139 206.04 131.332 206.28 131.474 206.561C131.616 206.842 131.687 207.172 131.687 207.55C131.687 208.061 131.556 208.511 131.295 208.901C131.034 209.287 130.656 209.589 130.162 209.808C129.67 210.024 129.075 210.132 128.376 210.132C127.697 210.132 127.108 210.027 126.608 209.817C126.11 209.607 125.721 209.3 125.44 208.896C125.162 208.493 125.011 208.001 124.988 207.422H126.544C126.566 207.726 126.66 207.979 126.825 208.18C126.99 208.382 127.204 208.533 127.468 208.632C127.735 208.732 128.034 208.781 128.363 208.781C128.707 208.781 129.008 208.73 129.267 208.628C129.528 208.523 129.733 208.378 129.88 208.193C130.028 208.006 130.103 207.787 130.106 207.537C130.103 207.31 130.037 207.122 129.906 206.974C129.775 206.824 129.592 206.699 129.356 206.599C129.123 206.497 128.85 206.406 128.538 206.327L127.545 206.071C126.826 205.886 126.258 205.607 125.841 205.232C125.426 204.854 125.218 204.352 125.218 203.727C125.218 203.213 125.358 202.763 125.636 202.376C125.917 201.99 126.299 201.69 126.782 201.477C127.265 201.261 127.812 201.153 128.423 201.153C129.042 201.153 129.585 201.261 130.051 201.477C130.52 201.69 130.887 201.987 131.154 202.368C131.422 202.746 131.559 203.18 131.568 203.672H130.047ZM136.073 210V201.273H141.664V202.598H137.654V204.967H141.281V206.293H137.654V210H136.073ZM150.903 205.636C150.903 206.577 150.727 207.382 150.374 208.053C150.025 208.72 149.548 209.232 148.942 209.587C148.34 209.942 147.657 210.119 146.893 210.119C146.129 210.119 145.444 209.942 144.839 209.587C144.237 209.229 143.759 208.716 143.407 208.048C143.058 207.378 142.883 206.574 142.883 205.636C142.883 204.696 143.058 203.892 143.407 203.224C143.759 202.554 144.237 202.041 144.839 201.686C145.444 201.331 146.129 201.153 146.893 201.153C147.657 201.153 148.34 201.331 148.942 201.686C149.548 202.041 150.025 202.554 150.374 203.224C150.727 203.892 150.903 204.696 150.903 205.636ZM149.313 205.636C149.313 204.974 149.21 204.416 149.002 203.962C148.798 203.504 148.513 203.159 148.15 202.926C147.786 202.69 147.367 202.572 146.893 202.572C146.418 202.572 145.999 202.69 145.636 202.926C145.272 203.159 144.987 203.504 144.779 203.962C144.575 204.416 144.472 204.974 144.472 205.636C144.472 206.298 144.575 206.858 144.779 207.315C144.987 207.77 145.272 208.115 145.636 208.351C145.999 208.584 146.418 208.7 146.893 208.7C147.367 208.7 147.786 208.584 148.15 208.351C148.513 208.115 148.798 207.77 149.002 207.315C149.21 206.858 149.313 206.298 149.313 205.636ZM152.397 210V201.273H155.67C156.341 201.273 156.903 201.389 157.358 201.622C157.815 201.855 158.16 202.182 158.393 202.602C158.629 203.02 158.747 203.507 158.747 204.064C158.747 204.624 158.627 205.109 158.389 205.521C158.153 205.93 157.805 206.247 157.345 206.472C156.885 206.693 156.319 206.804 155.649 206.804H153.318V205.491H155.436C155.828 205.491 156.149 205.437 156.399 205.33C156.649 205.219 156.833 205.058 156.953 204.848C157.075 204.635 157.136 204.374 157.136 204.064C157.136 203.754 157.075 203.49 156.953 203.271C156.831 203.05 156.645 202.882 156.395 202.768C156.145 202.652 155.822 202.594 155.427 202.594H153.978V210H152.397ZM156.906 206.045L159.066 210H157.302L155.18 206.045H156.906ZM162.795 202.598V201.273H169.758V202.598H167.061V210H165.493V202.598H162.795ZM171.1 210V201.273H174.373C175.044 201.273 175.606 201.389 176.061 201.622C176.518 201.855 176.863 202.182 177.096 202.602C177.332 203.02 177.45 203.507 177.45 204.064C177.45 204.624 177.331 205.109 177.092 205.521C176.856 205.93 176.508 206.247 176.048 206.472C175.588 206.693 175.022 206.804 174.352 206.804H172.021V205.491H174.139C174.531 205.491 174.852 205.437 175.102 205.33C175.352 205.219 175.537 205.058 175.656 204.848C175.778 204.635 175.839 204.374 175.839 204.064C175.839 203.754 175.778 203.49 175.656 203.271C175.534 203.05 175.348 202.882 175.098 202.768C174.848 202.652 174.525 202.594 174.13 202.594H172.681V210H171.1ZM175.609 206.045L177.77 210H176.005L173.883 206.045H175.609ZM180.026 210H178.338L181.411 201.273H183.363L186.439 210H184.752L182.421 203.062H182.353L180.026 210ZM180.081 206.578H184.684V207.848H180.081V206.578ZM194.761 201.273V210H193.354L189.242 204.055H189.17V210H187.589V201.273H189.004L193.112 207.222H193.188V201.273H194.761ZM201.226 203.672C201.186 203.3 201.019 203.01 200.723 202.803C200.431 202.595 200.05 202.491 199.581 202.491C199.252 202.491 198.969 202.541 198.733 202.641C198.498 202.74 198.317 202.875 198.192 203.045C198.067 203.216 198.003 203.411 198 203.629C198 203.811 198.042 203.969 198.124 204.102C198.209 204.236 198.324 204.349 198.469 204.443C198.614 204.534 198.775 204.611 198.951 204.673C199.127 204.736 199.304 204.788 199.483 204.831L200.301 205.036C200.631 205.112 200.948 205.216 201.252 205.347C201.559 205.477 201.833 205.642 202.074 205.841C202.319 206.04 202.512 206.28 202.654 206.561C202.796 206.842 202.867 207.172 202.867 207.55C202.867 208.061 202.736 208.511 202.475 208.901C202.213 209.287 201.836 209.589 201.341 209.808C200.85 210.024 200.255 210.132 199.556 210.132C198.877 210.132 198.287 210.027 197.787 209.817C197.29 209.607 196.901 209.3 196.62 208.896C196.341 208.493 196.191 208.001 196.168 207.422H197.723C197.746 207.726 197.84 207.979 198.005 208.18C198.169 208.382 198.384 208.533 198.648 208.632C198.915 208.732 199.213 208.781 199.543 208.781C199.887 208.781 200.188 208.73 200.446 208.628C200.708 208.523 200.912 208.378 201.06 208.193C201.208 208.006 201.283 207.787 201.286 207.537C201.283 207.31 201.216 207.122 201.086 206.974C200.955 206.824 200.772 206.699 200.536 206.599C200.303 206.497 200.03 206.406 199.718 206.327L198.725 206.071C198.006 205.886 197.438 205.607 197.02 205.232C196.605 204.854 196.398 204.352 196.398 203.727C196.398 203.213 196.537 202.763 196.816 202.376C197.097 201.99 197.479 201.69 197.962 201.477C198.445 201.261 198.992 201.153 199.603 201.153C200.222 201.153 200.765 201.261 201.23 201.477C201.699 201.69 202.067 201.987 202.334 202.368C202.601 202.746 202.739 203.18 202.748 203.672H201.226ZM205.256 210H203.569L206.641 201.273H208.593L211.67 210H209.982L207.651 203.062H207.583L205.256 210ZM205.312 206.578H209.914V207.848H205.312V206.578ZM219.879 204.217H218.286C218.24 203.956 218.156 203.724 218.034 203.523C217.912 203.318 217.76 203.145 217.578 203.003C217.396 202.861 217.189 202.754 216.956 202.683C216.726 202.609 216.477 202.572 216.21 202.572C215.736 202.572 215.315 202.692 214.949 202.93C214.582 203.166 214.295 203.513 214.088 203.97C213.881 204.425 213.777 204.98 213.777 205.636C213.777 206.304 213.881 206.866 214.088 207.324C214.298 207.778 214.585 208.122 214.949 208.355C215.315 208.585 215.734 208.7 216.206 208.7C216.467 208.7 216.712 208.666 216.939 208.598C217.169 208.527 217.375 208.423 217.557 208.287C217.741 208.151 217.896 207.983 218.021 207.784C218.149 207.585 218.237 207.358 218.286 207.102L219.879 207.111C219.82 207.526 219.69 207.915 219.491 208.278C219.295 208.642 219.038 208.963 218.72 209.241C218.402 209.517 218.03 209.733 217.604 209.889C217.178 210.043 216.705 210.119 216.185 210.119C215.418 210.119 214.733 209.942 214.131 209.587C213.528 209.232 213.054 208.719 212.707 208.048C212.361 207.378 212.187 206.574 212.187 205.636C212.187 204.696 212.362 203.892 212.712 203.224C213.061 202.554 213.537 202.041 214.139 201.686C214.741 201.331 215.423 201.153 216.185 201.153C216.67 201.153 217.122 201.222 217.54 201.358C217.957 201.494 218.33 201.695 218.656 201.959C218.983 202.22 219.251 202.541 219.462 202.922C219.675 203.3 219.814 203.732 219.879 204.217ZM220.944 202.598V201.273H227.907V202.598H225.209V210H223.641V202.598H220.944ZM230.83 201.273V210H229.249V201.273H230.83ZM240.34 205.636C240.34 206.577 240.164 207.382 239.812 208.053C239.462 208.72 238.985 209.232 238.38 209.587C237.778 209.942 237.094 210.119 236.33 210.119C235.566 210.119 234.881 209.942 234.276 209.587C233.674 209.229 233.197 208.716 232.844 208.048C232.495 207.378 232.32 206.574 232.32 205.636C232.32 204.696 232.495 203.892 232.844 203.224C233.197 202.554 233.674 202.041 234.276 201.686C234.881 201.331 235.566 201.153 236.33 201.153C237.094 201.153 237.778 201.331 238.38 201.686C238.985 202.041 239.462 202.554 239.812 203.224C240.164 203.892 240.34 204.696 240.34 205.636ZM238.751 205.636C238.751 204.974 238.647 204.416 238.44 203.962C238.235 203.504 237.951 203.159 237.587 202.926C237.224 202.69 236.805 202.572 236.33 202.572C235.856 202.572 235.437 202.69 235.073 202.926C234.71 203.159 234.424 203.504 234.217 203.962C234.012 204.416 233.91 204.974 233.91 205.636C233.91 206.298 234.012 206.858 234.217 207.315C234.424 207.77 234.71 208.115 235.073 208.351C235.437 208.584 235.856 208.7 236.33 208.7C236.805 208.7 237.224 208.584 237.587 208.351C237.951 208.115 238.235 207.77 238.44 207.315C238.647 206.858 238.751 206.298 238.751 205.636ZM249.007 201.273V210H247.6L243.488 204.055H243.416V210H241.835V201.273H243.25L247.358 207.222H247.434V201.273H249.007Z" fill="white"/>
<path d="M118.505 244V235.273H124.096V236.598H120.086V238.967H123.712V240.293H120.086V244H118.505ZM131.038 235.273H132.619V240.974C132.619 241.599 132.471 242.149 132.176 242.624C131.883 243.098 131.471 243.469 130.94 243.736C130.409 244 129.788 244.132 129.078 244.132C128.364 244.132 127.742 244 127.211 243.736C126.68 243.469 126.268 243.098 125.975 242.624C125.683 242.149 125.536 241.599 125.536 240.974V235.273H127.117V240.842C127.117 241.206 127.197 241.53 127.356 241.814C127.518 242.098 127.745 242.321 128.038 242.483C128.33 242.642 128.677 242.722 129.078 242.722C129.478 242.722 129.825 242.642 130.117 242.483C130.413 242.321 130.64 242.098 130.799 241.814C130.958 241.53 131.038 241.206 131.038 240.842V235.273ZM134.337 244V235.273H135.918V242.675H139.762V244H134.337ZM141.134 244V235.273H142.715V242.675H146.559V244H141.134ZM150.907 244V235.273H154.18C154.851 235.273 155.413 235.398 155.868 235.648C156.325 235.898 156.67 236.241 156.903 236.679C157.139 237.114 157.257 237.608 157.257 238.162C157.257 238.722 157.139 239.219 156.903 239.653C156.667 240.088 156.319 240.43 155.859 240.68C155.399 240.928 154.832 241.051 154.159 241.051H151.99V239.751H153.946C154.338 239.751 154.659 239.683 154.909 239.547C155.159 239.411 155.344 239.223 155.463 238.984C155.585 238.746 155.646 238.472 155.646 238.162C155.646 237.852 155.585 237.58 155.463 237.344C155.344 237.108 155.157 236.925 154.905 236.794C154.655 236.661 154.332 236.594 153.937 236.594H152.488V244H150.907ZM158.63 244V235.273H161.903C162.573 235.273 163.136 235.389 163.59 235.622C164.048 235.855 164.393 236.182 164.626 236.602C164.862 237.02 164.98 237.507 164.98 238.064C164.98 238.624 164.86 239.109 164.622 239.521C164.386 239.93 164.038 240.247 163.578 240.472C163.117 240.693 162.552 240.804 161.882 240.804H159.551V239.491H161.668C162.06 239.491 162.382 239.437 162.632 239.33C162.882 239.219 163.066 239.058 163.185 238.848C163.308 238.635 163.369 238.374 163.369 238.064C163.369 237.754 163.308 237.49 163.185 237.271C163.063 237.05 162.877 236.882 162.627 236.768C162.377 236.652 162.055 236.594 161.66 236.594H160.211V244H158.63ZM163.139 240.045L165.299 244H163.535L161.413 240.045H163.139ZM174.233 239.636C174.233 240.577 174.057 241.382 173.705 242.053C173.355 242.72 172.878 243.232 172.273 243.587C171.671 243.942 170.987 244.119 170.223 244.119C169.459 244.119 168.774 243.942 168.169 243.587C167.567 243.229 167.09 242.716 166.737 242.048C166.388 241.378 166.213 240.574 166.213 239.636C166.213 238.696 166.388 237.892 166.737 237.224C167.09 236.554 167.567 236.041 168.169 235.686C168.774 235.331 169.459 235.153 170.223 235.153C170.987 235.153 171.671 235.331 172.273 235.686C172.878 236.041 173.355 236.554 173.705 237.224C174.057 237.892 174.233 238.696 174.233 239.636ZM172.644 239.636C172.644 238.974 172.54 238.416 172.333 237.962C172.128 237.504 171.844 237.159 171.48 236.926C171.117 236.69 170.698 236.572 170.223 236.572C169.749 236.572 169.33 236.69 168.966 236.926C168.602 237.159 168.317 237.504 168.11 237.962C167.905 238.416 167.803 238.974 167.803 239.636C167.803 240.298 167.905 240.858 168.11 241.315C168.317 241.77 168.602 242.115 168.966 242.351C169.33 242.584 169.749 242.7 170.223 242.7C170.698 242.7 171.117 242.584 171.48 242.351C171.844 242.115 172.128 241.77 172.333 241.315C172.54 240.858 172.644 240.298 172.644 239.636ZM174.958 236.598V235.273H181.921V236.598H179.223V244H177.655V236.598H174.958ZM183.263 244V235.273H188.939V236.598H184.844V238.967H188.645V240.293H184.844V242.675H188.973V244H183.263ZM198.022 238.217H196.428C196.383 237.956 196.299 237.724 196.177 237.523C196.055 237.318 195.903 237.145 195.721 237.003C195.539 236.861 195.332 236.754 195.099 236.683C194.869 236.609 194.62 236.572 194.353 236.572C193.879 236.572 193.458 236.692 193.092 236.93C192.725 237.166 192.438 237.513 192.231 237.97C192.024 238.425 191.92 238.98 191.92 239.636C191.92 240.304 192.024 240.866 192.231 241.324C192.441 241.778 192.728 242.122 193.092 242.355C193.458 242.585 193.877 242.7 194.349 242.7C194.61 242.7 194.855 242.666 195.082 242.598C195.312 242.527 195.518 242.423 195.7 242.287C195.884 242.151 196.039 241.983 196.164 241.784C196.292 241.585 196.38 241.358 196.428 241.102L198.022 241.111C197.962 241.526 197.833 241.915 197.634 242.278C197.438 242.642 197.181 242.963 196.863 243.241C196.545 243.517 196.173 243.733 195.747 243.889C195.32 244.043 194.847 244.119 194.328 244.119C193.56 244.119 192.876 243.942 192.274 243.587C191.671 243.232 191.197 242.719 190.85 242.048C190.504 241.378 190.33 240.574 190.33 239.636C190.33 238.696 190.505 237.892 190.855 237.224C191.204 236.554 191.68 236.041 192.282 235.686C192.884 235.331 193.566 235.153 194.328 235.153C194.813 235.153 195.265 235.222 195.683 235.358C196.1 235.494 196.472 235.695 196.799 235.959C197.126 236.22 197.394 236.541 197.605 236.922C197.818 237.3 197.957 237.732 198.022 238.217ZM199.086 236.598V235.273H206.049V236.598H203.352V244H201.784V236.598H199.086ZM208.973 235.273V244H207.392V235.273H208.973ZM218.483 239.636C218.483 240.577 218.307 241.382 217.955 242.053C217.605 242.72 217.128 243.232 216.523 243.587C215.921 243.942 215.237 244.119 214.473 244.119C213.709 244.119 213.024 243.942 212.419 243.587C211.817 243.229 211.34 242.716 210.987 242.048C210.638 241.378 210.463 240.574 210.463 239.636C210.463 238.696 210.638 237.892 210.987 237.224C211.34 236.554 211.817 236.041 212.419 235.686C213.024 235.331 213.709 235.153 214.473 235.153C215.237 235.153 215.921 235.331 216.523 235.686C217.128 236.041 217.605 236.554 217.955 237.224C218.307 237.892 218.483 238.696 218.483 239.636ZM216.894 239.636C216.894 238.974 216.79 238.416 216.583 237.962C216.378 237.504 216.094 237.159 215.73 236.926C215.367 236.69 214.948 236.572 214.473 236.572C213.999 236.572 213.58 236.69 213.216 236.926C212.852 237.159 212.567 237.504 212.36 237.962C212.155 238.416 212.053 238.974 212.053 239.636C212.053 240.298 212.155 240.858 212.36 241.315C212.567 241.77 212.852 242.115 213.216 242.351C213.58 242.584 213.999 242.7 214.473 242.7C214.948 242.7 215.367 242.584 215.73 242.351C216.094 242.115 216.378 241.77 216.583 241.315C216.79 240.858 216.894 240.298 216.894 239.636ZM227.15 235.273V244H225.743L221.631 238.055H221.559V244H219.978V235.273H221.393L225.5 241.222H225.577V235.273H227.15Z" fill="white"/>
<path d="M92.5978 136.818V98.6364H95.0438V136.818H92.5978ZM99.0857 111.239C98.9664 110.036 98.4544 109.102 97.5495 108.435C96.6447 107.769 95.4167 107.436 93.8656 107.436C92.8116 107.436 91.9217 107.585 91.1958 107.884C90.47 108.172 89.9132 108.575 89.5254 109.092C89.1475 109.609 88.9586 110.195 88.9586 110.852C88.9387 111.398 89.0531 111.876 89.3017 112.283C89.5602 112.691 89.9132 113.044 90.3606 113.342C90.808 113.631 91.3251 113.884 91.9117 114.103C92.4984 114.312 93.1248 114.491 93.791 114.64L96.5353 115.296C97.8677 115.594 99.0907 115.992 100.204 116.489C101.318 116.987 102.282 117.598 103.098 118.324C103.913 119.05 104.545 119.905 104.992 120.889C105.449 121.874 105.683 123.002 105.693 124.275C105.683 126.144 105.206 127.765 104.261 129.137C103.327 130.499 101.974 131.558 100.204 132.314C98.4444 133.06 96.3215 133.433 93.8357 133.433C91.3698 133.433 89.2221 133.055 87.3926 132.299C85.573 131.543 84.1511 130.425 83.1269 128.943C82.1127 127.452 81.5808 125.607 81.5311 123.41H87.7803C87.85 124.434 88.1433 125.289 88.6603 125.975C89.1873 126.651 89.8883 127.163 90.7633 127.511C91.6482 127.849 92.6475 128.018 93.7612 128.018C94.8549 128.018 95.8045 127.859 96.6099 127.541C97.4252 127.223 98.0566 126.781 98.5041 126.214C98.9515 125.647 99.1752 124.996 99.1752 124.26C99.1752 123.574 98.9714 122.997 98.5637 122.53C98.166 122.062 97.5794 121.665 96.8038 121.337C96.0382 121.009 95.0985 120.71 93.9849 120.442L90.6589 119.607C88.0836 118.98 86.0502 118.001 84.5588 116.668C83.0673 115.336 82.3265 113.541 82.3365 111.284C82.3265 109.435 82.8187 107.819 83.813 106.437C84.8173 105.055 86.1944 103.976 87.9444 103.2C89.6944 102.425 91.683 102.037 93.9103 102.037C96.1774 102.037 98.1561 102.425 99.8464 103.2C101.547 103.976 102.869 105.055 103.814 106.437C104.758 107.819 105.246 109.42 105.275 111.239H99.0857ZM123.147 102.455V133H116.689V108.585H116.51L109.515 112.969V107.242L117.077 102.455H123.147ZM130.407 133V128.347L141.28 118.279C142.204 117.384 142.98 116.579 143.606 115.863C144.243 115.147 144.725 114.446 145.053 113.76C145.381 113.064 145.545 112.313 145.545 111.508C145.545 110.613 145.341 109.842 144.934 109.196C144.526 108.54 143.969 108.038 143.263 107.69C142.557 107.332 141.757 107.153 140.862 107.153C139.927 107.153 139.112 107.342 138.416 107.719C137.72 108.097 137.183 108.639 136.805 109.345C136.427 110.051 136.238 110.891 136.238 111.866H130.108C130.108 109.867 130.561 108.132 131.466 106.661C132.371 105.189 133.638 104.05 135.269 103.245C136.9 102.44 138.779 102.037 140.907 102.037C143.094 102.037 144.998 102.425 146.619 103.2C148.25 103.966 149.518 105.03 150.422 106.392C151.327 107.754 151.78 109.315 151.78 111.075C151.78 112.229 151.551 113.367 151.094 114.491C150.646 115.614 149.846 116.862 148.692 118.234C147.539 119.597 145.913 121.232 143.815 123.141L139.356 127.511V127.72H152.182V133H130.407ZM170.225 101.023L160.382 137.594H154.908L164.752 101.023H170.225ZM173.287 133V110.091H179.342V114.133H179.611C180.088 112.79 180.883 111.732 181.997 110.956C183.111 110.18 184.443 109.793 185.994 109.793C187.565 109.793 188.903 110.185 190.006 110.971C191.11 111.746 191.846 112.8 192.214 114.133H192.452C192.92 112.82 193.765 111.771 194.988 110.986C196.221 110.19 197.677 109.793 199.358 109.793C201.496 109.793 203.231 110.474 204.563 111.836C205.905 113.188 206.577 115.107 206.577 117.593V133H200.238V118.846C200.238 117.573 199.9 116.619 199.224 115.982C198.547 115.346 197.702 115.028 196.688 115.028C195.535 115.028 194.635 115.396 193.988 116.131C193.342 116.857 193.019 117.817 193.019 119.01V133H186.859V118.712C186.859 117.588 186.536 116.693 185.89 116.027C185.253 115.361 184.413 115.028 183.369 115.028C182.663 115.028 182.027 115.207 181.46 115.565C180.903 115.913 180.461 116.405 180.133 117.041C179.804 117.668 179.64 118.403 179.64 119.249V133H173.287ZM221.946 133.447C219.629 133.447 217.626 132.955 215.936 131.971C214.255 130.977 212.958 129.594 212.043 127.825C211.128 126.045 210.671 123.982 210.671 121.635C210.671 119.268 211.128 117.2 212.043 115.43C212.958 113.651 214.255 112.268 215.936 111.284C217.626 110.29 219.629 109.793 221.946 109.793C224.263 109.793 226.262 110.29 227.942 111.284C229.632 112.268 230.935 113.651 231.85 115.43C232.764 117.2 233.222 119.268 233.222 121.635C233.222 123.982 232.764 126.045 231.85 127.825C230.935 129.594 229.632 130.977 227.942 131.971C226.262 132.955 224.263 133.447 221.946 133.447ZM221.976 128.526C223.03 128.526 223.91 128.227 224.616 127.631C225.322 127.024 225.854 126.199 226.212 125.155C226.58 124.111 226.764 122.923 226.764 121.59C226.764 120.258 226.58 119.07 226.212 118.026C225.854 116.982 225.322 116.156 224.616 115.55C223.91 114.943 223.03 114.64 221.976 114.64C220.912 114.64 220.017 114.943 219.291 115.55C218.575 116.156 218.034 116.982 217.666 118.026C217.308 119.07 217.129 120.258 217.129 121.59C217.129 122.923 217.308 124.111 217.666 125.155C218.034 126.199 218.575 127.024 219.291 127.631C220.017 128.227 220.912 128.526 221.976 128.526Z" fill="white"/>
<path d="M118.099 270.273H120.034L122.625 276.597H122.727L125.318 270.273H127.253V279H125.736V273.004H125.655L123.243 278.974H122.109L119.697 272.991H119.616V279H118.099V270.273ZM134.476 270.273H136.057V275.974C136.057 276.599 135.909 277.149 135.613 277.624C135.321 278.098 134.909 278.469 134.378 278.736C133.846 279 133.226 279.132 132.515 279.132C131.802 279.132 131.18 279 130.649 278.736C130.118 278.469 129.706 278.098 129.413 277.624C129.121 277.149 128.974 276.599 128.974 275.974V270.273H130.555V275.842C130.555 276.206 130.635 276.53 130.794 276.814C130.956 277.098 131.183 277.321 131.476 277.483C131.768 277.642 132.115 277.722 132.515 277.722C132.916 277.722 133.263 277.642 133.555 277.483C133.851 277.321 134.078 277.098 134.237 276.814C134.396 276.53 134.476 276.206 134.476 275.842V270.273ZM137.775 279V270.273H139.356V277.675H143.2V279H137.775ZM143.075 271.598V270.273H150.038V271.598H147.341V279H145.773V271.598H143.075ZM152.961 270.273V279H151.381V270.273H152.961ZM158.573 274.001V275.271H154.644V274.001H158.573ZM160.263 279V270.273H161.844V277.675H165.688V279H160.263ZM168.509 279H166.822L169.894 270.273H171.846L174.922 279H173.235L170.904 272.062H170.836L168.509 279ZM168.564 275.578H173.167V276.848H168.564V275.578ZM183.244 270.273V279H181.838L177.725 273.055H177.653V279H176.072V270.273H177.487L181.595 276.222H181.671V270.273H183.244ZM190.813 273.06C190.742 272.83 190.644 272.624 190.519 272.442C190.397 272.257 190.249 272.099 190.076 271.969C189.905 271.838 189.709 271.74 189.488 271.675C189.266 271.607 189.025 271.572 188.763 271.572C188.295 271.572 187.877 271.69 187.51 271.926C187.144 272.162 186.856 272.509 186.645 272.966C186.438 273.42 186.334 273.974 186.334 274.628C186.334 275.287 186.438 275.845 186.645 276.303C186.853 276.76 187.141 277.108 187.51 277.347C187.88 277.582 188.309 277.7 188.797 277.7C189.241 277.7 189.624 277.615 189.948 277.445C190.275 277.274 190.526 277.033 190.702 276.72C190.878 276.405 190.966 276.036 190.966 275.612L191.324 275.668H188.955V274.432H192.496V275.48C192.496 276.227 192.337 276.874 192.019 277.419C191.701 277.964 191.263 278.385 190.707 278.68C190.15 278.973 189.51 279.119 188.789 279.119C187.985 279.119 187.279 278.939 186.671 278.578C186.066 278.214 185.593 277.699 185.252 277.031C184.914 276.361 184.745 275.565 184.745 274.645C184.745 273.94 184.844 273.311 185.043 272.757C185.245 272.203 185.526 271.733 185.887 271.347C186.248 270.957 186.671 270.662 187.157 270.46C187.643 270.256 188.171 270.153 188.742 270.153C189.225 270.153 189.675 270.224 190.093 270.366C190.51 270.506 190.881 270.705 191.205 270.963C191.532 271.222 191.8 271.528 192.01 271.884C192.221 272.239 192.359 272.631 192.424 273.06H190.813ZM201.745 272.672C201.705 272.3 201.537 272.01 201.242 271.803C200.949 271.595 200.568 271.491 200.1 271.491C199.77 271.491 199.487 271.541 199.252 271.641C199.016 271.74 198.835 271.875 198.71 272.045C198.585 272.216 198.522 272.411 198.519 272.629C198.519 272.811 198.56 272.969 198.642 273.102C198.727 273.236 198.843 273.349 198.987 273.443C199.132 273.534 199.293 273.611 199.469 273.673C199.645 273.736 199.823 273.788 200.002 273.831L200.82 274.036C201.149 274.112 201.466 274.216 201.77 274.347C202.077 274.477 202.351 274.642 202.593 274.841C202.837 275.04 203.03 275.28 203.172 275.561C203.314 275.842 203.385 276.172 203.385 276.55C203.385 277.061 203.254 277.511 202.993 277.901C202.732 278.287 202.354 278.589 201.86 278.808C201.368 279.024 200.773 279.132 200.074 279.132C199.395 279.132 198.806 279.027 198.306 278.817C197.808 278.607 197.419 278.3 197.138 277.896C196.86 277.493 196.709 277.001 196.686 276.422H198.242C198.264 276.726 198.358 276.979 198.523 277.18C198.688 277.382 198.902 277.533 199.166 277.632C199.433 277.732 199.732 277.781 200.061 277.781C200.405 277.781 200.706 277.73 200.965 277.628C201.226 277.523 201.431 277.378 201.578 277.193C201.726 277.006 201.801 276.787 201.804 276.537C201.801 276.31 201.735 276.122 201.604 275.974C201.473 275.824 201.29 275.699 201.054 275.599C200.821 275.497 200.548 275.406 200.236 275.327L199.243 275.071C198.524 274.886 197.956 274.607 197.539 274.232C197.124 273.854 196.916 273.352 196.916 272.727C196.916 272.213 197.056 271.763 197.334 271.376C197.615 270.99 197.997 270.69 198.48 270.477C198.963 270.261 199.51 270.153 200.121 270.153C200.74 270.153 201.283 270.261 201.749 270.477C202.218 270.69 202.585 270.987 202.852 271.368C203.12 271.746 203.257 272.18 203.266 272.672H201.745ZM210.296 270.273H211.877V275.974C211.877 276.599 211.729 277.149 211.434 277.624C211.141 278.098 210.729 278.469 210.198 278.736C209.667 279 209.046 279.132 208.336 279.132C207.623 279.132 207.001 279 206.469 278.736C205.938 278.469 205.526 278.098 205.234 277.624C204.941 277.149 204.795 276.599 204.795 275.974V270.273H206.376V275.842C206.376 276.206 206.455 276.53 206.614 276.814C206.776 277.098 207.003 277.321 207.296 277.483C207.589 277.642 207.935 277.722 208.336 277.722C208.736 277.722 209.083 277.642 209.376 277.483C209.671 277.321 209.898 277.098 210.057 276.814C210.216 276.53 210.296 276.206 210.296 275.842V270.273ZM213.595 279V270.273H216.868C217.539 270.273 218.101 270.398 218.556 270.648C219.013 270.898 219.358 271.241 219.591 271.679C219.827 272.114 219.945 272.608 219.945 273.162C219.945 273.722 219.827 274.219 219.591 274.653C219.355 275.088 219.007 275.43 218.547 275.68C218.087 275.928 217.52 276.051 216.847 276.051H214.678V274.751H216.634C217.026 274.751 217.347 274.683 217.597 274.547C217.847 274.411 218.031 274.223 218.151 273.984C218.273 273.746 218.334 273.472 218.334 273.162C218.334 272.852 218.273 272.58 218.151 272.344C218.031 272.108 217.845 271.925 217.593 271.794C217.343 271.661 217.02 271.594 216.625 271.594H215.176V279H213.595ZM221.318 279V270.273H224.591C225.261 270.273 225.824 270.398 226.278 270.648C226.736 270.898 227.081 271.241 227.314 271.679C227.55 272.114 227.667 272.608 227.667 273.162C227.667 273.722 227.55 274.219 227.314 274.653C227.078 275.088 226.73 275.43 226.27 275.68C225.81 275.928 225.243 276.051 224.569 276.051H222.4V274.751H224.356C224.748 274.751 225.069 274.683 225.319 274.547C225.569 274.411 225.754 274.223 225.873 273.984C225.996 273.746 226.057 273.472 226.057 273.162C226.057 272.852 225.996 272.58 225.873 272.344C225.754 272.108 225.568 271.925 225.315 271.794C225.065 271.661 224.743 271.594 224.348 271.594H222.899V279H221.318ZM236.839 274.636C236.839 275.577 236.663 276.382 236.311 277.053C235.961 277.72 235.484 278.232 234.879 278.587C234.276 278.942 233.593 279.119 232.829 279.119C232.065 279.119 231.38 278.942 230.775 278.587C230.173 278.229 229.696 277.716 229.343 277.048C228.994 276.378 228.819 275.574 228.819 274.636C228.819 273.696 228.994 272.892 229.343 272.224C229.696 271.554 230.173 271.041 230.775 270.686C231.38 270.331 232.065 270.153 232.829 270.153C233.593 270.153 234.276 270.331 234.879 270.686C235.484 271.041 235.961 271.554 236.311 272.224C236.663 272.892 236.839 273.696 236.839 274.636ZM235.249 274.636C235.249 273.974 235.146 273.416 234.938 272.962C234.734 272.504 234.45 272.159 234.086 271.926C233.722 271.69 233.303 271.572 232.829 271.572C232.355 271.572 231.936 271.69 231.572 271.926C231.208 272.159 230.923 272.504 230.715 272.962C230.511 273.416 230.409 273.974 230.409 274.636C230.409 275.298 230.511 275.858 230.715 276.315C230.923 276.77 231.208 277.115 231.572 277.351C231.936 277.584 232.355 277.7 232.829 277.7C233.303 277.7 233.722 277.584 234.086 277.351C234.45 277.115 234.734 276.77 234.938 276.315C235.146 275.858 235.249 275.298 235.249 274.636ZM238.334 279V270.273H241.606C242.277 270.273 242.839 270.389 243.294 270.622C243.751 270.855 244.096 271.182 244.329 271.602C244.565 272.02 244.683 272.507 244.683 273.064C244.683 273.624 244.564 274.109 244.325 274.521C244.089 274.93 243.741 275.247 243.281 275.472C242.821 275.693 242.256 275.804 241.585 275.804H239.254V274.491H241.372C241.764 274.491 242.085 274.437 242.335 274.33C242.585 274.219 242.77 274.058 242.889 273.848C243.011 273.635 243.072 273.374 243.072 273.064C243.072 272.754 243.011 272.49 242.889 272.271C242.767 272.05 242.581 271.882 242.331 271.768C242.081 271.652 241.758 271.594 241.363 271.594H239.915V279H238.334ZM242.842 275.045L245.003 279H243.238L241.116 275.045H242.842ZM245.755 271.598V270.273H252.718V271.598H250.02V279H248.452V271.598H245.755Z" fill="white"/>
<path d="M122.181 89V78.8182H125.999C126.781 78.8182 127.438 78.964 127.968 79.2557C128.501 79.5473 128.904 79.9484 129.176 80.4588C129.451 80.9659 129.589 81.5426 129.589 82.1889C129.589 82.8419 129.451 83.4219 129.176 83.929C128.901 84.4361 128.495 84.8355 127.958 85.1271C127.421 85.4155 126.76 85.5597 125.974 85.5597H123.444V84.0433H125.726C126.183 84.0433 126.558 83.9638 126.849 83.8047C127.141 83.6456 127.356 83.4268 127.496 83.1484C127.638 82.87 127.709 82.5502 127.709 82.1889C127.709 81.8277 127.638 81.5095 127.496 81.2344C127.356 80.9593 127.139 80.7455 126.844 80.593C126.553 80.4373 126.176 80.3594 125.716 80.3594H124.025V89H122.181ZM131.191 89V78.8182H135.009C135.791 78.8182 136.447 78.9541 136.978 79.2259C137.511 79.4976 137.914 79.8788 138.186 80.3693C138.461 80.8565 138.598 81.425 138.598 82.0746C138.598 82.7275 138.459 83.2943 138.181 83.7749C137.906 84.2521 137.5 84.6217 136.963 84.8835C136.426 85.142 135.766 85.2713 134.984 85.2713H132.265V83.7401H134.735C135.193 83.7401 135.567 83.6771 135.859 83.5511C136.151 83.4219 136.366 83.2346 136.505 82.9893C136.648 82.7408 136.719 82.4358 136.719 82.0746C136.719 81.7133 136.648 81.4051 136.505 81.1499C136.363 80.8913 136.146 80.6958 135.854 80.5632C135.562 80.4273 135.186 80.3594 134.725 80.3594H133.035V89H131.191ZM136.451 84.3864L138.971 89H136.913L134.437 84.3864H136.451ZM149.394 83.9091C149.394 85.0062 149.189 85.9458 148.778 86.728C148.37 87.5069 147.813 88.1035 147.107 88.5178C146.405 88.9321 145.607 89.1392 144.716 89.1392C143.824 89.1392 143.026 88.9321 142.32 88.5178C141.617 88.1001 141.06 87.5019 140.649 86.723C140.241 85.9408 140.038 85.0028 140.038 83.9091C140.038 82.812 140.241 81.8741 140.649 81.0952C141.06 80.313 141.617 79.7147 142.32 79.3004C143.026 78.8861 143.824 78.679 144.716 78.679C145.607 78.679 146.405 78.8861 147.107 79.3004C147.813 79.7147 148.37 80.313 148.778 81.0952C149.189 81.8741 149.394 82.812 149.394 83.9091ZM147.54 83.9091C147.54 83.1368 147.419 82.4856 147.177 81.9553C146.938 81.4216 146.607 81.0189 146.182 80.7472C145.758 80.4721 145.269 80.3345 144.716 80.3345C144.162 80.3345 143.673 80.4721 143.249 80.7472C142.825 81.0189 142.492 81.4216 142.25 81.9553C142.011 82.4856 141.892 83.1368 141.892 83.9091C141.892 84.6813 142.011 85.3343 142.25 85.8679C142.492 86.3982 142.825 86.8009 143.249 87.076C143.673 87.3478 144.162 87.4837 144.716 87.4837C145.269 87.4837 145.758 87.3478 146.182 87.076C146.607 86.8009 146.938 86.3982 147.177 85.8679C147.419 85.3343 147.54 84.6813 147.54 83.9091ZM154.611 89V78.8182H158.429C159.211 78.8182 159.867 78.964 160.398 79.2557C160.931 79.5473 161.334 79.9484 161.606 80.4588C161.881 80.9659 162.018 81.5426 162.018 82.1889C162.018 82.8419 161.881 83.4219 161.606 83.929C161.331 84.4361 160.924 84.8355 160.388 85.1271C159.851 85.4155 159.189 85.5597 158.404 85.5597H155.873V84.0433H158.155C158.613 84.0433 158.987 83.9638 159.279 83.8047C159.571 83.6456 159.786 83.4268 159.925 83.1484C160.068 82.87 160.139 82.5502 160.139 82.1889C160.139 81.8277 160.068 81.5095 159.925 81.2344C159.786 80.9593 159.569 80.7455 159.274 80.593C158.982 80.4373 158.606 80.3594 158.145 80.3594H156.455V89H154.611ZM163.62 89V78.8182H165.465V87.4538H169.949V89H163.62ZM173.24 89H171.272L174.856 78.8182H177.133L180.723 89H178.754L176.034 80.9062H175.955L173.24 89ZM173.305 85.0078H178.674V86.4893H173.305V85.0078ZM190.431 78.8182V89H188.79L183.993 82.0646H183.908V89H182.064V78.8182H183.714L188.507 85.7585H188.596V78.8182H190.431Z" fill="white"/>
<path d="M153.015 40.031L155.79 38.11L158.501 40.031C159.017 40.3802 159.533 40.3895 160.05 40.0589C160.566 39.7298 160.738 39.2936 160.566 38.7503L159.469 35.6069L162.567 33.3948C163.04 33.0456 163.18 32.6086 162.987 32.0839C162.793 31.5608 162.394 31.2992 161.792 31.2992H158.114L157.016 28.214C156.801 27.6707 156.393 27.3991 155.79 27.3991C155.188 27.3991 154.779 27.6707 154.564 28.214L153.467 31.2992H149.788C149.143 31.2992 148.724 31.5608 148.531 32.0839C148.337 32.6086 148.476 33.0456 148.949 33.3948L152.047 35.6069L150.95 38.7503C150.735 39.2936 150.896 39.7298 151.433 40.0589C151.971 40.3895 152.499 40.3802 153.015 40.031V40.031ZM143.722 62.8499C142.861 63.1215 142.076 63.0245 141.365 62.5588C140.656 62.0931 140.301 61.4722 140.301 60.6961V45.9103C138.666 44.2804 137.397 42.4176 136.494 40.322C135.59 38.2264 135.138 35.995 135.138 33.6277C135.138 28.4275 137.139 24.0228 141.14 20.4137C145.142 16.8046 150.025 15 155.79 15C161.555 15 166.439 16.8046 170.44 20.4137C174.441 24.0228 176.442 28.4275 176.442 33.6277C176.442 35.995 175.99 38.2264 175.087 40.322C174.183 42.4176 172.914 44.2804 171.279 45.9103V60.6961C171.279 61.4722 170.924 62.0931 170.213 62.5588C169.504 63.0245 168.719 63.1215 167.859 62.8499L155.79 59.2408L143.722 62.8499ZM155.79 47.5985C160.093 47.5985 163.75 46.2402 166.761 43.5236C169.773 40.8071 171.279 37.5085 171.279 33.6277C171.279 29.7469 169.773 26.4483 166.761 23.7317C163.75 21.0152 160.093 19.6569 155.79 19.6569C151.488 19.6569 147.831 21.0152 144.819 23.7317C141.807 26.4483 140.301 29.7469 140.301 33.6277C140.301 37.5085 141.807 40.8071 144.819 43.5236C147.831 46.2402 151.488 47.5985 155.79 47.5985Z" fill="#F8F8F8"/>
</g>
<defs>
<filter id="filter0_d_19_70" x="0" y="0" width="310.548" height="389" filterUnits="userSpaceOnUse" color-interpolation-filters="sRGB">
<feFlood flood-opacity="0" result="BackgroundImageFix"/>
<feColorMatrix in="SourceAlpha" type="matrix" values="0 0 0 0 0 0 0 0 0 0 0 0 0 0 0 0 0 0 127 0" result="hardAlpha"/>
<feOffset dy="4"/>
<feGaussianBlur stdDeviation="2"/>
<feComposite in2="hardAlpha" operator="out"/>
<feColorMatrix type="matrix" values="0 0 0 0 0 0 0 0 0 0 0 0 0 0 0 0 0 0 0.25 0"/>
<feBlend mode="normal" in2="BackgroundImageFix" result="effect1_dropShadow_19_70"/>
<feBlend mode="normal" in="SourceGraphic" in2="effect1_dropShadow_19_70" result="shape"/>
</filter>
<filter id="filter1_b_19_70" x="-196" y="-200" width="702.548" height="781" filterUnits="userSpaceOnUse" color-interpolation-filters="sRGB">
<feFlood flood-opacity="0" result="BackgroundImageFix"/>
<feGaussianBlur in="BackgroundImageFix" stdDeviation="100"/>
<feComposite in2="SourceAlpha" operator="in" result="effect1_backgroundBlur_19_70"/>
<feBlend mode="normal" in="SourceGraphic" in2="effect1_backgroundBlur_19_70" result="shape"/>
</filter>
</defs>
</svg>
